SplineFontDB: 3.0
FontName: Oswald-Regular
FullName: Oswald Regular
FamilyName: Oswald
Weight: Regular
Copyright: Copyright (c) 2010-13 by Vernon Adams
Version: 3
ItalicAngle: 0
UnderlinePosition: -9
UnderlineWidth: 3
Ascent: 1658
Descent: 390
UFOAscent: 1658
UFODescent: -390
LayerCount: 2
Layer: 0 0 "Back"  1
Layer: 1 0 "Fore"  0
FSType: 0
OS2Version: 0
OS2_WeightWidthSlopeOnly: 0
OS2_UseTypoMetrics: 1
CreationTime: 1372384577
ModificationTime: 1372746460
PfmFamily: 17
TTFWeight: 400
TTFWidth: 5
LineGap: 0
VLineGap: 0
OS2TypoAscent: 2233
OS2TypoAOffset: 0
OS2TypoDescent: -548
OS2TypoDOffset: 0
OS2TypoLinegap: 0
OS2WinAscent: 2233
OS2WinAOffset: 0
OS2WinDescent: 548
OS2WinDOffset: 0
HheadAscent: 2233
HheadAOffset: 0
HheadDescent: -548
HheadDOffset: 0
OS2Vendor: 'newt'
Lookup: 258 0 0 "'kern' Horizontal Kerning in Cyrillic lookup 0"  {"'kern' Horizontal Kerning in Cyrillic lookup 0 subtable"  "'kern' Horizontal Kerning lookup 2 kerning class 1"  "'kern' Horizontal Kerning lookup 3 kerning class 1"  } ['kern' ('DFLT' <'dflt' > 'cyrl' <'dflt' > 'latn' <'dflt' > ) ]
Lookup: 260 0 0 "markMarkPositioninglookup2"  {"markMarkPositioninglookup2 subtable"  } ['mark' ('latn' <'dflt' > 'grek' <'dflt' > 'cyrl' <'dflt' > 'DFLT' <'dflt' > ) ]
MarkAttachClasses: 1
DEI: 91125
KernClass2: 40 56 "'kern' Horizontal Kerning lookup 3 kerning class 1" 
 89 A Aacute Abreve Acircumflex Adieresis Agrave Amacron Aogonek Aring Atilde uni0200 uni0202
 16 D Dcaron uni1E0A
 94 E Eacute Ebreve Ecaron Ecircumflex Edieresis Edotaccent Egrave Emacron Eogonek uni0204 uni0206
 9 F uni1E1E
 52 G Gbreve Gcircumflex Gcommaaccent Gdotaccent uni01F4
 14 K Kcommaaccent
 28 L Lacute Lcaron Lcommaaccent
 9 P uni1E56
 44 R Racute Rcaron Rcommaaccent uni0210 uni0212
 37 T Tcaron Tcommaaccent uni021A uni1E6A
 1 V
 37 W Wacute Wcircumflex Wdieresis Wgrave
 37 Y Yacute Ycircumflex Ydieresis Ygrave
 89 a aacute abreve acircumflex adieresis agrave amacron aogonek aring atilde uni0201 uni0203
 9 afii10017

StartChar: A
Encoding: 65 65 0
Width: 1007
VWidth: 0
Flags: W
HStem: 0 21G<38 260.78 745.364 969> 418 165<366 643> 1638 20G<387.73 619.27>
AnchorPoint: "ogonek" 880 0 basechar 0
LayerCount: 2
UndoRedoHistory
Layer: 1
Undoes
EndUndoes
Redoes
EndRedoes
EndUndoRedoHistory
Fore
SplineSet
38 0 m 1
 392 1658 l 1
 615 1658 l 1
 969 0 l 1
 749 0 l 1
 673 418 l 1
 336 418 l 1
 257 0 l 1
 38 0 l 1
366 583 m 1
 643 583 l 1
 504 1332 l 1
 366 583 l 1
EndSplineSet
EndChar

StartChar: AE
Encoding: 198 198 1
Width: 1297
VWidth: 0
Flags: W
HStem: 0 167<820 1240> 420 166<355 599> 776 166<820 1120> 1491 167<820 1240>
VStem: 599 221<167 420 586 776 942 1239>
LayerCount: 2
UndoRedoHistory
Layer: 1
Undoes
EndUndoes
Redoes
EndRedoes
EndUndoRedoHistory
Fore
SplineSet
-105 0 m 1
 594 1658 l 1
 1240 1658 l 1
 1240 1491 l 1
 820 1491 l 1
 820 942 l 1
 1120 942 l 1
 1120 776 l 1
 820 776 l 1
 820 167 l 1
 1240 167 l 1
 1240 0 l 1
 599 0 l 1
 599 420 l 1
 293 420 l 1
 116 0 l 1
 -105 0 l 1
355 586 m 1
 599 586 l 1
 599 1239 l 1
 355 586 l 1
EndSplineSet
Colour: ffff00
EndChar

StartChar: B
Encoding: 66 66 11
Width: 1073
VWidth: 0
Flags: W
HStem: 0 166<361 686.439> 790 176<361 670.02> 1487 171<361 681.374>
VStem: 130 231<166 790 966 1487> 751 202<1046.32 1419.28> 777 220<255.847 681.831>
LayerCount: 2
UndoRedoHistory
Layer: 1
Undoes
EndUndoes
Redoes
EndRedoes
EndUndoRedoHistory
Fore
SplineSet
130 0 m 1xf4
 130 1658 l 1
 509 1658 l 2
 809 1658 953 1528 953 1243 c 0xf8
 953 1039 876 915 715 893 c 1
 913 845 997 708 997 474 c 0
 997 187 868 0 571 0 c 2
 130 0 l 1xf4
361 166 m 1
 517 166 l 2
 723 166 777 259 777 474 c 0xf4
 777 680 701 790 498 790 c 2
 361 790 l 1
 361 166 l 1
361 966 m 1
 497 966 l 2
 692 966 751 1047 751 1243 c 0xf8
 751 1471 651 1487 415 1487 c 2
 361 1487 l 1
 361 966 l 1
EndSplineSet
EndChar

StartChar: C
Encoding: 67 67 12
Width: 1054
VWidth: 0
Flags: W
HStem: -18 181<407.381 681.716> 1494 180<407.81 686.382>
VStem: 99 233<244.759 1416.37> 743 219<229.216 616 1065 1429.81>
AnchorPoint: "cedilla" 480 0 basechar 0
LayerCount: 2
UndoRedoHistory
Layer: 1
Undoes
EndUndoes
Redoes
EndRedoes
EndUndoRedoHistory
Fore
SplineSet
544 -18 m 0
 192 -18 99 223 99 533 c 2
 99 1119 l 2
 99 1455 193 1674 544 1674 c 0
 855 1674 962 1496 962 1197 c 2
 962 1065 l 1
 743 1065 l 1
 743 1182 l 2
 743 1365 740 1494 546 1494 c 0
 350 1494 332 1358 332 1152 c 2
 332 496 l 2
 332 246 387 163 546 163 c 0
 733 163 743 297 743 494 c 2
 743 616 l 1
 962 616 l 1
 962 493 l 2
 962 189 871 -18 544 -18 c 0
EndSplineSet
EndChar

StartChar: D
Encoding: 68 68 18
Width: 1079
VWidth: 0
Flags: W
HStem: 0 166<361 654.5> 1487 171<361 658.932>
VStem: 130 231<166 1487> 747 233<260.315 1396.45>
LayerCount: 2
UndoRedoHistory
Layer: 1
Undoes
EndUndoes
Redoes
EndRedoes
EndUndoRedoHistory
Fore
SplineSet
361 166 m 1
 491 166 l 2
 743 166 747 318 747 586 c 2
 747 1125 l 2
 747 1380 723 1487 486 1487 c 2
 361 1487 l 1
 361 166 l 1
130 0 m 1
 130 1658 l 1
 490 1658 l 2
 859 1658 980 1489 980 1152 c 2
 980 542 l 2
 980 190 856 0 507 0 c 2
 130 0 l 1
EndSplineSet
EndChar

StartChar: Dcroat
Encoding: 264 272 20
Width: 1083
VWidth: 0
Flags: W
HStem: 0 166<366 659.1> 795 132<34 134 366 489> 1487 171<366 663.853>
VStem: 134 232<166 795 927 1487> 751 233<260.315 1396.45>
LayerCount: 2
UndoRedoHistory
Layer: 1
Undoes
EndUndoes
Redoes
EndRedoes
EndUndoRedoHistory
Fore
SplineSet
366 166 m 1
 495 166 l 2
 748 166 751 318 751 586 c 2
 751 1125 l 2
 751 1380 728 1487 490 1487 c 2
 366 1487 l 1
 366 927 l 1
 489 927 l 1
 489 795 l 1
 366 795 l 1
 366 166 l 1
134 0 m 1
 134 795 l 1
 34 795 l 1
 34 927 l 1
 134 927 l 1
 134 1658 l 1
 495 1658 l 2
 864 1658 984 1489 984 1152 c 2
 984 542 l 2
 984 190 860 0 512 0 c 2
 134 0 l 1
EndSplineSet
EndChar

StartChar: E
Encoding: 69 69 21
Width: 834
VWidth: 0
Flags: W
HStem: 0 166<361 777> 774 165<361 695> 1487 171<361 772>
VStem: 130 231<166 774 939 1487>
AnchorPoint: "ogonek" 511 0 basechar 0
LayerCount: 2
UndoRedoHistory
Layer: 1
Undoes
EndUndoes
Redoes
EndRedoes
EndUndoRedoHistory
Fore
SplineSet
130 0 m 1
 130 1658 l 1
 772 1658 l 1
 772 1487 l 1
 361 1487 l 1
 361 939 l 1
 695 939 l 1
 695 774 l 1
 361 774 l 1
 361 166 l 1
 777 166 l 1
 777 0 l 1
 130 0 l 1
EndSplineSet
EndChar

StartChar: Eng
Encoding: 269 330 30
Width: 1081
VWidth: 0
Flags: W
HStem: -375 157<546 724.78> 0 21G<130 313> 1638 20G<130 295.774 770 951>
VStem: 130 183<0 1133> 770 181<-170.611 87 557 1658>
LayerCount: 2
UndoRedoHistory
Layer: 1
Undoes
EndUndoes
Redoes
EndRedoes
EndUndoRedoHistory
Fore
SplineSet
546 -375 m 1
 546 -218 l 1
 753 -218 768 -159 768 19 c 2
 768 87 l 1
 313 1133 l 1
 313 0 l 1
 130 0 l 1
 130 1658 l 1
 287 1658 l 1
 770 557 l 1
 770 1658 l 1
 951 1658 l 1
 951 0 l 2
 951 -245 889 -375 625 -375 c 2
 546 -375 l 1
EndSplineSet
Colour: ffff00
EndChar

StartChar: Eth
Encoding: 208 208 32
Width: 1061
VWidth: 0
Flags: W
HStem: 0 166<361 654.5> 795 132<29 130 361 485> 1487 171<361 658.932>
VStem: 130 231<166 795 927 1487> 747 233<260.315 1396.45>
LayerCount: 2
UndoRedoHistory
Layer: 1
Undoes
EndUndoes
Redoes
EndRedoes
EndUndoRedoHistory
Fore
SplineSet
361 166 m 1
 491 166 l 2
 743 166 747 318 747 586 c 2
 747 1125 l 2
 747 1380 723 1487 486 1487 c 2
 361 1487 l 1
 361 927 l 1
 485 927 l 1
 485 795 l 1
 361 795 l 1
 361 166 l 1
130 0 m 1
 130 795 l 1
 29 795 l 1
 29 927 l 1
 130 927 l 1
 130 1658 l 1
 490 1658 l 2
 859 1658 980 1489 980 1152 c 2
 980 542 l 2
 980 190 856 0 507 0 c 2
 130 0 l 1
EndSplineSet
Colour: fff345
EndChar

StartChar: Euro
Encoding: 271 8364 33
Width: 1018
VWidth: 0
Flags: W
HStem: -18 181<407.381 681.716> 617 120<-21 99 332 537> 943 121<-21 99 332 537> 1494 180<407.81 686.382>
VStem: 99 233<244.759 617 737 943 1064 1416.37> 743 219<229.216 571 1110 1429.81>
CounterMasks: 1 f0
LayerCount: 2
UndoRedoHistory
Layer: 1
Undoes
EndUndoes
Redoes
EndRedoes
EndUndoRedoHistory
Fore
SplineSet
544 -18 m 0
 192 -18 99 223 99 533 c 2
 99 617 l 1
 -21 617 l 1
 -21 737 l 1
 99 737 l 1
 99 943 l 1
 -21 943 l 1
 -21 1064 l 1
 99 1064 l 1
 99 1119 l 2
 99 1455 193 1674 544 1674 c 0
 855 1674 962 1496 962 1197 c 2
 962 1110 l 1
 743 1110 l 1
 743 1182 l 2
 743 1365 740 1494 546 1494 c 0
 350 1494 332 1358 332 1152 c 2
 332 1064 l 1
 537 1064 l 1
 537 943 l 1
 332 943 l 1
 332 737 l 1
 537 737 l 1
 537 617 l 1
 332 617 l 1
 332 496 l 2
 332 246 387 163 546 163 c 0
 733 163 743 297 743 494 c 2
 743 571 l 1
 962 571 l 1
 962 493 l 2
 962 189 871 -18 544 -18 c 0
EndSplineSet
EndChar

StartChar: F
Encoding: 70 70 34
Width: 800
VWidth: 0
Flags: W
HStem: 0 21G<130 361> 776 165<361 678> 1492 166<361 770>
VStem: 130 231<0 776 941 1492>
LayerCount: 2
UndoRedoHistory
Layer: 1
Undoes
EndUndoes
Redoes
EndRedoes
EndUndoRedoHistory
Fore
SplineSet
130 0 m 1
 130 1658 l 1
 770 1658 l 1
 770 1492 l 1
 361 1492 l 1
 361 941 l 1
 678 941 l 1
 678 776 l 1
 361 776 l 1
 361 0 l 1
 130 0 l 1
EndSplineSet
EndChar

StartChar: G
Encoding: 71 71 35
Width: 1096
VWidth: 0
Flags: W
HStem: -20 183<413.812 691.539> 0 21G<838.696 988> 658 164<568 778> 1494 180<407.638 691.064>
VStem: 99 231<254.554 1405.84> 758 217<1128 1425.92> 778 210<264.795 658> 841 147<0 124.463>
LayerCount: 2
UndoRedoHistory
Layer: 1
Undoes
EndUndoes
Redoes
EndRedoes
EndUndoRedoHistory
Fore
SplineSet
525 -20 m 0xb9
 213 -20 99 186 99 544 c 2
 99 1099 l 2
 99 1463 192 1674 543 1674 c 0
 854 1674 975 1518 975 1189 c 2
 975 1128 l 1
 758 1128 l 1
 758 1180 l 2xbc
 758 1394 733 1494 546 1494 c 0
 342 1494 330 1340 330 1134 c 2
 330 520 l 2
 330 280 370 163 552 163 c 0
 733 163 778 292 778 542 c 2
 778 658 l 1xba
 568 658 l 1
 568 822 l 1
 988 822 l 1
 988 0 l 1
 841 0 l 1x79
 819 191 l 1
 775 68 689 -20 525 -20 c 0xb9
EndSplineSet
EndChar

StartChar: H
Encoding: 72 72 40
Width: 1148
VWidth: 0
Flags: W
HStem: 0 21G<130 361 787 1018> 777 165<361 787> 1638 20G<130 361 787 1018>
VStem: 130 231<0 777 942 1658> 787 231<0 777 942 1658>
LayerCount: 2
UndoRedoHistory
Layer: 1
Undoes
EndUndoes
Redoes
EndRedoes
EndUndoRedoHistory
Fore
SplineSet
130 0 m 1
 130 1658 l 1
 361 1658 l 1
 361 942 l 1
 787 942 l 1
 787 1658 l 1
 1018 1658 l 1
 1018 0 l 1
 787 0 l 1
 787 777 l 1
 361 777 l 1
 361 0 l 1
 130 0 l 1
EndSplineSet
EndChar

StartChar: Hbar
Encoding: 276 294 41
Width: 1148
VWidth: 0
Flags: W
HStem: 0 21G<130 361 787 1018> 777 165<361 787> 1267 120<33 130 361 787 1018 1115> 1638 20G<130 361 787 1018>
VStem: 130 231<0 777 942 1267 1387 1658> 787 231<0 777 942 1267 1387 1658>
LayerCount: 2
UndoRedoHistory
Layer: 1
Undoes
EndUndoes
Redoes
EndRedoes
EndUndoRedoHistory
Fore
SplineSet
130 0 m 1
 130 1267 l 1
 33 1267 l 1
 33 1387 l 1
 130 1387 l 1
 130 1658 l 1
 361 1658 l 1
 361 1387 l 1
 787 1387 l 1
 787 1658 l 1
 1018 1658 l 1
 1018 1387 l 1
 1115 1387 l 1
 1115 1267 l 1
 1018 1267 l 1
 1018 0 l 1
 787 0 l 1
 787 777 l 1
 361 777 l 1
 361 0 l 1
 130 0 l 1
361 942 m 1
 787 942 l 1
 787 1267 l 1
 361 1267 l 1
 361 942 l 1
EndSplineSet
EndChar

StartChar: I
Encoding: 73 73 43
Width: 507
VWidth: 0
Flags: W
HStem: 0 21G<141 368> 1638 20G<141 368>
VStem: 141 227<0 1658>
AnchorPoint: "ogonek" 220 0 basechar 0
LayerCount: 2
UndoRedoHistory
Layer: 1
Undoes
EndUndoes
Redoes
EndRedoes
EndUndoRedoHistory
Fore
SplineSet
141 0 m 1
 141 1658 l 1
 368 1658 l 1
 368 0 l 1
 141 0 l 1
EndSplineSet
EndChar

StartChar: J
Encoding: 74 74 53
Width: 617
VWidth: 0
Flags: W
HStem: -39 166<14 199.218> 1638 20G<255 486>
VStem: 255 231<180.439 1658>
AnchorPoint: "circumflexcomb" 338 1800 basechar 0
LayerCount: 2
UndoRedoHistory
Layer: 1
Undoes
EndUndoes
Redoes
EndRedoes
EndUndoRedoHistory
Fore
SplineSet
14 -39 m 1
 14 127 l 1
 215 127 255 170 255 378 c 2
 255 1658 l 1
 486 1658 l 1
 486 374 l 1
 485 91 411 -39 124 -39 c 2
 14 -39 l 1
EndSplineSet
EndChar

StartChar: K
Encoding: 75 75 55
Width: 1014
VWidth: 0
Flags: W
HStem: 0 21G<130 361 775.898 1009> 1638 20G<130 361 731.269 956>
VStem: 130 231<0 653 877 1658>
LayerCount: 2
UndoRedoHistory
Layer: 1
Undoes
EndUndoes
Redoes
EndRedoes
EndUndoRedoHistory
Fore
SplineSet
130 0 m 1
 130 1658 l 1
 361 1658 l 1
 361 877 l 1
 741 1658 l 1
 956 1658 l 1
 628 927 l 1
 1009 0 l 1
 784 0 l 1
 451 822 l 1
 361 653 l 1
 361 0 l 1
 130 0 l 1
EndSplineSet
EndChar

StartChar: L
Encoding: 76 76 57
Width: 813
VWidth: 0
Flags: W
HStem: 0 166<361 784> 1638 20G<130 361>
VStem: 130 231<166 1658>
LayerCount: 2
UndoRedoHistory
Layer: 1
Undoes
EndUndoes
Redoes
EndRedoes
EndUndoRedoHistory
Fore
SplineSet
130 0 m 1
 130 1658 l 1
 361 1658 l 1
 361 166 l 1
 784 166 l 1
 784 0 l 1
 130 0 l 1
EndSplineSet
EndChar

StartChar: Lslash
Encoding: 289 321 62
Width: 813
VWidth: 0
Flags: W
HStem: 0 166<361 784> 1177 20G<539.559 576> 1638 20G<130 361>
VStem: 130 231<166 772 1079 1658>
LayerCount: 2
UndoRedoHistory
Layer: 1
Undoes
EndUndoes
Redoes
EndRedoes
EndUndoRedoHistory
Fore
SplineSet
130 0 m 1
 130 772 l 1
 -12 694 l 1
 -12 872 l 1
 130 950 l 1
 130 1658 l 1
 361 1658 l 1
 361 1079 l 1
 576 1197 l 1
 576 1020 l 1
 361 901 l 1
 361 166 l 1
 784 166 l 1
 784 0 l 1
 130 0 l 1
EndSplineSet
EndChar

StartChar: M
Encoding: 77 77 63
Width: 1352
VWidth: 0
Flags: W
HStem: 0 21G<125 314.299 606.369 745.664 1039.7 1227> 1638 20G<155.626 386.357 965.613 1196.37>
VStem: 125 189<0 766.745> 156 176<891.255 1205> 1022 174<891.255 1205> 1040 187<0 766.745>
LayerCount: 2
UndoRedoHistory
Layer: 1
Undoes
EndUndoes
Redoes
EndRedoes
EndUndoRedoHistory
Fore
SplineSet
125 0 m 1xe0
 156 1658 l 1
 382 1658 l 1
 675 313 l 1
 970 1658 l 1
 1196 1658 l 1xd8
 1227 0 l 1
 1040 0 l 1xc4
 1022 1205 l 1
 741 0 l 1
 611 0 l 1
 332 1205 l 1xd8
 314 0 l 1
 125 0 l 1xe0
EndSplineSet
EndChar

StartChar: N
Encoding: 78 78 64
Width: 1081
VWidth: 0
Flags: W
HStem: 0 21G<130 325 794.562 951> 1638 20G<130 295.556 758 951>
VStem: 130 195<0 1133> 758 193<557 1658>
LayerCount: 2
UndoRedoHistory
Layer: 1
Undoes
EndUndoes
Redoes
EndRedoes
EndUndoRedoHistory
Fore
SplineSet
130 0 m 1
 130 1658 l 1
 287 1658 l 1
 758 557 l 1
 758 1658 l 1
 951 1658 l 1
 951 0 l 1
 803 0 l 1
 325 1133 l 1
 325 0 l 1
 130 0 l 1
EndSplineSet
EndChar

StartChar: O
Encoding: 79 79 69
Width: 1104
VWidth: 0
Flags: W
HStem: -18 181<407.351 696.315> 1494 180<407.685 696.149>
VStem: 99 233<248.992 1415.78> 772 233<249.996 1414.45>
AnchorPoint: "ogonek" 581 0 basechar 0
LayerCount: 2
UndoRedoHistory
Layer: 1
Undoes
EndUndoes
Redoes
EndRedoes
EndUndoRedoHistory
Fore
SplineSet
552 163 m 0
 738 163 772 285 772 470 c 2
 772 1196 l 2
 772 1380 738 1494 552 1494 c 0
 366 1494 332 1380 332 1196 c 2
 332 470 l 2
 332 285 366 163 552 163 c 0
552 -18 m 0
 215 -18 99 190 99 520 c 2
 99 1148 l 2
 99 1477 217 1674 552 1674 c 0
 886 1674 1005 1474 1005 1148 c 2
 1005 519 l 2
 1005 193 887 -18 552 -18 c 0
EndSplineSet
EndChar

StartChar: OE
Encoding: 293 338 70
Width: 1399
VWidth: 0
Flags: W
HStem: 0 172<420.068 704 935 1343> 775 165<935 1264> 1492 166<425.769 704 935 1339>
VStem: 99 233<260.738 1399.55> 704 231<172 775 940 1486>
LayerCount: 2
UndoRedoHistory
Layer: 1
Undoes
EndUndoes
Redoes
EndRedoes
EndUndoRedoHistory
Fore
SplineSet
589 0 m 2
 220 0 99 168 99 505 c 2
 99 1119 l 2
 99 1470 225 1658 573 1658 c 2
 1339 1658 l 1
 1339 1486 l 1
 935 1486 l 1
 935 940 l 1
 1264 940 l 1
 1264 775 l 1
 935 775 l 1
 935 166 l 1
 1343 166 l 1
 1343 0 l 1
 589 0 l 2
594 172 m 2
 704 172 l 1
 704 1492 l 1
 589 1492 l 2
 338 1492 332 1345 332 1076 c 2
 332 530 l 2
 332 278 356 172 594 172 c 2
EndSplineSet
EndChar

StartChar: Oslash
Encoding: 216 216 78
Width: 1106
VWidth: 0
Flags: W
HStem: -18 181<407.351 696.315> 1494 180<407.685 696.149>
VStem: 99 233<248.992 1415.78> 772 233<249.996 1414.45>
LayerCount: 2
UndoRedoHistory
Layer: 1
Undoes
EndUndoes
Redoes
EndRedoes
EndUndoRedoHistory
Fore
SplineSet
327 -151 m 1
 248 -126 l 1
 764 1803 l 1
 845 1782 l 1
 327 -151 l 1
EndSplineSet
Refer: 69 79 N 1 0 0 1 0 0 2
EndChar

StartChar: P
Encoding: 80 80 80
Width: 983
VWidth: 0
Flags: W
HStem: 0 21G<130 361> 772 166<361 659.271> 1492 166<361 667.013>
VStem: 130 231<0 772 938 1492> 732 219<1009.64 1429>
LayerCount: 2
UndoRedoHistory
Layer: 1
Undoes
EndUndoes
Redoes
EndRedoes
EndUndoRedoHistory
Fore
SplineSet
130 0 m 1
 130 1658 l 1
 541 1658 l 2
 838 1658 951 1489 951 1200 c 0
 951 936 813 772 542 772 c 2
 361 772 l 1
 361 0 l 1
 130 0 l 1
361 938 m 1
 466 938 l 2
 666 938 732 993 732 1199 c 0
 732 1434 701 1492 469 1492 c 2
 361 1492 l 1
 361 938 l 1
EndSplineSet
EndChar

StartChar: Pi
Encoding: 297 928 81
Width: 1142
VWidth: 0
Flags: W
HStem: 0 21G<130 349 792 1013> 1493 165<349 792>
VStem: 130 219<0 1493> 792 221<0 1493>
LayerCount: 2
UndoRedoHistory
Layer: 1
Undoes
EndUndoes
Redoes
EndRedoes
EndUndoRedoHistory
Fore
SplineSet
130 0 m 1
 130 1658 l 1
 1013 1658 l 1
 1013 0 l 1
 792 0 l 1
 792 1493 l 1
 349 1493 l 1
 349 0 l 1
 130 0 l 1
EndSplineSet
EndChar

StartChar: Q
Encoding: 81 81 82
Width: 1107
VWidth: 0
Flags: W
HStem: -18 181<410.752 622.443> 1494 180<408.504 697.329>
VStem: 99 233<248.992 1415.78> 774 233<246.706 1414.45>
LayerCount: 2
UndoRedoHistory
Layer: 1
Undoes
EndUndoes
Redoes
EndRedoes
EndUndoRedoHistory
Fore
SplineSet
891 -335 m 1
 781 -280 669 -132 592 -17 c 1
 579 -17 567 -18 553 -18 c 0
 216 -18 99 190 99 520 c 2
 99 1148 l 2
 99 1477 218 1674 553 1674 c 0
 887 1674 1007 1474 1007 1148 c 2
 1007 519 l 2
 1007 274 941 94 764 20 c 1
 814 -44 876 -118 927 -153 c 1
 891 -335 l 1
553 163 m 0
 739 163 774 285 774 470 c 2
 774 1196 l 2
 774 1380 739 1494 553 1494 c 0
 367 1494 332 1380 332 1196 c 2
 332 470 l 2
 332 285 367 163 553 163 c 0
EndSplineSet
EndChar

StartChar: R
Encoding: 82 82 83
Width: 1063
VWidth: 0
Flags: W
HStem: 0 21G<130 361 752.396 982> 778 166<361 540> 1492 166<361 643.588>
VStem: 130 231<0 778 944 1492> 728 222<1029.41 1412.75>
LayerCount: 2
UndoRedoHistory
Layer: 1
Undoes
EndUndoes
Redoes
EndRedoes
EndUndoRedoHistory
Fore
SplineSet
130 0 m 1
 130 1658 l 1
 463 1658 l 2
 795 1658 950 1534 950 1219 c 0
 950 1025 892 880 745 832 c 1
 982 0 l 1
 758 0 l 1
 540 778 l 1
 361 778 l 1
 361 0 l 1
 130 0 l 1
361 944 m 1
 448 944 l 2
 644 944 728 1005 728 1219 c 0
 728 1414 674 1492 463 1492 c 2
 361 1492 l 1
 361 944 l 1
EndSplineSet
EndChar

StartChar: S
Encoding: 83 83 87
Width: 969
VWidth: 0
Flags: W
HStem: -18 182<394.973 646.248> 1191 21G<689 767.222>
VStem: 83 207<290.342 466.865 1158.93 1437.89> 695 195<1241.03 1392.07> 702 215<218.652 522.645>
AnchorPoint: "cedilla" 470 0 basechar 0
LayerCount: 2
UndoRedoHistory
Layer: 1
Undoes
EndUndoes
Redoes
EndRedoes
EndUndoRedoHistory
Fore
SplineSet
520 -18 m 0xe8
 231 -18 96 178 79 464 c 1
 285 520 l 1
 296 343 343 164 520 164 c 0
 639 164 702 231 702 359 c 0xe8
 702 507 624 583 522 677 c 1
 244 924 l 1
 136 1022 83 1124 83 1291 c 0
 83 1534 234 1672 473 1674 c 1
 742 1678 864 1535 890 1245 c 1
 695 1191 l 1xf0
 683 1355 645 1506 473 1495 c 0
 358 1487 290 1434 290 1313 c 0
 290 1213 323 1157 399 1088 c 1
 679 841 l 1
 803 729 917 584 917 377 c 0
 917 131 752 -18 520 -18 c 0xe8
EndSplineSet
EndChar

StartChar: T
Encoding: 84 84 93
Width: 820
VWidth: 0
Flags: W
HStem: 0 21G<300 531> 1487 171<-3 300 531 823>
VStem: 300 231<0 1487>
AnchorPoint: "cedilla" 380 0 basechar 0
LayerCount: 2
UndoRedoHistory
Layer: 1
Undoes
EndUndoes
Redoes
EndRedoes
EndUndoRedoHistory
Fore
SplineSet
300 0 m 1
 300 1487 l 1
 -3 1487 l 1
 -3 1658 l 1
 823 1658 l 1
 823 1487 l 1
 531 1487 l 1
 531 0 l 1
 300 0 l 1
EndSplineSet
EndChar

StartChar: Tbar
Encoding: 306 358 94
Width: 820
VWidth: 0
Flags: W
HStem: 0 21<300 531> 801 131<84 735> 1487 171<-3 300 531 823>
VStem: 300 231<0 1487>
LayerCount: 2
UndoRedoHistory
Layer: 1
Undoes
EndUndoes
Redoes
EndRedoes
EndUndoRedoHistory
Fore
SplineSet
84 801 m 1
 84 932 l 1
 735 932 l 1
 735 801 l 1
 84 801 l 1
EndSplineSet
Refer: 93 84 N 1 0 0 1 0 0 2
Colour: ffff00
EndChar

StartChar: Thorn
Encoding: 222 222 97
Width: 1031
VWidth: 0
Flags: W
HStem: 0 21G<130 361> 478 186<361 677.503> 1250 191<361 684.978> 1638 20G<130 361>
VStem: 130 231<0 478 664 1250 1441 1658> 770 225<753.79 1170.55>
LayerCount: 2
UndoRedoHistory
Layer: 1
Undoes
EndUndoes
Redoes
EndRedoes
EndUndoRedoHistory
Fore
SplineSet
130 0 m 1
 130 1658 l 1
 361 1658 l 1
 361 1441 l 1
 600 1441 l 2
 876 1441 995 1252 995 960 c 0
 995 649 858 478 562 478 c 2
 361 478 l 1
 361 0 l 1
 130 0 l 1
361 664 m 1
 504 664 l 2
 686 664 770 729 770 961 c 0
 770 1174 703 1250 531 1250 c 2
 361 1250 l 1
 361 664 l 1
EndSplineSet
Colour: ffff00
EndChar

StartChar: U
Encoding: 85 85 98
Width: 1113
VWidth: 0
Flags: W
HStem: -18 181<422.254 691.081> 1638 20G<115 335 778 998>
VStem: 115 220<270.97 1658> 778 220<270.97 1658>
AnchorPoint: "ogonek" 581 0 basechar 0
LayerCount: 2
UndoRedoHistory
Layer: 1
Undoes
EndUndoes
Redoes
EndRedoes
EndUndoRedoHistory
Fore
SplineSet
557 -18 m 0
 195 -18 115 211 115 559 c 2
 115 1658 l 1
 335 1658 l 1
 335 548 l 2
 335 334 362 163 557 163 c 0
 751 163 778 334 778 548 c 2
 778 1658 l 1
 998 1658 l 1
 998 559 l 2
 998 211 917 -18 557 -18 c 0
EndSplineSet
EndChar

StartChar: V
Encoding: 86 86 109
Width: 1035
VWidth: 0
Flags: W
HStem: 0 21G<413.537 624.427> 1638 20G<48 268.292 771.905 987>
LayerCount: 2
UndoRedoHistory
Layer: 1
Undoes
EndUndoes
Redoes
EndRedoes
EndUndoRedoHistory
Fore
SplineSet
418 0 m 1
 48 1658 l 1
 264 1658 l 1
 526 437 l 1
 776 1658 l 1
 987 1658 l 1
 620 0 l 1
 418 0 l 1
EndSplineSet
EndChar

StartChar: W
Encoding: 87 87 110
Width: 1493
VWidth: 0
Flags: W
HStem: 0 21G<340.731 523.811 981.238 1156.21> 1638 20G<73 269.97 1227.11 1419>
LayerCount: 2
UndoRedoHistory
Layer: 1
Undoes
EndUndoes
Redoes
EndRedoes
EndUndoRedoHistory
Fore
SplineSet
344 0 m 1
 73 1658 l 1
 267 1658 l 1
 444 466 l 1
 668 1653 l 1
 832 1653 l 1
 1057 461 l 1
 1230 1658 l 1
 1419 1658 l 1
 1153 0 l 1
 985 0 l 1
 754 1228 l 1
 520 0 l 1
 344 0 l 1
EndSplineSet
EndChar

StartChar: X
Encoding: 88 88 115
Width: 987
VWidth: 0
Flags: W
HStem: 0 21G<27 248.532 736.378 961> 1638 20G<32 255.615 721.137 944>
LayerCount: 2
UndoRedoHistory
Layer: 1
Undoes
EndUndoes
Redoes
EndRedoes
EndUndoRedoHistory
Fore
SplineSet
27 0 m 1
 372 868 l 1
 32 1658 l 1
 247 1658 l 1
 499 1073 l 1
 729 1658 l 1
 944 1658 l 1
 595 849 l 1
 961 0 l 1
 745 0 l 1
 476 624 l 1
 241 0 l 1
 27 0 l 1
EndSplineSet
EndChar

StartChar: Y
Encoding: 89 89 116
AltUni2: 0004ae.ffffffff.0
Width: 986
VWidth: 0
Flags: W
HStem: 0 21G<383 604> 1638 20G<25 246.333 736.742 961>
VStem: 383 221<0 585>
LayerCount: 2
UndoRedoHistory
Layer: 1
Undoes
EndUndoes
Redoes
EndRedoes
EndUndoRedoHistory
Fore
SplineSet
383 0 m 1
 383 585 l 1
 25 1658 l 1
 240 1658 l 1
 493 859 l 1
 743 1658 l 1
 961 1658 l 1
 604 585 l 1
 604 0 l 1
 383 0 l 1
EndSplineSet
EndChar

StartChar: Z
Encoding: 90 90 121
Width: 853
VWidth: 0
Flags: W
HStem: 0 166<297 812> 1492 166<108 565>
LayerCount: 2
UndoRedoHistory
Layer: 1
Undoes
EndUndoes
Redoes
EndRedoes
EndUndoRedoHistory
Fore
SplineSet
78 0 m 1
 78 166 l 1
 565 1492 l 1
 108 1492 l 1
 108 1658 l 1
 811 1658 l 1
 811 1558 l 1
 297 166 l 1
 812 166 l 1
 812 0 l 1
 78 0 l 1
EndSplineSet
EndChar

StartChar: a
Encoding: 97 97 125
Width: 872
VWidth: 0
Flags: W
HStem: -17 190<254 462.743> 0 21G<588.686 792> 1036 164<343.335 523.638>
VStem: 85 220<193.596 454.135 817 999.5> 553 219<220.278 606 724.617 1011.96>
AnchorPoint: "ogonek" 714 0 basechar 0
LayerCount: 2
UndoRedoHistory
Layer: 1
Undoes
EndUndoes
Redoes
EndRedoes
EndUndoRedoHistory
Fore
SplineSet
323 -17 m 0xb8
 185 -17 85 118 85 258 c 0
 85 552 300 636 553 739 c 1
 553 824 l 2
 553 966 536 1036 434 1036 c 0
 345 1036 310 971 310 868 c 2
 310 809 l 1
 93 817 l 1
 93 831 94 848 95 861 c 0
 108 1103 234 1200 449 1200 c 0
 683 1200 772 1069 772 825 c 2
 772 284 l 2
 772 175 782 75 792 0 c 1
 592 0 l 1x78
 592 0 571 99 563 175 c 1
 534 81 458 -17 323 -17 c 0xb8
410 173 m 0xb8
 474 173 534 240 553 271 c 1
 553 606 l 1
 432 537 305 473 305 325 c 0
 305 229 342 173 410 173 c 0xb8
EndSplineSet
EndChar

StartChar: acute
Encoding: 180 180 129
Width: 568
VWidth: 0
Flags: W
HStem: 1253 405
VStem: 114 340
LayerCount: 2
UndoRedoHistory
Layer: 1
Undoes
EndUndoes
Redoes
EndRedoes
EndUndoRedoHistory
Fore
SplineSet
114 1253 m 1
 235 1658 l 1
 454 1658 l 1
 225 1253 l 1
 114 1253 l 1
EndSplineSet
EndChar

StartChar: acutecomb
Encoding: 326 769 130
Width: 36
VWidth: 0
Flags: W
HStem: 1253 405
VStem: -46 340
LayerCount: 2
UndoRedoHistory
Layer: 1
Undoes
EndUndoes
Redoes
EndRedoes
EndUndoRedoHistory
Fore
SplineSet
-46 1253 m 1
 75 1658 l 1
 294 1658 l 1
 65 1253 l 1
 -46 1253 l 1
EndSplineSet
EndChar

StartChar: ae
Encoding: 230 230 132
Width: 1330
VWidth: 0
Flags: W
HStem: -17 174<823.708 989.807> 543 126<505.99 559> 1032 168<345.231 526.642 823.719 994.379>
VStem: 85 218<181.073 433.995 837 995.408> 559 220<227.791 543 697 986.449> 1024 219<186.057 412 752.096 999.276>
LayerCount: 2
UndoRedoHistory
Layer: 0
Undoes
EndUndoes
Redoes
EndRedoes
EndUndoRedoHistory
UndoRedoHistory
Layer: 1
Undoes
EndUndoes
Redoes
EndRedoes
EndUndoRedoHistory
Fore
SplineSet
321 -17 m 0
 183 -7 85 118 85 258 c 0
 85 473 209 574 400 626 c 2
 559 669 l 1
 559 824 l 2
 559 949 536 1032 435 1032 c 0
 338 1032 306 952 306 837 c 1
 88 837 l 1
 90 1059 216 1200 435 1200 c 0
 551 1200 641 1147 669 1053 c 1
 710 1139 793 1200 908 1200 c 0
 1126 1200 1234 1060 1234 842 c 0
 1234 673 1073 637 923 608 c 1
 779 578 l 1
 779 523 l 2
 779 365 773 157 907 157 c 0
 1001 157 1024 246 1024 361 c 2
 1024 412 l 1
 1243 412 l 1
 1243 362 l 2
 1243 126 1141 -17 906 -17 c 0
 761 -17 661 79 641 224 c 1
 582 79 480 -29 321 -17 c 0
410 154 m 0
 487 154 559 246 559 433 c 2
 559 543 l 1
 533 536 490 521 465 511 c 0
 364 470 303 412 303 306 c 1
 304 210 352 154 410 154 c 0
779 697 m 1
 891 722 l 1
 983 741 1033 762 1033 862 c 0
 1033 949 1001 1022 908 1022 c 0
 810 1022 779 939 779 814 c 2
 779 697 l 1
EndSplineSet
Colour: ffff00
EndChar

StartChar: afii10018
Encoding: 328 1041 134
Width: 1012
VWidth: 0
Flags: W
HStem: 0 166<361 631.279> 801 167<361 621.151> 1491 167<361 841>
VStem: 130 231<166 801 968 1491> 726 219<263.201 697.491>
LayerCount: 2
UndoRedoHistory
Layer: 1
Undoes
EndUndoes
Redoes
EndRedoes
EndUndoRedoHistory
Fore
SplineSet
130 0 m 1
 130 1658 l 1
 841 1658 l 1
 841 1491 l 1
 361 1491 l 1
 361 968 l 1
 412 968 l 2
 771 968 945 866 945 486 c 0
 945 144 782 0 424 0 c 2
 130 0 l 1
361 166 m 1
 425 166 l 2
 630 166 726 216 726 488 c 0
 726 713 653 801 420 801 c 2
 361 801 l 1
 361 166 l 1
EndSplineSet
EndChar

StartChar: afii10019
Encoding: 329 1042 135
Width: 1073
VWidth: 0
Flags: W
HStem: 0 166<361 686.439> 790 176<361 670.02> 1487 171<361 681.374>
VStem: 130 231<166 790 966 1487> 751 202<1046.32 1419.28> 777 220<255.847 681.831>
LayerCount: 2
UndoRedoHistory
Layer: 1
Undoes
EndUndoes
Redoes
EndRedoes
EndUndoRedoHistory
Fore
SplineSet
130 0 m 1xf4
 130 1658 l 1
 509 1658 l 2
 809 1658 953 1528 953 1243 c 0xf8
 953 1039 876 915 715 893 c 1
 913 845 997 708 997 474 c 0
 997 187 868 0 571 0 c 2
 130 0 l 1xf4
361 166 m 1
 517 166 l 2
 723 166 777 259 777 474 c 0xf4
 777 680 701 790 498 790 c 2
 361 790 l 1
 361 166 l 1
361 966 m 1
 497 966 l 2
 692 966 751 1047 751 1243 c 0xf8
 751 1471 651 1487 415 1487 c 2
 361 1487 l 1
 361 966 l 1
EndSplineSet
EndChar

StartChar: afii10020
Encoding: 330 1043 136
Width: 791
VWidth: 0
Flags: W
HStem: 0 21G<130 361> 1487 171<361 759>
VStem: 130 231<0 1487>
LayerCount: 2
UndoRedoHistory
Layer: 1
Undoes
EndUndoes
Redoes
EndRedoes
EndUndoRedoHistory
Fore
SplineSet
130 0 m 1
 130 1658 l 1
 759 1658 l 1
 759 1487 l 1
 361 1487 l 1
 361 0 l 1
 130 0 l 1
EndSplineSet
EndChar

StartChar: afii10021
Encoding: 331 1044 137
Width: 1284
VWidth: 0
Flags: W
HStem: -302 468<22 141.248 1080 1240> 0 166<313 849> 1487 171<581 849>
VStem: 22 179<-302 -61.4738> 359 207<690.171 1448.99> 849 231<166 1487> 1061 179<-302 -74.1331>
LayerCount: 2
UndoRedoHistory
Layer: 1
Undoes
EndUndoes
Redoes
EndRedoes
EndUndoRedoHistory
Fore
SplineSet
22 -302 m 1xba
 22 166 l 1
 98 166 l 1
 215 264 321 407 359 1168 c 2
 384 1658 l 1
 1080 1658 l 1
 1080 166 l 1xbc
 1240 166 l 1
 1240 -302 l 1
 1061 -302 l 1xba
 1042 0 l 1
 219 0 l 1x7a
 201 -302 l 1
 22 -302 l 1xba
313 166 m 1x7c
 849 166 l 1
 849 1487 l 1
 581 1487 l 1
 566 1113 l 2
 536 372 433 279 313 166 c 1x7c
EndSplineSet
EndChar

StartChar: afii10024
Encoding: 334 1046 140
Width: 1385
VWidth: 0
Flags: W
HStem: 0 21G<8 242.313 594 791 1142.69 1378> 830 29<581 594 791 804> 1638 20G<47 277.785 594 791 1107.22 1339>
VStem: 594 197<0 830 859 1658>
LayerCount: 2
UndoRedoHistory
Layer: 1
Undoes
EndUndoes
Redoes
EndRedoes
EndUndoRedoHistory
Fore
SplineSet
8 0 m 1
 394 848 l 1
 47 1658 l 1
 270 1658 l 1
 581 859 l 1
 594 859 l 1
 594 1658 l 1
 791 1658 l 1
 791 859 l 1
 804 859 l 1
 1115 1658 l 1
 1339 1658 l 1
 991 848 l 1
 1378 0 l 1
 1151 0 l 1
 806 830 l 1
 791 830 l 1
 791 0 l 1
 594 0 l 1
 594 830 l 1
 579 830 l 1
 234 0 l 1
 8 0 l 1
EndSplineSet
EndChar

StartChar: afii10025
Encoding: 335 1047 141
Width: 984
VWidth: 0
Flags: W
HStem: -18 181<370.51 616.838> 780 177<345 558.895> 1195 21G<51 270> 1495 179<352.509 613.907>
VStem: 51 219<1195 1407.33> 85 220<229.641 463> 681 220<233.368 659.968 1062.07 1425.04>
LayerCount: 2
UndoRedoHistory
Layer: 1
Undoes
EndUndoes
Redoes
EndRedoes
EndUndoRedoHistory
Fore
SplineSet
491 -18 m 0xfa
 221 -18 85 143 85 408 c 2
 85 463 l 1
 304 463 l 1
 304 444 304 422 305 405 c 0xf6
 310 264 347 163 491 163 c 0
 650 163 681 284 681 467 c 0
 681 639 620 763 407 779 c 0
 392 780 363 780 345 780 c 1
 345 957 l 1
 361 957 389 957 403 958 c 0
 615 970 681 1070 681 1245 c 0
 681 1395 630 1495 482 1495 c 0
 336 1495 280 1394 271 1247 c 0
 270 1231 270 1212 270 1195 c 1
 51 1195 l 1
 51 1250 l 2
 51 1513 202 1674 474 1674 c 0
 745 1674 901 1510 901 1245 c 0
 901 1044 806 918 664 876 c 1
 812 828 901 692 901 467 c 0
 901 173 786 -18 491 -18 c 0xfa
EndSplineSet
EndChar

StartChar: afii10026
Encoding: 336 1048 142
Width: 1116
VWidth: 0
Flags: W
HStem: 0 21G<130 309.253 783 986> 1638 20G<130 333 810.533 986>
VStem: 130 203<510 1658> 783 203<0 1168>
LayerCount: 2
UndoRedoHistory
Layer: 1
Undoes
EndUndoes
Redoes
EndRedoes
EndUndoRedoHistory
Fore
SplineSet
130 0 m 1
 130 1658 l 1
 333 1658 l 1
 333 510 l 1
 819 1658 l 1
 986 1658 l 1
 986 0 l 1
 783 0 l 1
 783 1168 l 1
 301 0 l 1
 130 0 l 1
EndSplineSet
EndChar

StartChar: afii10028
Encoding: 338 1050 144
Width: 1040
VWidth: 0
Flags: W
HStem: 0 21G<130 361 775.693 1016> 809 113<361 447> 1638 20G<130 361 734.957 975>
VStem: 130 231<0 809 922 1658>
LayerCount: 2
UndoRedoHistory
Layer: 1
Undoes
EndUndoes
Redoes
EndRedoes
EndUndoRedoHistory
Fore
SplineSet
130 0 m 1
 130 1658 l 1
 361 1658 l 1
 361 922 l 1
 447 922 l 1
 743 1658 l 1
 975 1658 l 1
 648 870 l 1
 1016 0 l 1
 784 0 l 1
 448 809 l 1
 361 809 l 1
 361 0 l 1
 130 0 l 1
EndSplineSet
EndChar

StartChar: afii10029
Encoding: 339 1051 145
Width: 1189
VWidth: 0
Flags: W
HStem: -1 173<4 146.839> 1487 171<529 828>
VStem: 828 231<0 1487>
LayerCount: 2
UndoRedoHistory
Layer: 1
Undoes
EndUndoes
Redoes
EndRedoes
EndUndoRedoHistory
Fore
SplineSet
4 -1 m 1
 4 172 l 1
 157 168 236 200 274 776 c 1
 329 1658 l 1
 1059 1658 l 1
 1059 0 l 1
 828 0 l 1
 828 1487 l 1
 529 1487 l 1
 489 776 l 1
 457 244 384 -28 4 -1 c 1
EndSplineSet
EndChar

StartChar: afii10030
Encoding: 340 1052 146
Width: 1352
VWidth: 0
Flags: W
HStem: 0 21G<125 309.215 605.803 746.21 1043.79 1227> 1638 20G<155.626 368.867 983.102 1196.37>
VStem: 125 184<0 766.745> 156 165<891.255 1116> 1032 164<891.255 1117> 1044 183<0 766.745>
LayerCount: 2
UndoRedoHistory
Layer: 1
Undoes
EndUndoes
Redoes
EndRedoes
EndUndoRedoHistory
Fore
SplineSet
125 0 m 1xe0
 156 1658 l 1
 364 1658 l 1
 675 380 l 1
 988 1658 l 1
 1196 1658 l 1xd8
 1227 0 l 1
 1044 0 l 1xc4
 1032 1117 l 1
 741 0 l 1
 611 0 l 1
 321 1116 l 1xd8
 309 0 l 1
 125 0 l 1xe0
EndSplineSet
EndChar

StartChar: afii10033
Encoding: 343 1055 149
Width: 1171
VWidth: 0
Flags: W
HStem: 0 21G<130 361 810 1042> 1493 165<361 810>
VStem: 130 231<0 1493> 810 232<0 1493>
LayerCount: 2
UndoRedoHistory
Layer: 1
Undoes
EndUndoes
Redoes
EndRedoes
EndUndoRedoHistory
Fore
SplineSet
130 0 m 1
 130 1658 l 1
 1042 1658 l 1
 1042 0 l 1
 810 0 l 1
 810 1493 l 1
 361 1493 l 1
 361 0 l 1
 130 0 l 1
EndSplineSet
EndChar

StartChar: afii10034
Encoding: 344 1056 150
Width: 981
VWidth: 0
Flags: W
HStem: 0 21G<130 361> 772 166<361 659.271> 1492 166<361 667.013>
VStem: 130 231<0 772 938 1492> 732 219<1009.64 1429>
LayerCount: 2
UndoRedoHistory
Layer: 1
Undoes
EndUndoes
Redoes
EndRedoes
EndUndoRedoHistory
Fore
SplineSet
130 0 m 1
 130 1658 l 1
 541 1658 l 2
 838 1658 951 1489 951 1200 c 0
 951 936 813 772 542 772 c 2
 361 772 l 1
 361 0 l 1
 130 0 l 1
361 938 m 1
 466 938 l 2
 666 938 732 993 732 1199 c 0
 732 1434 701 1492 469 1492 c 2
 361 1492 l 1
 361 938 l 1
EndSplineSet
EndChar

StartChar: afii10037
Encoding: 347 1059 153
Width: 925
VWidth: 0
Flags: W
HStem: -251 178<109 356> 1638 20G<39 261.966 676.474 902>
LayerCount: 2
UndoRedoHistory
Layer: 1
Undoes
EndUndoes
Redoes
EndRedoes
EndUndoRedoHistory
Fore
SplineSet
109 -251 m 1
 109 -73 l 1
 392 -102 399 -20 366 185 c 1
 39 1658 l 1
 258 1658 l 1
 398 952 l 1
 482 427 l 1
 555 949 l 1
 680 1658 l 1
 902 1658 l 1
 605 181 l 2
 538 -156 567 -278 109 -251 c 1
EndSplineSet
EndChar

StartChar: afii10038
Encoding: 348 1060 154
Width: 1356
VWidth: 0
Flags: W
HStem: 204 137<358.359 559 790 997.105> 1351 138<360.876 559 790 997.105>
VStem: 99 211<384.615 1303.2> 559 231<-73 204 342 1350 1489 1808> 1046 211<384.805 1304.28>
LayerCount: 2
UndoRedoHistory
Layer: 1
Undoes
EndUndoes
Redoes
EndRedoes
EndUndoRedoHistory
Fore
SplineSet
559 -73 m 1
 559 204 l 1
 555 204 490 202 487 202 c 0
 237 180 99 304 99 637 c 2
 99 1051 l 2
 99 1384 238 1504 491 1490 c 0
 492 1490 556 1489 559 1489 c 1
 559 1808 l 1
 790 1808 l 1
 790 1489 l 1
 793 1489 865 1490 868 1490 c 0
 1119 1505 1257 1386 1257 1051 c 2
 1257 637 l 2
 1257 306 1119 179 868 202 c 0
 865 202 794 204 790 204 c 1
 790 -73 l 1
 559 -73 l 1
524 341 m 0
 526 341 555 342 559 342 c 1
 559 1350 l 1
 555 1350 527 1351 525 1351 c 0
 332 1362 310 1287 310 1051 c 2
 310 637 l 2
 310 402 332 330 524 341 c 0
832 341 m 0
 1024 330 1046 402 1046 637 c 2
 1046 1051 l 2
 1046 1287 1024 1362 831 1351 c 0
 829 1351 793 1350 790 1350 c 1
 790 342 l 1
 794 342 830 341 832 341 c 0
EndSplineSet
EndChar

StartChar: afii10040
Encoding: 350 1062 156
Width: 1273
VWidth: 0
Flags: W
HStem: 0 165<361 832> 1638 20G<130 361 832 1063>
VStem: 130 231<165 1658> 832 231<165 1658> 1042 179<-302 -74.1331>
LayerCount: 2
UndoRedoHistory
Layer: 1
Undoes
EndUndoes
Redoes
EndRedoes
EndUndoRedoHistory
Fore
SplineSet
1042 -302 m 1xe8
 1023 0 l 1
 130 0 l 1
 130 1658 l 1
 361 1658 l 1
 361 165 l 1
 832 165 l 1
 832 1658 l 1
 1063 1658 l 1
 1063 165 l 1xf0
 1221 165 l 1
 1221 -302 l 1
 1042 -302 l 1xe8
EndSplineSet
EndChar

StartChar: afii10041
Encoding: 351 1063 157
Width: 1101
VWidth: 0
Flags: W
HStem: 0 21G<740 972> 735 151<379.479 736.116> 1638 20G<100 309 740 972>
VStem: 100 209<959.718 1658> 740 232<0 765 902.133 1658>
LayerCount: 2
UndoRedoHistory
Layer: 1
Undoes
EndUndoes
Redoes
EndRedoes
EndUndoRedoHistory
Fore
SplineSet
740 0 m 1
 740 765 l 1
 649 745 568 735 496 735 c 0
 235 735 100 861 100 1120 c 2
 100 1658 l 1
 309 1658 l 1
 309 1121 l 2
 309 962 371 886 541 886 c 0
 598 886 665 895 740 911 c 1
 740 1658 l 1
 972 1658 l 1
 972 0 l 1
 740 0 l 1
EndSplineSet
EndChar

StartChar: afii10042
Encoding: 352 1064 158
Width: 1536
VWidth: 0
Flags: W
HStem: 0 167<361 660 891 1175> 1638 20G<130 361 660 891 1175 1407>
VStem: 130 231<167 1658> 660 231<167 1658> 1175 232<167 1658>
LayerCount: 2
UndoRedoHistory
Layer: 1
Undoes
EndUndoes
Redoes
EndRedoes
EndUndoRedoHistory
Fore
SplineSet
130 0 m 1
 130 1658 l 1
 361 1658 l 1
 361 167 l 1
 660 167 l 1
 660 1658 l 1
 891 1658 l 1
 891 167 l 1
 1175 167 l 1
 1175 1658 l 1
 1407 1658 l 1
 1407 0 l 1
 130 0 l 1
EndSplineSet
EndChar

StartChar: afii10043
Encoding: 353 1065 159
Width: 1618
VWidth: 0
Flags: W
HStem: 0 165<361 660 891 1176> 1638 20G<130 361 660 891 1176 1408>
VStem: 130 231<165 1658> 660 231<165 1658> 1176 232<165 1658> 1387 179<-302 -74.1331>
LayerCount: 2
UndoRedoHistory
Layer: 1
Undoes
EndUndoes
Redoes
EndRedoes
EndUndoRedoHistory
Fore
SplineSet
1387 -302 m 1xf4
 1368 0 l 1
 130 0 l 1
 130 1658 l 1
 361 1658 l 1
 361 165 l 1
 660 165 l 1
 660 1658 l 1
 891 1658 l 1
 891 165 l 1
 1176 165 l 1
 1176 1658 l 1
 1408 1658 l 1
 1408 165 l 1xf8
 1566 165 l 1
 1566 -302 l 1
 1387 -302 l 1xf4
EndSplineSet
EndChar

StartChar: afii10044
Encoding: 354 1066 160
Width: 1162
VWidth: 0
Flags: W
HStem: 0 166<510 793.279> 801 167<510 783.151> 1483 175<10 279>
VStem: 279 231<166 801 968 1483> 888 219<263.201 697.491>
LayerCount: 2
UndoRedoHistory
Layer: 1
Undoes
EndUndoes
Redoes
EndRedoes
EndUndoRedoHistory
Fore
SplineSet
279 0 m 1
 279 1483 l 1
 10 1483 l 1
 10 1658 l 1
 510 1658 l 1
 510 968 l 1
 574 968 l 2
 933 968 1107 866 1107 486 c 0
 1107 144 944 0 586 0 c 2
 279 0 l 1
510 166 m 1
 587 166 l 2
 792 166 888 216 888 488 c 0
 888 713 815 801 582 801 c 2
 510 801 l 1
 510 166 l 1
EndSplineSet
EndChar

StartChar: afii10045
Encoding: 355 1067 161
Width: 1490
VWidth: 0
Flags: W
HStem: 0 166<361 643.756> 801 167<361 634.029> 1638 20G<130 361 1129 1360>
VStem: 130 231<166 801 968 1658> 739 218<263.201 697.491> 1129 231<0 1658>
LayerCount: 2
UndoRedoHistory
Layer: 1
Undoes
EndUndoes
Redoes
EndRedoes
EndUndoRedoHistory
Fore
SplineSet
130 0 m 1
 130 1658 l 1
 361 1658 l 1
 361 968 l 1
 425 968 l 2
 784 968 957 866 957 486 c 0
 957 144 794 0 437 0 c 2
 130 0 l 1
361 166 m 1
 437 166 l 2
 643 166 739 216 739 488 c 0
 739 713 665 801 433 801 c 2
 361 801 l 1
 361 166 l 1
1129 0 m 1
 1129 1658 l 1
 1360 1658 l 1
 1360 0 l 1
 1129 0 l 1
EndSplineSet
EndChar

StartChar: afii10046
Encoding: 356 1068 162
Width: 1012
VWidth: 0
Flags: W
HStem: 0 166<361 643.756> 801 167<361 634.029> 1638 20G<130 361>
VStem: 130 231<166 801 968 1658> 739 218<263.201 697.491>
LayerCount: 2
UndoRedoHistory
Layer: 1
Undoes
EndUndoes
Redoes
EndRedoes
EndUndoRedoHistory
Fore
SplineSet
130 0 m 1
 130 1658 l 1
 361 1658 l 1
 361 968 l 1
 425 968 l 2
 784 968 957 866 957 486 c 0
 957 144 794 0 437 0 c 2
 130 0 l 1
361 166 m 1
 437 166 l 2
 643 166 739 216 739 488 c 0
 739 713 665 801 433 801 c 2
 361 801 l 1
 361 166 l 1
EndSplineSet
EndChar

StartChar: afii10047
Encoding: 357 1069 163
Width: 1063
VWidth: 0
Flags: W
HStem: 5 180<377.043 655.815> 790 152<440 731> 1516 181<381.948 656.205>
VStem: 101 219<249.187 564 1115 1449.86> 731 233<262.724 790 942 1434.97>
LayerCount: 2
UndoRedoHistory
Layer: 1
Undoes
EndUndoes
Redoes
EndRedoes
EndUndoRedoHistory
Fore
SplineSet
520 5 m 0
 208 5 101 183 101 482 c 2
 101 564 l 1
 320 564 l 1
 320 498 l 2
 320 315 323 185 518 185 c 0
 713 185 731 321 731 528 c 2
 731 790 l 1
 440 790 l 1
 440 942 l 1
 731 942 l 1
 731 1184 l 2
 731 1433 676 1516 518 1516 c 0
 331 1516 320 1382 320 1186 c 2
 320 1115 l 1
 101 1115 l 1
 101 1187 l 2
 101 1490 192 1697 520 1697 c 0
 872 1697 964 1457 964 1147 c 2
 964 561 l 2
 964 224 871 5 520 5 c 0
EndSplineSet
EndChar

StartChar: afii10048
Encoding: 358 1070 164
Width: 1473
VWidth: 0
Flags: W
HStem: -18 181<816.218 1091.23> 0 21G<130 346> 760 175<346 534> 1494 180<816.606 1091.06> 1638 20G<130 346>
VStem: 130 216<0 760 935 1658> 534 208<242.166 760 935 1411.62> 1166 208<242.672 1418.76>
LayerCount: 2
UndoRedoHistory
Layer: 1
Undoes
EndUndoes
Redoes
EndRedoes
EndUndoRedoHistory
Fore
SplineSet
954 -18 m 0xb7
 634 -18 534 195 534 525 c 2
 534 760 l 1
 346 760 l 1
 346 0 l 1
 130 0 l 1
 130 1658 l 1
 346 1658 l 1x6f
 346 935 l 1
 534 935 l 1
 534 1142 l 2
 534 1472 635 1674 954 1674 c 0
 1271 1674 1374 1468 1374 1142 c 2
 1374 525 l 2
 1374 198 1272 -18 954 -18 c 0xb7
954 163 m 0xb7
 1131 163 1166 285 1166 470 c 2
 1166 1196 l 2
 1166 1380 1131 1494 954 1494 c 0
 777 1494 742 1380 742 1196 c 2
 742 470 l 2
 742 285 776 163 954 163 c 0xb7
EndSplineSet
EndChar

StartChar: afii10049
Encoding: 359 1071 165
Width: 1117
VWidth: 0
Flags: W
HStem: 0 21G<26 292.348 756 988> 689 166<572 756> 1492 166<461.202 756>
VStem: 132 219<980.016 1384.46> 756 232<0 689 855 1492>
LayerCount: 2
UndoRedoHistory
Layer: 1
Undoes
EndUndoes
Redoes
EndRedoes
EndUndoRedoHistory
Fore
SplineSet
26 0 m 1
 374 746 l 1
 228 811 132 963 132 1201 c 0
 132 1467 264 1658 652 1658 c 2
 988 1658 l 1
 988 0 l 1
 756 0 l 1
 756 689 l 1
 624 689 l 2
 619 689 578 690 572 690 c 1
 284 0 l 1
 26 0 l 1
670 855 m 2
 756 855 l 1
 756 1492 l 1
 664 1492 l 2
 455 1492 351 1408 351 1202 c 0
 351 967 435 855 670 855 c 2
EndSplineSet
EndChar

StartChar: afii10051
Encoding: 360 1026 166
Width: 1120
VWidth: 0
Flags: W
HStem: 0 166<612 746.506> 813 156<520.559 756.198> 1487 171<21 259 485 750>
VStem: 259 226<0 789.375 899 1487> 812 219<238.781 752.551>
LayerCount: 2
UndoRedoHistory
Layer: 1
Undoes
EndUndoes
Redoes
EndRedoes
EndUndoRedoHistory
Fore
SplineSet
612 0 m 1
 612 166 l 1
 783 166 812 294 812 437 c 2
 812 628 l 2
 812 723 758 813 642 813 c 0
 597 813 544 800 485 770 c 1
 485 0 l 1
 259 0 l 1
 259 1487 l 1
 21 1487 l 1
 21 1658 l 1
 750 1658 l 1
 750 1487 l 1
 485 1487 l 1
 485 899 l 1
 534 943 611 969 692 969 c 0
 854 969 1031 870 1031 634 c 2
 1031 437 l 2
 1031 129 894 0 650 0 c 2
 612 0 l 1
EndSplineSet
EndChar

StartChar: afii10053
Encoding: 362 1028 168
Width: 1031
VWidth: 0
Flags: W
HStem: -18 181<407.381 681.716> 780 161<332 742> 1494 180<407.81 686.382>
VStem: 99 233<244.759 780 941 1416.37> 743 219<229.216 561 1137 1429.81>
LayerCount: 2
UndoRedoHistory
Layer: 1
Undoes
EndUndoes
Redoes
EndRedoes
EndUndoRedoHistory
Fore
SplineSet
544 -18 m 0
 192 -18 99 223 99 533 c 2
 99 1119 l 2
 99 1455 193 1674 544 1674 c 0
 855 1674 962 1496 962 1197 c 2
 962 1137 l 1
 743 1137 l 1
 743 1182 l 2
 743 1365 740 1494 546 1494 c 0
 350 1494 332 1358 332 1152 c 2
 332 941 l 1
 742 941 l 1
 742 780 l 1
 332 780 l 1
 332 496 l 2
 332 246 387 163 546 163 c 0
 733 163 743 297 743 494 c 2
 743 561 l 1
 962 561 l 1
 962 493 l 2
 962 189 871 -18 544 -18 c 0
EndSplineSet
EndChar

StartChar: afii10055
Encoding: 364 1030 170
Width: 507
VWidth: 0
Flags: W
HStem: 0 21G<141 368> 1638 20G<141 368>
VStem: 141 227<0 1658>
LayerCount: 2
UndoRedoHistory
Layer: 1
Undoes
EndUndoes
Redoes
EndRedoes
EndUndoRedoHistory
Fore
SplineSet
141 0 m 1
 141 1658 l 1
 368 1658 l 1
 368 0 l 1
 141 0 l 1
EndSplineSet
EndChar

StartChar: afii10057
Encoding: 366 1032 172
Width: 617
VWidth: 0
Flags: W
HStem: -39 166<14 199.218> 1638 20G<255 486>
VStem: 255 231<180.439 1658>
LayerCount: 2
UndoRedoHistory
Layer: 1
Undoes
EndUndoes
Redoes
EndRedoes
EndUndoRedoHistory
Fore
SplineSet
14 -39 m 1
 14 127 l 1
 215 127 255 170 255 378 c 2
 255 1658 l 1
 486 1658 l 1
 486 374 l 1
 485 91 411 -39 124 -39 c 2
 14 -39 l 1
EndSplineSet
EndChar

StartChar: afii10058
Encoding: 367 1033 173
Width: 1713
VWidth: 0
Flags: W
HStem: 0 166<28 165.103 1081 1331.76> 801 167<1081 1322.03> 1487 171<552 850>
VStem: 850 231<166 801 968 1487> 1427 218<263.201 697.491>
LayerCount: 2
UndoRedoHistory
Layer: 1
Undoes
EndUndoes
Redoes
EndRedoes
EndUndoRedoHistory
Fore
SplineSet
28 -1 m 1
 28 172 l 1
 199 159 266 273 296 731 c 1
 349 1658 l 1
 1081 1658 l 1
 1081 968 l 1
 1113 968 l 2
 1472 968 1645 866 1645 486 c 0
 1645 144 1482 0 1125 0 c 2
 850 0 l 1
 850 1487 l 1
 552 1487 l 1
 508 731 l 2
 479 225 378 -13 74 -3 c 1
 28 -1 l 1
1081 166 m 1
 1125 166 l 2
 1331 166 1427 216 1427 488 c 0
 1427 713 1353 801 1121 801 c 2
 1081 801 l 1
 1081 166 l 1
EndSplineSet
EndChar

StartChar: afii10059
Encoding: 368 1034 174
Width: 1601
VWidth: 0
Flags: W
HStem: 0 166<980 1231.76> 800 167<361 748 980 1222.03> 1640 20G<130 361 748 980>
VStem: 130 231<0 800 967 1660> 748 232<166 800 968 1660> 1327 218<263.201 697.491>
LayerCount: 2
UndoRedoHistory
Layer: 1
Undoes
EndUndoes
Redoes
EndRedoes
EndUndoRedoHistory
Fore
SplineSet
1025 0 m 2
 748 0 l 1
 748 800 l 1
 361 800 l 1
 361 0 l 1
 130 0 l 1
 130 1660 l 1
 361 1660 l 1
 361 967 l 1
 748 967 l 1
 748 1660 l 1
 980 1660 l 1
 980 968 l 1
 1013 968 l 2
 1372 968 1545 866 1545 486 c 0
 1545 144 1382 0 1025 0 c 2
980 166 m 1
 1025 166 l 2
 1231 166 1327 216 1327 488 c 0
 1327 713 1253 801 1021 801 c 2
 980 801 l 1
 980 166 l 1
EndSplineSet
EndChar

StartChar: afii10060
Encoding: 369 1035 175
Width: 1023
VWidth: 0
Flags: W
HStem: 0 21G<231 457 702 921> 825 139<489.536 691.515> 1487 171<-10 231 457 725>
VStem: 231 226<0 797.703 899 1487> 702 219<0 811.545>
LayerCount: 2
UndoRedoHistory
Layer: 1
Undoes
EndUndoes
Redoes
EndRedoes
EndUndoRedoHistory
Fore
SplineSet
231 0 m 1
 231 1487 l 1
 -10 1487 l 1
 -10 1658 l 1
 725 1658 l 1
 725 1487 l 1
 457 1487 l 1
 457 899 l 1
 463 904 546 964 678 964 c 0
 819 964 921 888 921 769 c 2
 921 0 l 1
 702 0 l 1
 702 718 l 2
 702 785 683 825 606 825 c 0
 530 825 465 777 457 770 c 1
 457 0 l 1
 231 0 l 1
EndSplineSet
EndChar

StartChar: afii10066
Encoding: 373 1073 179
Width: 897
VWidth: 0
Flags: W
HStem: -17 162<366.26 544.903> 935 151<367.069 560.954>
VStem: 107 219<186.887 901.25 1018 1401.31> 588 220<178.087 910.886>
LayerCount: 2
UndoRedoHistory
Layer: 1
Undoes
EndUndoes
Redoes
EndRedoes
EndUndoRedoHistory
Fore
SplineSet
440 -17 m 1
 233 -18 107 122 107 394 c 2
 107 1007 l 2
 107 1737 254 1542 697 1718 c 1
 751 1540 l 1
 419 1391 326 1565 326 1156 c 2
 326 1018 l 1
 385 1056 466 1086 539 1086 c 0
 685 1086 808 982 808 661 c 2
 808 436 l 2
 808 66 655 -17 440 -17 c 1
460 145 m 1
 549 146 588 205 588 369 c 2
 588 728 l 2
 588 877 559 935 484 935 c 0
 442 935 384 915 326 875 c 1
 326 387 l 2
 326 212 361 145 460 145 c 1
EndSplineSet
EndChar

StartChar: afii10067
Encoding: 374 1074 180
Width: 850
VWidth: 0
Flags: W
HStem: 0 165<325 532.664> 549 158<325 536.685> 1023 161<325 534.085>
VStem: 111 214<165 549 707 1023> 569 192<737.022 988.556> 575 215<208.328 515.34>
LayerCount: 2
UndoRedoHistory
Layer: 1
Undoes
EndUndoes
Redoes
EndRedoes
EndUndoRedoHistory
Fore
SplineSet
111 0 m 1xf4
 111 1184 l 1
 442 1184 l 2
 683 1184 758 1049 761 901 c 0xf8
 763 785 733 685 607 646 c 1
 752 617 790 479 790 345 c 0
 790 138 716 0 453 0 c 2
 111 0 l 1xf4
325 165 m 1
 403 165 l 2
 498 165 575 195 575 352 c 0xf4
 575 536 506 549 413 549 c 2
 325 549 l 1
 325 165 l 1
325 707 m 1
 432 707 l 2
 517 707 569 750 569 874 c 0xf8
 569 988 507 1023 410 1023 c 2
 325 1023 l 1
 325 707 l 1
EndSplineSet
EndChar

StartChar: afii10068
Encoding: 375 1075 181
Width: 594
VWidth: 0
Flags: W
HStem: 0 21G<111 330> 1027 157<330 587>
VStem: 111 219<0 1027>
LayerCount: 2
UndoRedoHistory
Layer: 1
Undoes
EndUndoes
Redoes
EndRedoes
EndUndoRedoHistory
Fore
SplineSet
111 0 m 1
 111 1184 l 1
 587 1184 l 1
 587 1027 l 1
 330 1027 l 1
 330 0 l 1
 111 0 l 1
EndSplineSet
EndChar

StartChar: afii10069
Encoding: 376 1076 182
Width: 1016
VWidth: 0
Flags: W
HStem: 0 156<218 621> 1026 158<466 621>
VStem: 4 160<-302 -74.1331> 292 171<569.915 1026> 621 211<156 1026> 816 159<-302 -74.1331>
LayerCount: 2
UndoRedoHistory
Layer: 1
Undoes
EndUndoes
Redoes
EndRedoes
EndUndoRedoHistory
Fore
SplineSet
4 -302 m 1xf4
 4 146 l 1
 165 268 287 471 292 1029 c 1
 296 1184 l 1
 832 1184 l 1
 832 156 l 1xf8
 975 156 l 1
 975 -302 l 1
 816 -302 l 1
 797 0 l 1
 183 0 l 1
 164 -302 l 1
 4 -302 l 1xf4
218 156 m 1
 621 156 l 1
 621 1026 l 1
 466 1026 l 1
 463 983 l 1
 458 406 348 244 218 156 c 1
EndSplineSet
EndChar

StartChar: afii10072
Encoding: 379 1078 185
Width: 1186
VWidth: 0
Flags: W
HStem: 0 21G<8 220.466 503 684 964.602 1178> 581 33<487 503 684 700> 1164 20G<26 243.842 503 684 941.228 1159>
VStem: 503 181<0 581 614 1184>
LayerCount: 2
UndoRedoHistory
Layer: 1
Undoes
EndUndoes
Redoes
EndRedoes
EndUndoRedoHistory
Fore
SplineSet
8 0 m 1
 306 604 l 1
 26 1184 l 1
 235 1184 l 1
 487 614 l 1
 503 614 l 1
 503 1184 l 1
 684 1184 l 1
 684 614 l 1
 700 614 l 1
 950 1184 l 1
 1159 1184 l 1
 881 604 l 1
 1178 0 l 1
 974 0 l 1
 701 581 l 1
 684 581 l 1
 684 0 l 1
 503 0 l 1
 503 581 l 1
 486 581 l 1
 211 0 l 1
 8 0 l 1
EndSplineSet
EndChar

StartChar: afii10073
Encoding: 380 1079 186
Width: 767
VWidth: 0
Flags: W
HStem: -20 155<303.393 481.127> 533 155<271 461.375> 1039 161<281.268 476.252>
VStem: 59 187<844 1002.72> 74 187<175.826 363> 510 192<160.1 495.703 738.43 1006.62>
LayerCount: 2
UndoRedoHistory
Layer: 1
Undoes
EndUndoes
Redoes
EndRedoes
EndUndoRedoHistory
Fore
SplineSet
390 -20 m 0xf4
 172 -20 74 101 74 363 c 1
 261 363 l 1xec
 261 201 308 136 393 135 c 1
 501 135 510 229 510 354 c 0
 509 507 455 533 271 533 c 1
 271 688 l 1
 461 688 509 741 510 872 c 0
 511 989 454 1039 381 1039 c 0
 299 1039 246 1000 246 844 c 1
 59 844 l 1
 59 1109 187 1200 390 1200 c 0
 609 1200 702 1044 701 884 c 0
 700 680 587 622 501 615 c 1
 590 595 702 569 702 323 c 1
 703 101 600 -20 390 -20 c 0xf4
EndSplineSet
EndChar

StartChar: afii10074
Encoding: 381 1080 187
Width: 935
VWidth: 0
Flags: W
HStem: 0 21G<111 296.842 643 824> 1164 20G<111 295 643.03 824>
VStem: 111 184<388 1184> 643 181<0 803>
LayerCount: 2
UndoRedoHistory
Layer: 1
Undoes
EndUndoes
Redoes
EndRedoes
EndUndoRedoHistory
Fore
SplineSet
111 0 m 1
 111 1184 l 1
 295 1184 l 1
 295 388 l 1
 652 1184 l 1
 824 1184 l 1
 824 0 l 1
 643 0 l 1
 643 803 l 1
 288 0 l 1
 111 0 l 1
EndSplineSet
EndChar

StartChar: afii10076
Encoding: 383 1082 189
Width: 849
VWidth: 0
Flags: W
HStem: 0 21G<111 330 605.935 843> 553 132<330 391> 1164 20G<111 330 605.102 840>
VStem: 111 219<0 553 685 1184>
LayerCount: 2
UndoRedoHistory
Layer: 1
Undoes
EndUndoes
Redoes
EndRedoes
EndUndoRedoHistory
Fore
SplineSet
111 0 m 1
 111 1184 l 1
 330 1184 l 1
 330 685 l 1
 392 685 l 1
 614 1184 l 1
 840 1184 l 1
 591 611 l 1
 843 0 l 1
 614 0 l 1
 391 553 l 1
 330 553 l 1
 330 0 l 1
 111 0 l 1
EndSplineSet
EndChar

StartChar: afii10077
Encoding: 384 1083 190
Width: 993
VWidth: 0
Flags: W
HStem: -10 165<35 146.192> 1017 167<454 663>
VStem: 663 219<0 1017>
LayerCount: 2
UndoRedoHistory
Layer: 1
Undoes
EndUndoes
Redoes
EndRedoes
EndUndoRedoHistory
Fore
SplineSet
35 -10 m 1
 35 155 l 1
 199 156 214 270 236 669 c 1
 263 1184 l 1
 882 1184 l 1
 882 0 l 1
 663 0 l 1
 663 1017 l 1
 454 1017 l 1
 436 669 l 1
 410 126 349 -10 59 -10 c 2
 35 -10 l 1
EndSplineSet
EndChar

StartChar: afii10078
Encoding: 385 1084 191
Width: 1083
VWidth: 0
Flags: W
HStem: 0 21G<104 288 795 979> 1164 20G<116.78 285.235 797.737 966.22>
VStem: 104 184<0 703> 795 184<0 706>
LayerCount: 2
UndoRedoHistory
Layer: 1
Undoes
EndUndoes
Redoes
EndRedoes
EndUndoRedoHistory
Fore
SplineSet
104 0 m 1
 117 1184 l 1
 278 1184 l 1
 541 457 l 1
 805 1184 l 1
 966 1184 l 1
 979 0 l 1
 795 0 l 1
 795 706 l 1
 575 116 l 1
 508 116 l 1
 288 703 l 1
 288 0 l 1
 104 0 l 1
EndSplineSet
EndChar

StartChar: afii10079
Encoding: 386 1085 192
Width: 940
VWidth: 0
Flags: W
HStem: 0 21G<111 330 610 829> 526 161<330 610> 1164 20G<111 330 610 829>
VStem: 111 219<0 526 687 1184> 610 219<0 526 687 1184>
LayerCount: 2
UndoRedoHistory
Layer: 1
Undoes
EndUndoes
Redoes
EndRedoes
EndUndoRedoHistory
Fore
SplineSet
111 0 m 1
 111 1184 l 1
 330 1184 l 1
 330 687 l 1
 610 687 l 1
 610 1184 l 1
 829 1184 l 1
 829 0 l 1
 610 0 l 1
 610 526 l 1
 330 526 l 1
 330 0 l 1
 111 0 l 1
EndSplineSet
EndChar

StartChar: afii10081
Encoding: 388 1087 194
Width: 909
VWidth: 0
Flags: W
HStem: 0 21G<111 330 579 798> 1017 167<330 579>
VStem: 111 219<0 1017> 579 219<0 1017>
LayerCount: 2
UndoRedoHistory
Layer: 1
Undoes
EndUndoes
Redoes
EndRedoes
EndUndoRedoHistory
Fore
SplineSet
111 0 m 1
 111 1184 l 1
 798 1184 l 1
 798 0 l 1
 579 0 l 1
 579 1017 l 1
 330 1017 l 1
 330 0 l 1
 111 0 l 1
EndSplineSet
EndChar

StartChar: afii10084
Encoding: 391 1090 197
Width: 708
VWidth: 0
Flags: W
HStem: 0 21G<243 462> 1020 164<22 243 462 687>
VStem: 243 219<0 1020>
LayerCount: 2
UndoRedoHistory
Layer: 1
Undoes
EndUndoes
Redoes
EndRedoes
EndUndoRedoHistory
Fore
SplineSet
243 0 m 1
 243 1020 l 1
 22 1020 l 1
 22 1184 l 1
 687 1184 l 1
 687 1020 l 1
 462 1020 l 1
 462 0 l 1
 243 0 l 1
EndSplineSet
EndChar

StartChar: afii10085
Encoding: 392 1091 198
Width: 812
VWidth: 0
Flags: W
HStem: -302 181<100 265.585> 1164 20G<32 239.766 555.856 773>
LayerCount: 2
UndoRedoHistory
Layer: 1
Undoes
EndUndoes
Redoes
EndRedoes
EndUndoRedoHistory
Fore
SplineSet
100 -302 m 1
 100 -121 l 1
 269 -119 318 -80 278 98 c 2
 32 1184 l 1
 236 1184 l 1
 352 568 l 1
 413 195 l 1
 462 567 l 1
 559 1184 l 1
 773 1184 l 1
 516 -3 l 1
 462 -260 317 -300 100 -302 c 1
EndSplineSet
EndChar

StartChar: afii10086
Encoding: 393 1092 199
Width: 1241
VWidth: 0
Flags: W
HStem: -390 21G<518 720> 66 155<360.272 518 720 878.263> 1019 144<354.388 518 720 882.349> 1638 20G<518 720>
VStem: 89 197<300.141 948.481> 518 202<-390 66 221 1019 1163 1658> 955 197<308.844 948.481>
LayerCount: 2
UndoRedoHistory
Layer: 1
Undoes
EndUndoes
Redoes
EndRedoes
EndUndoRedoHistory
Fore
SplineSet
518 -390 m 1
 518 66 l 1
 498 66 l 2
 320 66 89 133 89 519 c 2
 89 732 l 2
 89 1038 273 1163 491 1163 c 2
 518 1163 l 1
 518 1658 l 1
 720 1658 l 1
 720 1163 l 1
 756 1163 l 2
 973 1163 1152 1038 1152 732 c 2
 1152 519 l 2
 1152 133 928 66 749 66 c 2
 720 66 l 1
 720 -390 l 1
 518 -390 l 1
504 221 m 2
 518 221 l 1
 518 1019 l 1
 498 1019 l 2
 370 1019 286 970 286 764 c 2
 286 521 l 2
 286 283 362 221 504 221 c 2
733 221 m 2
 875 221 955 283 955 521 c 2
 955 764 l 2
 955 970 868 1019 739 1019 c 2
 720 1019 l 1
 720 221 l 1
 733 221 l 2
EndSplineSet
EndChar

StartChar: afii10088
Encoding: 395 1094 201
Width: 994
VWidth: 0
Flags: W
HStem: 0 156<330 615> 1164 20G<111 330 615 833>
VStem: 111 219<156 1184> 615 218<156 1184> 817 159<-302 -61.4738>
LayerCount: 2
UndoRedoHistory
Layer: 1
Undoes
EndUndoes
Redoes
EndRedoes
EndUndoRedoHistory
Fore
SplineSet
817 -302 m 1xe8
 799 0 l 1
 111 0 l 1
 111 1184 l 1
 330 1184 l 1
 330 156 l 1
 615 156 l 1
 615 1184 l 1
 833 1184 l 1
 833 156 l 1xf0
 976 156 l 1
 976 -302 l 1
 817 -302 l 1xe8
EndSplineSet
EndChar

StartChar: afii10089
Encoding: 396 1095 202
Width: 886
VWidth: 0
Flags: W
HStem: 0 21G<556 775> 457 156<321.846 556> 1164 20G<76 295 556 775>
VStem: 76 219<637.699 1184> 556 219<0 470 616.342 1184>
LayerCount: 2
UndoRedoHistory
Layer: 1
Undoes
EndUndoes
Redoes
EndRedoes
EndUndoRedoHistory
Fore
SplineSet
556 0 m 1
 556 470 l 1
 504 463 451 457 397 457 c 0
 220 457 76 517 76 752 c 2
 76 1184 l 1
 295 1184 l 1
 295 749 l 2
 295 666 324 613 449 613 c 0
 482 613 516 616 556 622 c 1
 556 1184 l 1
 775 1184 l 1
 775 0 l 1
 556 0 l 1
EndSplineSet
EndChar

StartChar: afii10090
Encoding: 397 1096 203
Width: 1279
VWidth: 0
Flags: W
HStem: 0 156<322 530 741 957> 1164 20G<111 322 530 741 957 1169>
VStem: 111 211<156 1184> 530 211<156 1184> 957 212<156 1184>
LayerCount: 2
UndoRedoHistory
Layer: 1
Undoes
EndUndoes
Redoes
EndRedoes
EndUndoRedoHistory
Fore
SplineSet
111 0 m 1
 111 1184 l 1
 322 1184 l 1
 322 156 l 1
 530 156 l 1
 530 1184 l 1
 741 1184 l 1
 741 156 l 1
 957 156 l 1
 957 1184 l 1
 1169 1184 l 1
 1169 0 l 1
 111 0 l 1
EndSplineSet
EndChar

StartChar: afii10091
Encoding: 398 1097 204
Width: 1373
VWidth: 0
Flags: W
HStem: 0 156<322 530 742 958> 1164 20G<111 322 530 742 958 1170>
VStem: 111 211<156 1184> 530 212<156 1184> 958 212<156 1184> 1154 159<-302 -74.1331>
LayerCount: 2
UndoRedoHistory
Layer: 1
Undoes
EndUndoes
Redoes
EndRedoes
EndUndoRedoHistory
Fore
SplineSet
1154 -302 m 1xf4
 1135 0 l 1
 111 0 l 1
 111 1184 l 1
 322 1184 l 1
 322 156 l 1
 530 156 l 1
 530 1184 l 1
 742 1184 l 1
 742 156 l 1
 958 156 l 1
 958 1184 l 1
 1170 1184 l 1
 1170 156 l 1xf8
 1313 156 l 1
 1313 -302 l 1
 1154 -302 l 1xf4
EndSplineSet
EndChar

StartChar: afii10092
Encoding: 399 1098 205
Width: 984
VWidth: 0
Flags: W
HStem: 0 129<456 676.68> 565 129<456 675.464> 1022 162<-8 237>
VStem: 237 219<129 565 694 1022> 740 197<185.697 504.938>
LayerCount: 2
UndoRedoHistory
Layer: 1
Undoes
EndUndoes
Redoes
EndRedoes
EndUndoRedoHistory
Fore
SplineSet
237 0 m 1
 237 1022 l 1
 -8 1022 l 1
 -8 1184 l 1
 456 1184 l 1
 456 694 l 1
 491 694 l 1
 815 692 937 624 937 349 c 0
 937 90 815 0 469 0 c 2
 237 0 l 1
456 129 m 1
 469 129 l 2
 675 129 740 172 740 350 c 0
 740 506 690 563 478 565 c 1
 456 565 l 1
 456 129 l 1
EndSplineSet
EndChar

StartChar: afii10093
Encoding: 400 1099 206
Width: 1275
VWidth: 0
Flags: W
HStem: 0 129<330 550.68> 565 129<330 549.464> 1164 20G<111 330 946 1165>
VStem: 111 219<129 565 694 1184> 614 197<185.697 505.281> 946 219<0 1184>
LayerCount: 2
UndoRedoHistory
Layer: 1
Undoes
EndUndoes
Redoes
EndRedoes
EndUndoRedoHistory
Fore
SplineSet
111 0 m 1
 111 1184 l 1
 330 1184 l 1
 330 694 l 1
 338 694 357 694 365 694 c 0
 689 691 811 625 811 349 c 0
 811 90 689 0 343 0 c 2
 111 0 l 1
330 129 m 1
 343 129 l 2
 549 129 614 172 614 350 c 0
 614 507 563 563 352 565 c 0
 349 565 333 565 330 565 c 1
 330 129 l 1
946 0 m 1
 946 1184 l 1
 1165 1184 l 1
 1165 0 l 1
 946 0 l 1
EndSplineSet
EndChar

StartChar: afii10094
Encoding: 401 1100 207
Width: 849
VWidth: 0
Flags: W
HStem: 0 129<330 550.68> 565 129<330 549.464> 1164 20G<111 330>
VStem: 111 219<129 565 694 1184> 614 197<185.697 505.281>
LayerCount: 2
UndoRedoHistory
Layer: 1
Undoes
EndUndoes
Redoes
EndRedoes
EndUndoRedoHistory
Fore
SplineSet
111 0 m 1
 111 1184 l 1
 330 1184 l 1
 330 694 l 1
 338 694 357 694 365 694 c 0
 689 691 811 625 811 349 c 0
 811 90 689 0 343 0 c 2
 111 0 l 1
330 129 m 1
 343 129 l 2
 549 129 614 172 614 350 c 0
 614 507 563 563 352 565 c 0
 349 565 333 565 330 565 c 1
 330 129 l 1
EndSplineSet
EndChar

StartChar: afii10095
Encoding: 402 1101 208
Width: 844
VWidth: 0
Flags: W
HStem: -17 161<312.465 500.83> 530 123<253 536> 1036 162<313.277 501.469>
VStem: 87 198<174.562 384 778 1005.65> 536 219<175.139 530 653 1001.71>
LayerCount: 2
UndoRedoHistory
Layer: 1
Undoes
EndUndoes
Redoes
EndRedoes
EndUndoRedoHistory
Fore
SplineSet
410 -17 m 0
 152 -17 87 109 87 351 c 2
 87 384 l 1
 285 384 l 1
 285 351 l 2
 285 200 313 144 408 144 c 0
 518 144 536 212 536 410 c 2
 536 530 l 1
 253 530 l 1
 253 653 l 1
 536 653 l 1
 536 782 l 2
 536 986 506 1036 407 1036 c 0
 298 1036 285 952 285 836 c 2
 285 778 l 1
 87 778 l 1
 87 822 l 2
 87 1058 157 1198 411 1198 c 0
 702 1198 755 1013 755 727 c 2
 755 455 l 2
 755 158 696 -17 410 -17 c 0
EndSplineSet
EndChar

StartChar: afii10096
Encoding: 403 1102 209
Width: 1173
VWidth: 0
Flags: W
HStem: -17 162<690.712 856.779> 0 21G<111 304> 521 144<304 467> 1039 161<690.712 856.779> 1164 20G<111 304>
VStem: 111 193<0 521 665 1184> 467 192<173.112 521 665 1009.89> 889 192<173.112 1009.89>
LayerCount: 2
UndoRedoHistory
Layer: 1
Undoes
EndUndoes
Redoes
EndRedoes
EndUndoRedoHistory
Fore
SplineSet
774 -17 m 0xb7
 535 -17 467 153 467 420 c 2
 467 521 l 1
 304 521 l 1
 304 0 l 1
 111 0 l 1
 111 1184 l 1
 304 1184 l 1x6f
 304 665 l 1
 467 665 l 1
 467 763 l 2
 467 1030 535 1200 774 1200 c 0
 1011 1200 1081 1030 1081 763 c 2
 1081 420 l 2
 1081 153 1011 -17 774 -17 c 0xb7
774 145 m 0xb7
 888 145 889 273 889 406 c 2
 889 777 l 2
 889 910 888 1039 774 1039 c 0
 659 1039 659 910 659 777 c 2
 659 406 l 2
 659 273 659 145 774 145 c 0xb7
EndSplineSet
EndChar

StartChar: afii10097
Encoding: 404 1103 210
Width: 884
VWidth: 0
Flags: W
HStem: 0 21G<20 264.28 555 773> 467 126<452.633 555> 1058 126<349.364 555>
VStem: 81 197<663.705 991.611> 555 218<0 467 593 1058>
LayerCount: 2
UndoRedoHistory
Layer: 1
Undoes
EndUndoes
Redoes
EndRedoes
EndUndoRedoHistory
Fore
SplineSet
20 0 m 1
 244 502 l 1
 128 544 81 663 81 828 c 0
 81 1078 201 1183 543 1184 c 1
 773 1184 l 1
 773 0 l 1
 555 0 l 1
 555 467 l 1
 511 467 486 468 451 471 c 1
 256 0 l 1
 20 0 l 1
531 593 m 0
 536 593 550 593 555 593 c 1
 555 1058 l 1
 551 1058 535 1058 532 1058 c 0
 338 1057 278 995 278 827 c 0
 278 671 333 596 531 593 c 0
EndSplineSet
EndChar

StartChar: afii10098
Encoding: 405 1169 211
Width: 607
VWidth: 0
Flags: W
HStem: 0 21G<113 331> 1027 157<331 468>
VStem: 113 218<0 1027> 468 121<1184 1377>
LayerCount: 2
UndoRedoHistory
Layer: 1
Undoes
EndUndoes
Redoes
EndRedoes
EndUndoRedoHistory
Fore
SplineSet
113 0 m 1
 113 1184 l 1
 468 1184 l 1
 468 1377 l 1
 589 1377 l 1
 589 1027 l 1
 331 1027 l 1
 331 0 l 1
 113 0 l 1
EndSplineSet
EndChar

StartChar: afii10099
Encoding: 406 1106 212
Width: 936
VWidth: 0
Flags: W
HStem: -302 146<392 569.965> 0 21G<130 349> 867 143<419.099 692> 1264 130<-20 130 349 639> 1638 20G<130 349>
VStem: 130 219<0 835.503 926 1264 1394 1658> 613 219<-113.167 854.224>
LayerCount: 2
UndoRedoHistory
Layer: 1
Undoes
EndUndoes
Redoes
EndRedoes
EndUndoRedoHistory
Fore
SplineSet
392 -302 m 1
 392 -156 l 1
 416 -156 l 2
 576 -156 613 -135 613 164 c 2
 613 755 l 2
 613 825 595 867 518 867 c 0
 446 867 357 820 349 813 c 1
 349 0 l 1
 130 0 l 1
 130 1264 l 1
 -20 1264 l 1
 -20 1394 l 1
 130 1394 l 1
 130 1658 l 1
 349 1658 l 1
 349 1394 l 1
 639 1394 l 1
 639 1264 l 1
 349 1264 l 1
 349 926 l 1
 356 932 466 1010 608 1010 c 0
 776 1010 832 905 832 809 c 2
 832 209 l 2
 832 -202 785 -302 461 -302 c 2
 392 -302 l 1
EndSplineSet
EndChar

StartChar: afii10101
Encoding: 408 1108 214
Width: 813
VWidth: 0
Flags: W
HStem: -17 162<344.733 533.337> 530 144<309 601> 1039 161<344.91 533.48>
VStem: 91 218<180.168 530 674 1007.42> 561 198<168.843 405 796 1015.56>
LayerCount: 2
UndoRedoHistory
Layer: 1
Undoes
EndUndoes
Redoes
EndRedoes
EndUndoRedoHistory
Fore
SplineSet
436 -17 m 0
 144 -17 91 170 91 454 c 2
 91 728 l 2
 91 1024 150 1200 435 1200 c 0
 694 1200 759 1074 759 829 c 2
 759 796 l 1
 561 796 l 1
 561 830 l 2
 561 984 534 1039 439 1039 c 0
 329 1039 309 972 309 773 c 2
 309 674 l 1
 601 674 l 1
 601 530 l 1
 309 530 l 1
 309 400 l 2
 309 197 340 145 440 145 c 0
 549 145 561 229 561 350 c 2
 561 405 l 1
 759 405 l 1
 759 364 l 2
 759 123 689 -17 436 -17 c 0
EndSplineSet
EndChar

StartChar: afii10103
Encoding: 410 1110 216
Width: 474
VWidth: 0
Flags: W
HStem: 0 21G<127 346> 1164 20G<127 346> 1337 229<128 350>
VStem: 127 219<0 1184 1337 1566>
LayerCount: 2
UndoRedoHistory
Layer: 1
Undoes
EndUndoes
Redoes
EndRedoes
EndUndoRedoHistory
Fore
SplineSet
127 0 m 1
 127 1184 l 1
 346 1184 l 1
 346 0 l 1
 127 0 l 1
128 1337 m 1
 128 1566 l 1
 350 1566 l 1
 350 1337 l 1
 128 1337 l 1
EndSplineSet
EndChar

StartChar: afii10105
Encoding: 412 1112 218
Width: 460
VWidth: 0
Flags: W
HStem: -299 166<-38 116.315> 1164 20G<142 361> 1359 230<142 362>
VStem: 142 219<-108.091 1184 1359 1589>
LayerCount: 2
UndoRedoHistory
Layer: 1
Undoes
EndUndoes
Redoes
EndRedoes
EndUndoRedoHistory
Fore
SplineSet
-38 -285 m 1
 -38 -127 l 1
 -25 -130 4 -133 19 -133 c 0
 113 -133 142 -74 142 10 c 2
 142 1184 l 1
 361 1184 l 1
 361 -13 l 2
 361 -198 251 -299 73 -299 c 0
 37 -299 -10 -296 -38 -285 c 1
142 1359 m 1
 142 1589 l 1
 362 1589 l 1
 362 1359 l 1
 142 1359 l 1
EndSplineSet
EndChar

StartChar: afii10106
Encoding: 413 1113 219
Width: 1349
VWidth: 0
Flags: W
HStem: -10 164<11 126.261> 0 129<858 1047.27> 555 130<858 1048.48> 1017 167<430 640>
VStem: 640 218<129 555 685 1017> 1099 198<184.052 503.543>
LayerCount: 2
UndoRedoHistory
Layer: 1
Undoes
EndUndoes
Redoes
EndRedoes
EndUndoRedoHistory
Fore
SplineSet
11 -10 m 1xbc
 11 154 l 1xbc
 175 154 192 280 212 660 c 2
 239 1184 l 1
 858 1184 l 1
 858 685 l 1
 890 685 l 2
 1187 685 1297 609 1297 345 c 0
 1297 95 1186 5 867 0 c 1
 640 0 l 1x7c
 640 1017 l 1
 430 1017 l 1
 409 628 l 1
 380 59 282 -10 33 -10 c 2
 11 -10 l 1xbc
858 129 m 1x7c
 871 129 l 2
 1046 129 1099 180 1099 346 c 0
 1099 494 1058 555 871 555 c 2
 858 555 l 1
 858 129 l 1x7c
EndSplineSet
EndChar

StartChar: afii10107
Encoding: 414 1114 220
Width: 1291
VWidth: 0
Flags: W
HStem: 0 130<799 993.761> 546 149<330 580 799 1001.94> 1164 20G<111 330 580 799>
VStem: 111 219<0 546 695 1184> 580 219<130 546 695 1184> 1050 197<184.487 503.177>
LayerCount: 2
UndoRedoHistory
Layer: 1
Undoes
EndUndoes
Redoes
EndRedoes
EndUndoRedoHistory
Fore
SplineSet
111 0 m 1
 111 1184 l 1
 330 1184 l 1
 330 695 l 1
 580 695 l 1
 580 1184 l 1
 799 1184 l 1
 799 685 l 1
 805 685 822 685 828 685 c 0
 1134 680 1247 613 1247 345 c 0
 1247 93 1135 4 810 0 c 1
 580 0 l 1
 580 546 l 1
 330 546 l 1
 330 0 l 1
 111 0 l 1
799 130 m 1
 802 130 817 130 820 130 c 0
 996 134 1050 180 1050 346 c 0
 1050 494 1007 550 822 556 c 0
 818 556 803 556 799 556 c 1
 799 130 l 1
EndSplineSet
EndChar

StartChar: afii10108
Encoding: 415 1115 221
Width: 936
VWidth: 0
Flags: W
HStem: 0 21G<130 349 613 832> 867 143<417.838 692> 1264 130<-20 130 349 639> 1638 20G<130 349>
VStem: 130 219<0 833.162 926 1264 1394 1658> 613 219<0 854.224>
LayerCount: 2
UndoRedoHistory
Layer: 1
Undoes
EndUndoes
Redoes
EndRedoes
EndUndoRedoHistory
Fore
SplineSet
130 0 m 1
 130 1264 l 1
 -20 1264 l 1
 -20 1394 l 1
 130 1394 l 1
 130 1658 l 1
 349 1658 l 1
 349 1394 l 1
 639 1394 l 1
 639 1264 l 1
 349 1264 l 1
 349 926 l 1
 356 932 466 1010 608 1010 c 0
 776 1010 832 905 832 809 c 2
 832 0 l 1
 613 0 l 1
 613 755 l 2
 613 825 595 867 518 867 c 0
 464 867 357 820 349 813 c 1
 349 0 l 1
 130 0 l 1
EndSplineSet
EndChar

StartChar: afii10145
Encoding: 418 1039 224
Width: 1120
VWidth: 0
Flags: W
HStem: 0 165<361 463 666 759> 1638 20G<130 361 759 990>
VStem: 130 231<165 1658> 463 203<-288.631 0> 478 173<-302 -13.3685> 759 231<165 1658>
LayerCount: 2
UndoRedoHistory
Layer: 1
Undoes
EndUndoes
Redoes
EndRedoes
EndUndoRedoHistory
Fore
SplineSet
478 -302 m 1xec
 463 0 l 1
 130 0 l 1
 130 1658 l 1
 361 1658 l 1
 361 165 l 1
 759 165 l 1
 759 1658 l 1
 990 1658 l 1
 990 0 l 1
 666 0 l 1xf4
 651 -302 l 1
 478 -302 l 1xec
EndSplineSet
EndChar

StartChar: afii10193
Encoding: 419 1119 225
Width: 913
VWidth: 0
Flags: W
HStem: 0 156<330 370 548 584> 1164 20G<111 330 584 803>
VStem: 111 219<156 1184> 370 178<-227.867 0> 389 148<-302 -74.1331> 584 219<156 1184>
LayerCount: 2
UndoRedoHistory
Layer: 1
Undoes
EndUndoes
Redoes
EndRedoes
EndUndoRedoHistory
Fore
SplineSet
389 -302 m 1xec
 370 0 l 1
 111 0 l 1
 111 1184 l 1
 330 1184 l 1
 330 156 l 1
 584 156 l 1
 584 1184 l 1
 803 1184 l 1
 803 0 l 1
 548 0 l 1xf4
 537 -302 l 1
 389 -302 l 1xec
EndSplineSet
EndChar

StartChar: afii61289
Encoding: 420 8467 226
Width: 1024
VWidth: 0
Flags: W
LayerCount: 2
UndoRedoHistory
Layer: 1
Undoes
EndUndoes
Redoes
EndRedoes
EndUndoRedoHistory
Fore
SplineSet
374 524 m 1
 216 302 l 1
 141 371 l 1
 408 759 l 1
 541 1653 l 2
 606 2095 1434 2019 660 929 c 1
 535 752 l 1
 468 330 l 2
 420 24 588 40 738 225 c 1
 806 148 l 1
 604 -95 279 -110 346 339 c 2
 374 524 l 1
574 999 m 1
 1129 1808 677 1655 677 1655 c 1
 574 999 l 1
EndSplineSet
EndChar

StartChar: ampersand
Encoding: 38 38 230
Width: 1241
VWidth: 0
Flags: W
HStem: -18 181<378.485 617.65> -17 225<1006.77 1126> 1494 180<444.103 639.724>
VStem: 118 220<204.275 565.535> 180 219<1101.63 1451.21> 667 219<1177.64 1465.84> 907 218<531.979 762>
LayerCount: 2
UndoRedoHistory
Layer: 1
Undoes
EndUndoes
Redoes
EndRedoes
EndUndoRedoHistory
Fore
SplineSet
478 -18 m 0xae
 249 -18 118 137 118 355 c 0xb6
 118 563 228 713 360 833 c 1
 285 980 180 1128 180 1307 c 0
 180 1526 316 1674 534 1674 c 0
 733 1674 886 1559 886 1366 c 0
 886 1148 709 953 576 824 c 1
 826 430 l 1
 868 514 894 646 907 762 c 1
 1125 762 l 1
 1125 601 1042 403 964 293 c 1
 1000 248 1061 208 1126 208 c 1
 1126 -16 l 1
 1116 -17 1106 -17 1097 -17 c 0x6e
 978 -15 902 75 834 144 c 1
 760 52 640 -18 478 -18 c 0xae
478 163 m 0
 579 163 649 224 700 286 c 1
 447 677 l 1
 381 594 338 474 338 355 c 0
 338 258 371 163 478 163 c 0
499 943 m 1
 583 1042 667 1212 667 1366 c 0
 667 1445 615 1494 534 1494 c 0
 437 1494 399 1401 399 1307 c 0x2e
 399 1179 450 1053 499 943 c 1
EndSplineSet
EndChar

StartChar: approxequal
Encoding: 424 8776 232
Width: 918
VWidth: 0
Flags: W
HStem: 515 177<498.228 714.92> 633 175<203.11 421.662> 886 178<498.228 718.156> 1004 176<203.11 421.662>
LayerCount: 2
UndoRedoHistory
Layer: 1
Undoes
EndUndoes
Redoes
EndRedoes
EndUndoRedoHistory
Fore
SplineSet
608 515 m 0x80
 506 515 389 633 301 633 c 0
 263 633 202 596 151 554 c 1
 73 659 l 1
 132 719 246 808 316 808 c 0x40
 418 808 531 692 620 692 c 0
 661 692 711 731 766 774 c 1
 845 673 l 1
 789 608 684 515 608 515 c 0x80
608 886 m 0x20
 506 886 389 1004 301 1004 c 0
 263 1004 202 967 151 926 c 1
 73 1031 l 1
 132 1091 246 1180 316 1180 c 0x10
 418 1180 531 1064 620 1064 c 0
 661 1064 711 1102 766 1145 c 1
 845 1044 l 1
 789 980 684 886 608 886 c 0x20
EndSplineSet
EndChar

StartChar: asciicircum
Encoding: 94 94 234
Width: 908
VWidth: 0
Flags: W
HStem: 998 660
LayerCount: 2
UndoRedoHistory
Layer: 1
Undoes
EndUndoes
Redoes
EndRedoes
EndUndoRedoHistory
Fore
SplineSet
69 998 m 1
 344 1658 l 1
 565 1658 l 1
 839 998 l 1
 631 998 l 1
 454 1495 l 1
 277 998 l 1
 69 998 l 1
EndSplineSet
EndChar

StartChar: asciitilde
Encoding: 126 126 235
Width: 915
VWidth: 0
Flags: W
HStem: 743 177<496.64 713.92> 861 175<200.675 420.176>
LayerCount: 2
UndoRedoHistory
Layer: 1
Undoes
EndUndoes
Redoes
EndRedoes
EndUndoRedoHistory
Fore
SplineSet
607 743 m 0x80
 504 743 388 861 300 861 c 0
 262 861 201 824 150 782 c 1
 72 887 l 1
 130 947 245 1036 315 1036 c 0x40
 416 1036 529 920 619 920 c 0
 660 920 710 959 765 1002 c 1
 844 901 l 1
 788 837 683 743 607 743 c 0x80
EndSplineSet
EndChar

StartChar: asterisk
Encoding: 42 42 236
Width: 815
VWidth: 0
Flags: W
LayerCount: 2
UndoRedoHistory
Layer: 1
Undoes
EndUndoes
Redoes
EndRedoes
EndUndoRedoHistory
Fore
SplineSet
302 960 m 1
 172 1038 l 1
 334 1265 l 1
 93 1358 l 1
 145 1497 l 1
 376 1375 l 1
 352 1656 l 1
 518 1656 l 1
 492 1375 l 1
 724 1497 l 1
 776 1358 l 1
 534 1264 l 1
 698 1038 l 1
 566 960 l 1
 434 1216 l 1
 302 960 l 1
EndSplineSet
EndChar

StartChar: at
Encoding: 64 64 237
Width: 1852
VWidth: 0
Flags: W
HStem: -274 169<710.599 1309.63> 201 123<1245.01 1416.04> 1076 162<969.092 1145.42> 1487 171<805.373 1259.81>
VStem: 120 200<300.284 920.092> 568 204<409.299 820.366> 1603 160<583.451 1123.9>
CounterMasks: 1 0e
LayerCount: 2
UndoRedoHistory
Layer: 1
Undoes
EndUndoes
Redoes
EndRedoes
EndUndoRedoHistory
Fore
SplineSet
962 -274 m 0
 485 -274 120 -4 120 577 c 0
 120 1315 507 1657 1046 1658 c 0
 1545 1658 1767 1271 1763 863 c 1
 1761 500 1569 201 1272 201 c 0
 1157 201 1073 273 1069 390 c 1
 1048 305 993 214 875 204 c 0
 669 186 568 368 568 572 c 0
 568 878 765 1238 1053 1238 c 0
 1098 1238 1154 1210 1185 1185 c 1
 1206 1220 l 1
 1365 1220 l 1
 1249 468 l 1
 1239 391 1231 324 1296 324 c 0
 1469 324 1601 555 1603 841 c 1
 1607 1185 1437 1488 1032 1487 c 0
 605 1486 320 1138 320 586 c 0
 320 115 592 -105 982 -105 c 0
 1098 -105 1224 -86 1353 -49 c 1
 1392 -208 l 1
 1243 -251 1096 -274 962 -274 c 0
918 373 m 1
 982 383 1049 447 1075 588 c 1
 1146 1065 l 1
 1129 1072 1108 1076 1090 1076 c 0
 925 1076 772 848 772 570 c 0
 772 450 820 354 918 373 c 1
EndSplineSet
EndChar

StartChar: b
Encoding: 98 98 239
Width: 916
VWidth: 0
Flags: W
HStem: -17 173<399.53 568.811> 0 21G<114 333> 1028 172<407.279 568.892> 1638 20G<114 333>
VStem: 114 219<0 87 181.992 998.163 1090 1658> 608 219<194.802 985.843>
LayerCount: 2
UndoRedoHistory
Layer: 1
Undoes
EndUndoes
Redoes
EndRedoes
EndUndoRedoHistory
Fore
SplineSet
534 -17 m 0xbc
 450 -17 383 32 333 87 c 1
 333 0 l 1
 114 0 l 1x7c
 114 1658 l 1
 333 1658 l 1
 333 1090 l 1
 385 1149 457 1200 558 1200 c 0
 804 1200 827 897 827 755 c 2
 827 469 l 2
 827 217 767 -17 534 -17 c 0xbc
490 156 m 0xbc
 602 156 608 294 608 468 c 2
 608 755 l 2
 608 904 594 1028 481 1028 c 0
 424 1028 373 999 333 968 c 1
 333 208 l 1
 373 179 425 156 490 156 c 0xbc
EndSplineSet
EndChar

StartChar: backslash
Encoding: 92 92 240
Width: 756
VWidth: 0
Flags: W
HStem: 0 21G<500.608 696> 1638 20G<59 253.404>
VStem: 59 637
LayerCount: 2
UndoRedoHistory
Layer: 1
Undoes
EndUndoes
Redoes
EndRedoes
EndUndoRedoHistory
Fore
SplineSet
506 0 m 1
 59 1658 l 1
 248 1658 l 1
 696 0 l 1
 506 0 l 1
EndSplineSet
EndChar

StartChar: bar
Encoding: 124 124 241
Width: 490
VWidth: 0
Flags: W
HStem: 1639 20G<143.98 347>
VStem: 142 204<-304 1659>
LayerCount: 2
UndoRedoHistory
Layer: 1
Undoes
EndUndoes
Redoes
EndRedoes
EndUndoRedoHistory
Fore
SplineSet
142 -304 m 1
 144 1659 l 1
 347 1659 l 1
 346 -304 l 1
 142 -304 l 1
EndSplineSet
EndChar

StartChar: braceleft
Encoding: 123 123 242
Width: 615
VWidth: 0
Flags: W
HStem: -392 162<453.135 568> 566 151<81 178> 1512 162<453.135 568>
VStem: 200 231<-217.506 547.004 736.996 1489.8>
LayerCount: 2
UndoRedoHistory
Layer: 1
Undoes
EndUndoes
Redoes
EndRedoes
EndUndoRedoHistory
Fore
SplineSet
568 -392 m 1
 223 -392 200 -344 200 21 c 2
 200 309 l 2
 200 533 181 566 81 566 c 1
 81 717 l 1
 181 717 200 751 200 975 c 2
 200 1261 l 2
 200 1626 223 1674 568 1674 c 1
 568 1512 l 1
 431 1512 431 1487 431 1261 c 2
 431 943 l 2
 431 738 377 662 294 642 c 1
 377 622 431 546 431 341 c 2
 431 21 l 2
 431 -206 431 -230 568 -230 c 1
 568 -392 l 1
EndSplineSet
EndChar

StartChar: braceright
Encoding: 125 125 243
Width: 658
VWidth: 0
Flags: W
HStem: -392 162<90 204.822> 566 151<479 576> 1512 162<90 204.822>
VStem: 227 230<-217.506 547.004 736.996 1489.8>
LayerCount: 2
UndoRedoHistory
Layer: 1
Undoes
EndUndoes
Redoes
EndRedoes
EndUndoRedoHistory
Fore
SplineSet
90 -392 m 1
 90 -230 l 1
 227 -230 227 -206 227 21 c 2
 227 341 l 2
 227 546 281 622 364 642 c 1
 281 662 227 738 227 943 c 2
 227 1261 l 2
 227 1487 227 1512 90 1512 c 1
 90 1674 l 1
 435 1674 457 1626 457 1261 c 2
 457 975 l 2
 457 751 476 717 576 717 c 1
 576 566 l 1
 476 566 457 533 457 309 c 2
 457 21 l 2
 457 -344 435 -392 90 -392 c 1
EndSplineSet
EndChar

StartChar: bracketleft
Encoding: 91 91 244
Width: 697
VWidth: 0
Flags: W
HStem: -377 112<349 580> 1546 112<349 580>
VStem: 130 219<-265 1546>
LayerCount: 2
UndoRedoHistory
Layer: 1
Undoes
EndUndoes
Redoes
EndRedoes
EndUndoRedoHistory
Fore
SplineSet
130 -377 m 1
 130 1658 l 1
 580 1658 l 1
 580 1546 l 1
 349 1546 l 1
 349 -265 l 1
 580 -265 l 1
 580 -377 l 1
 130 -377 l 1
EndSplineSet
EndChar

StartChar: bracketright
Encoding: 93 93 245
Width: 634
VWidth: 0
Flags: W
HStem: -377 112<54 285> 1545 113<54 285>
VStem: 285 220<-265 1545>
LayerCount: 2
UndoRedoHistory
Layer: 1
Undoes
EndUndoes
Redoes
EndRedoes
EndUndoRedoHistory
Fore
SplineSet
54 -377 m 1
 54 -265 l 1
 285 -265 l 1
 285 1545 l 1
 54 1545 l 1
 54 1658 l 1
 505 1658 l 1
 505 -377 l 1
 54 -377 l 1
EndSplineSet
EndChar

StartChar: breve
Encoding: 425 728 246
Width: 713
VWidth: 0
Flags: W
HStem: 1354 124<248.941 465.338> 1638 20G<88 216.5 497.5 627>
VStem: 88 128<1511.72 1658> 498 129<1511.72 1658>
LayerCount: 2
UndoRedoHistory
Layer: 1
Undoes
EndUndoes
Redoes
EndRedoes
EndUndoRedoHistory
Fore
SplineSet
357 1354 m 0
 140 1354 89 1487 88 1658 c 1
 216 1658 l 1
 217 1528 254 1478 357 1478 c 0
 459 1478 497 1529 498 1658 c 1
 627 1658 l 1
 627 1487 576 1354 357 1354 c 0
EndSplineSet
EndChar

StartChar: brokenbar
Encoding: 166 166 247
Width: 435
VWidth: 0
Flags: W
HStem: 1638 20G<130 305>
VStem: 130 175<-314 524 820 1658>
LayerCount: 2
UndoRedoHistory
Layer: 1
Undoes
EndUndoes
Redoes
EndRedoes
EndUndoRedoHistory
Fore
SplineSet
130 -314 m 1
 130 524 l 1
 305 524 l 1
 305 -314 l 1
 130 -314 l 1
130 820 m 1
 130 1658 l 1
 305 1658 l 1
 305 820 l 1
 130 820 l 1
EndSplineSet
EndChar

StartChar: bullet
Encoding: 426 8226 248
Width: 744
VWidth: 0
Flags: W
HStem: 557 482<223.653 519.498>
VStem: 139 466<644.176 951.824>
LayerCount: 2
UndoRedoHistory
Layer: 1
Undoes
EndUndoes
Redoes
EndRedoes
EndUndoRedoHistory
Fore
SplineSet
371 557 m 0
 223 557 139 653 139 798 c 0
 139 944 223 1039 371 1039 c 0
 520 1039 605 943 605 798 c 0
 605 652 520 557 371 557 c 0
EndSplineSet
EndChar

StartChar: c
Encoding: 99 99 249
Width: 841
VWidth: 0
Flags: W
HStem: -17 162<343.288 531.492> 1039 161<343.466 531.797>
VStem: 89 219<180.168 1007.42> 559 198<169.611 447 757 1014.33>
AnchorPoint: "cedilla" 380 0 basechar 0
LayerCount: 2
UndoRedoHistory
Layer: 1
Undoes
EndUndoes
Redoes
EndRedoes
EndUndoRedoHistory
Fore
SplineSet
434 -17 m 0
 143 -17 89 170 89 454 c 2
 89 728 l 2
 89 1024 148 1200 434 1200 c 0
 692 1200 757 1072 757 828 c 2
 757 757 l 1
 559 757 l 1
 559 829 l 2
 559 983 532 1039 437 1039 c 0
 327 1039 308 972 308 773 c 2
 308 400 l 2
 308 197 339 145 438 145 c 0
 547 145 559 230 559 351 c 2
 559 447 l 1
 757 447 l 1
 757 365 l 2
 757 124 688 -17 434 -17 c 0
EndSplineSet
EndChar

StartChar: caron
Encoding: 428 711 251
Width: 690
VWidth: 0
Flags: W
HStem: 1305 353
VStem: 62 569
LayerCount: 2
UndoRedoHistory
Layer: 1
Undoes
EndUndoes
Redoes
EndRedoes
EndUndoRedoHistory
Fore
SplineSet
238 1305 m 1
 62 1658 l 1
 227 1658 l 1
 346 1419 l 1
 464 1658 l 1
 631 1658 l 1
 453 1305 l 1
 238 1305 l 1
EndSplineSet
EndChar

StartChar: cedilla
Encoding: 184 184 256
Width: 518
VWidth: 0
Flags: W
HStem: -460 110<59 282.525> -171 171<115 223.71>
VStem: 115 111<-123.547 0> 288 165<-349.941 -216.253>
AnchorPoint: "cedilla" 120 0 mark 0
LayerCount: 2
UndoRedoHistory
Layer: 1
Undoes
EndUndoes
Redoes
EndRedoes
EndUndoRedoHistory
Fore
SplineSet
59 -460 m 1
 59 -350 l 1
 163 -378 286 -369 288 -293 c 0
 291 -215 205 -193 115 -171 c 1
 115 0 l 1
 226 0 l 1
 226 -115 l 1
 336 -133 448 -189 453 -291 c 0
 461 -463 261 -516 59 -460 c 1
EndSplineSet
EndChar

StartChar: cent
Encoding: 162 162 257
Width: 794
VWidth: 0
Flags: W
HStem: -13 158<343.884 365 435 531.138> 1039 158<346.143 367 437 523.963>
VStem: 89 219<174.705 1006.25> 365 70<-162 -17 1200 1343> 559 198<170.255 447 757 1013.7>
LayerCount: 2
UndoRedoHistory
Layer: 1
Undoes
EndUndoes
Redoes
EndRedoes
EndUndoRedoHistory
Fore
SplineSet
365 -162 m 1
 365 -13 l 1
 134 14 89 194 89 454 c 2
 89 728 l 2
 89 1000 139 1170 367 1197 c 1
 367 1343 l 1
 437 1343 l 1
 437 1200 l 1
 692 1199 757 1071 757 828 c 2
 757 757 l 1
 559 757 l 1
 559 829 l 2
 559 983 532 1039 437 1039 c 0
 327 1039 308 972 308 773 c 2
 308 400 l 2
 308 197 339 145 438 145 c 0
 547 145 559 230 559 351 c 2
 559 447 l 1
 757 447 l 1
 757 365 l 2
 757 125 688 -16 435 -17 c 1
 435 -162 l 1
 365 -162 l 1
EndSplineSet
EndChar

StartChar: circumflex
Encoding: 432 710 258
Width: 702
VWidth: 0
Flags: W
HStem: 1274 384
VStem: 63 577
LayerCount: 2
UndoRedoHistory
Layer: 1
Undoes
EndUndoes
Redoes
EndRedoes
EndUndoRedoHistory
Fore
SplineSet
63 1274 m 1
 240 1658 l 1
 462 1658 l 1
 640 1274 l 1
 475 1274 l 1
 351 1549 l 1
 227 1274 l 1
 63 1274 l 1
EndSplineSet
EndChar

StartChar: colon
Encoding: 58 58 259
Width: 403
VWidth: 0
Flags: W
HStem: 197 233<123 344> 849 234<123 344>
VStem: 123 221<197 430 849 1083>
LayerCount: 2
UndoRedoHistory
Layer: 1
Undoes
EndUndoes
Redoes
EndRedoes
EndUndoRedoHistory
Fore
SplineSet
123 197 m 1
 123 430 l 1
 344 430 l 1
 344 197 l 1
 123 197 l 1
123 849 m 1
 123 1083 l 1
 344 1083 l 1
 344 849 l 1
 123 849 l 1
EndSplineSet
EndChar

StartChar: comma
Encoding: 44 44 260
Width: 382
VWidth: 0
Flags: W
HStem: 0 235<83 200>
VStem: 83 227<0 235> 200 110<-124.012 0>
LayerCount: 2
UndoRedoHistory
Layer: 1
Undoes
EndUndoes
Redoes
EndRedoes
EndUndoRedoHistory
Fore
SplineSet
117 -269 m 1xc0
 81 -174 l 1
 156 -150 200 -83 200 0 c 1xa0
 83 0 l 1
 83 235 l 1
 310 235 l 1
 310 5 l 2
 310 -141 248 -223 117 -269 c 1xc0
EndSplineSet
EndChar

StartChar: copyright
Encoding: 169 169 261
Width: 1765
VWidth: 0
Flags: W
HStem: -22 89<634.138 1147.93> 254 169<783.079 992.537> 1290 169<777.508 993.146> 1618 90<624.883 1156.82>
VStem: 60 105<554.876 1132.31> 502 235<469.191 1248.15> 1029 214<456.697 703 1015 1257.4> 1611 94<554.67 1132.31>
CounterMasks: 2 f0 0f
LayerCount: 2
UndoRedoHistory
Layer: 1
Undoes
EndUndoes
Redoes
EndRedoes
EndUndoRedoHistory
Fore
SplineSet
884 254 m 0
 561 254 502 448 502 746 c 2
 502 965 l 2
 502 1276 567 1459 884 1459 c 0
 1171 1459 1243 1327 1243 1071 c 2
 1243 1015 l 1
 1029 1015 l 1
 1029 1071 l 2
 1029 1234 993 1290 888 1290 c 0
 766 1290 737 1221 737 1012 c 2
 737 689 l 2
 737 476 779 423 889 423 c 0
 1010 423 1029 508 1029 637 c 2
 1029 703 l 1
 1243 703 l 1
 1243 652 l 2
 1243 399 1166 254 884 254 c 0
888 67 m 0
 1390 67 1611 455 1611 844 c 0
 1611 1234 1390 1618 888 1618 c 0
 385 1618 165 1234 165 844 c 0
 165 455 385 67 888 67 c 0
883 -22 m 0
 298 -22 60 427 60 843 c 0
 60 1260 298 1708 883 1708 c 0
 1467 1708 1705 1260 1705 843 c 0
 1705 426 1469 -22 883 -22 c 0
EndSplineSet
EndChar

StartChar: currency
Encoding: 164 164 262
Width: 1126
VWidth: 0
Flags: W
HStem: 428 88<399.971 727.379> 1216 88<399.971 727.379>
VStem: 130 95<692.449 1039.94> 903 93<692.449 1039.94>
LayerCount: 2
UndoRedoHistory
Layer: 1
Undoes
EndUndoes
Redoes
EndRedoes
EndUndoRedoHistory
Fore
SplineSet
108 381 m 1
 78 411 l 1
 241 573 l 1
 172 650 130 754 130 866 c 0
 130 979 172 1082 241 1159 c 1
 78 1321 l 1
 108 1351 l 1
 270 1189 l 1
 346 1261 449 1305 563 1304 c 1
 677 1305 780 1261 856 1189 c 1
 1018 1351 l 1
 1048 1321 l 1
 886 1159 l 1
 954 1082 996 979 996 866 c 0
 996 754 954 650 885 573 c 1
 1048 411 l 1
 1018 381 l 1
 856 543 l 1
 780 471 677 427 563 428 c 1
 449 427 346 471 270 543 c 1
 108 381 l 1
563 516 m 0
 756 516 903 674 903 866 c 0
 903 1059 756 1216 563 1216 c 0
 372 1216 225 1059 225 866 c 0
 225 674 372 516 563 516 c 0
EndSplineSet
EndChar

StartChar: d
Encoding: 100 100 263
Width: 905
VWidth: 0
Flags: W
HStem: -17 173<349.604 518.385> 0 21G<575 794> 1028 172<353.224 517.571> 1638 20G<575 794>
VStem: 89 219<197.473 983.464> 575 219<0 76 176.945 1003.71 1108 1658>
LayerCount: 2
UndoRedoHistory
Layer: 1
Undoes
EndUndoes
Redoes
EndRedoes
EndUndoRedoHistory
Fore
SplineSet
386 -17 m 0xbc
 184 -18 89 114 89 465 c 2
 89 695 l 2
 89 965 137 1200 378 1200 c 0
 459 1200 525 1159 575 1108 c 1
 575 1658 l 1
 794 1658 l 1
 794 0 l 1
 575 0 l 1x7c
 575 76 l 1
 524 21 462 -17 386 -17 c 0xbc
441 156 m 0xbc
 482 156 529 171 575 200 c 1
 575 976 l 1
 536 1004 489 1028 437 1028 c 0
 333 1028 308 915 308 781 c 2
 308 446 l 2
 308 280 323 156 441 156 c 0xbc
EndSplineSet
EndChar

StartChar: dagger
Encoding: 433 8224 264
Width: 771
VWidth: 0
Flags: W
HStem: 0 21G<280 494> 1104 170<85 280 494 689>
VStem: 280 214<0 1104 1274 1645>
LayerCount: 2
UndoRedoHistory
Layer: 1
Undoes
EndUndoes
Redoes
EndRedoes
EndUndoRedoHistory
Fore
SplineSet
280 0 m 1
 280 1104 l 1
 85 1104 l 1
 85 1274 l 1
 280 1274 l 1
 280 1645 l 1
 494 1645 l 1
 494 1274 l 1
 689 1274 l 1
 689 1104 l 1
 494 1104 l 1
 494 0 l 1
 280 0 l 1
EndSplineSet
EndChar

StartChar: daggerdbl
Encoding: 434 8225 265
Width: 780
VWidth: 0
Flags: W
HStem: 0 21G<287 495> 519 148<71 287 495 711> 1037 147<71 287 495 711>
VStem: 287 208<0 519 667 1037 1184 1646>
LayerCount: 2
UndoRedoHistory
Layer: 1
Undoes
EndUndoes
Redoes
EndRedoes
EndUndoRedoHistory
Fore
SplineSet
287 0 m 1
 287 519 l 1
 71 519 l 1
 71 667 l 1
 287 667 l 1
 287 1037 l 1
 71 1037 l 1
 71 1184 l 1
 287 1184 l 1
 287 1646 l 1
 495 1646 l 1
 495 1184 l 1
 711 1184 l 1
 711 1037 l 1
 495 1037 l 1
 495 667 l 1
 711 667 l 1
 711 519 l 1
 495 519 l 1
 495 0 l 1
 287 0 l 1
EndSplineSet
EndChar

StartChar: dcroat
Encoding: 436 273 267
Width: 929
VWidth: 0
Flags: W
HStem: -17 173<349.604 518.385> 0 21G<575 794> 1028 172<353.224 517.571> 1391 120<346 575 794 915> 1638 20G<575 794>
VStem: 89 219<197.473 983.464> 575 219<0 76 176.945 1003.71 1108 1391 1511 1658>
LayerCount: 2
UndoRedoHistory
Layer: 1
Undoes
EndUndoes
Redoes
EndRedoes
EndUndoRedoHistory
Fore
SplineSet
386 -17 m 0xbe
 184 -18 89 114 89 465 c 2
 89 695 l 2
 89 965 137 1200 378 1200 c 0
 459 1200 525 1159 575 1108 c 1
 575 1391 l 1
 346 1391 l 1
 346 1511 l 1
 575 1511 l 1
 575 1658 l 1
 794 1658 l 1
 794 1511 l 1
 915 1511 l 1
 915 1391 l 1
 794 1391 l 1
 794 0 l 1
 575 0 l 1x7e
 575 76 l 1
 524 21 462 -17 386 -17 c 0xbe
441 156 m 0xbe
 482 156 529 171 575 200 c 1
 575 976 l 1
 536 1004 489 1028 437 1028 c 0
 333 1028 308 915 308 781 c 2
 308 446 l 2
 308 280 323 156 441 156 c 0xbe
EndSplineSet
EndChar

StartChar: degree
Encoding: 176 176 268
Width: 927
VWidth: 0
Flags: W
HStem: 986 146<343.912 582.151> 1529 145<342.538 583.73>
VStem: 119 166<1192.1 1469.53> 642 166<1192.1 1469.32>
LayerCount: 2
UndoRedoHistory
Layer: 1
Undoes
EndUndoes
Redoes
EndRedoes
EndUndoRedoHistory
Fore
SplineSet
463 1132 m 0
 576 1132 642 1212 642 1331 c 0
 642 1450 576 1529 463 1529 c 0
 350 1529 285 1450 285 1331 c 0
 285 1212 350 1132 463 1132 c 0
463 986 m 0
 251 986 119 1115 119 1331 c 0
 119 1547 252 1674 463 1674 c 0
 674 1674 808 1546 808 1331 c 0
 808 1115 674 986 463 986 c 0
EndSplineSet
EndChar

StartChar: dieresis
Encoding: 168 168 269
Width: 819
VWidth: 0
Flags: W
HStem: 1432 226<122 343 474 695>
VStem: 122 221<1432 1658> 474 221<1432 1658>
LayerCount: 2
UndoRedoHistory
Layer: 1
Undoes
EndUndoes
Redoes
EndRedoes
EndUndoRedoHistory
Fore
SplineSet
122 1432 m 1
 122 1658 l 1
 343 1658 l 1
 343 1432 l 1
 122 1432 l 1
474 1432 m 1
 474 1658 l 1
 695 1658 l 1
 695 1432 l 1
 474 1432 l 1
EndSplineSet
EndChar

StartChar: divide
Encoding: 247 247 270
Width: 709
VWidth: 0
Flags: W
HStem: 353 227<266 440> 762 159<38 671> 1079 227<266 440>
VStem: 266 174<353 580 1079 1306>
LayerCount: 2
UndoRedoHistory
Layer: 1
Undoes
EndUndoes
Redoes
EndRedoes
EndUndoRedoHistory
Fore
SplineSet
266 353 m 1
 266 580 l 1
 440 580 l 1
 440 353 l 1
 266 353 l 1
38 762 m 1
 38 921 l 1
 671 921 l 1
 671 762 l 1
 38 762 l 1
266 1079 m 1
 266 1306 l 1
 440 1306 l 1
 440 1079 l 1
 266 1079 l 1
EndSplineSet
EndChar

StartChar: dollar
Encoding: 36 36 271
Width: 1005
VWidth: 0
Flags: W
HStem: -17 181<395.985 505 575 647.979> 1191 21G<689 767.222>
VStem: 83 207<293.14 466.865 1158.93 1440.81> 457 71<1674 1810> 505 70<-157 -17> 695 195<1241.03 1392.07> 702 215<219.848 522.645>
LayerCount: 2
UndoRedoHistory
Layer: 1
Undoes
EndUndoes
Redoes
EndRedoes
EndUndoRedoHistory
Fore
SplineSet
505 -157 m 1xea
 505 -17 l 1
 226 -11 95 183 79 464 c 1
 285 520 l 1
 296 343 343 164 520 164 c 0
 639 164 702 231 702 359 c 0xea
 702 507 624 583 522 677 c 1
 244 924 l 1
 136 1022 83 1124 83 1291 c 0
 83 1528 228 1666 457 1674 c 1
 457 1810 l 1
 528 1810 l 1
 528 1673 l 1
 759 1657 866 1515 890 1245 c 1
 695 1191 l 1xf4
 683 1355 645 1506 473 1495 c 0
 358 1487 290 1434 290 1313 c 0
 290 1213 323 1157 399 1088 c 1
 679 841 l 1
 803 729 917 584 917 377 c 0
 917 150 778 7 575 -15 c 1
 575 -157 l 1
 505 -157 l 1xea
EndSplineSet
EndChar

StartChar: dotlessi
Encoding: 438 305 273
Width: 459
VWidth: 0
Flags: W
HStem: 0 21G<125 344> 1164 20G<125 344>
VStem: 125 219<0 1184>
LayerCount: 2
UndoRedoHistory
Layer: 1
Undoes
EndUndoes
Redoes
EndRedoes
EndUndoRedoHistory
Fore
SplineSet
125 0 m 1
 125 1184 l 1
 344 1184 l 1
 344 0 l 1
 125 0 l 1
EndSplineSet
EndChar

StartChar: e
Encoding: 101 101 274
Width: 862
VWidth: 0
Flags: W
HStem: -17 162<341.858 526.383> 588 119<308 559> 1039 161<342.27 528.697>
VStem: 89 219<179.922 588 707 1005.29> 559 214<171.708 412 707 1009.5>
AnchorPoint: "ogonek" 518 0 basechar 0
LayerCount: 2
UndoRedoHistory
Layer: 1
Undoes
EndUndoes
Redoes
EndRedoes
EndUndoRedoHistory
Fore
SplineSet
439 -17 m 0
 159 -17 89 147 89 456 c 2
 89 727 l 2
 89 1041 165 1200 438 1200 c 0
 735 1200 775 1008 775 684 c 1
 774 588 l 1
 308 588 l 1
 308 430 l 2
 308 273 304 145 437 145 c 0
 538 145 559 222 559 340 c 2
 559 412 l 1
 773 412 l 1
 773 366 l 2
 773 128 679 -17 439 -17 c 0
308 707 m 1
 559 707 l 1
 559 814 l 2
 559 958 544 1039 436 1039 c 0
 330 1039 308 974 308 771 c 2
 308 707 l 1
EndSplineSet
EndChar

StartChar: eight
Encoding: 56 56 282
Width: 979
VWidth: 0
Flags: W
HStem: -18 174<364.416 610.837> 766 208<385.578 595.028> 1503 171<383.079 597.902>
VStem: 81 210<241.376 673.345> 102 216<1046.42 1436.2> 662 214<1046.21 1435.81> 688 211<239.245 675.397>
CounterMasks: 1 e0
LayerCount: 2
UndoRedoHistory
Layer: 1
Undoes
EndUndoes
Redoes
EndRedoes
EndUndoRedoHistory
Fore
SplineSet
491 -18 m 0xe2
 191 -18 81 169 81 467 c 0xf2
 81 691 164 799 287 874 c 1
 176 948 102 1060 102 1246 c 0
 102 1508 223 1674 491 1674 c 0
 758 1674 876 1507 876 1246 c 0xec
 876 1059 804 948 693 874 c 1
 813 798 899 690 899 467 c 0
 899 169 789 -18 491 -18 c 0xe2
491 156 m 0
 651 156 688 291 688 463 c 0
 688 619 643 763 491 766 c 1
 337 763 291 620 291 463 c 0
 291 289 330 156 491 156 c 0
491 974 m 1
 628 976 662 1119 662 1258 c 0
 662 1392 618 1503 491 1503 c 0
 362 1503 318 1393 318 1258 c 0xec
 318 1119 352 976 491 974 c 1
EndSplineSet
EndChar

StartChar: ellipsis
Encoding: 442 8230 283
Width: 1133
VWidth: 0
Flags: W
HStem: 0 243<78 299 458 679 838 1059>
VStem: 78 221<0 243> 458 221<0 243> 838 221<0 243>
CounterMasks: 1 70
LayerCount: 2
UndoRedoHistory
Layer: 1
Undoes
EndUndoes
Redoes
EndRedoes
EndUndoRedoHistory
Fore
SplineSet
78 0 m 1
 78 243 l 1
 299 243 l 1
 299 0 l 1
 78 0 l 1
458 0 m 1
 458 243 l 1
 679 243 l 1
 679 0 l 1
 458 0 l 1
838 0 m 1
 838 243 l 1
 1059 243 l 1
 1059 0 l 1
 838 0 l 1
EndSplineSet
EndChar

StartChar: emdash
Encoding: 444 8212 285
Width: 1976
VWidth: 0
Flags: W
HStem: 550 160<17 1962>
LayerCount: 2
UndoRedoHistory
Layer: 1
Undoes
EndUndoes
Redoes
EndRedoes
EndUndoRedoHistory
Fore
SplineSet
17 550 m 1
 17 710 l 1
 1962 710 l 1
 1962 550 l 1
 17 550 l 1
EndSplineSet
EndChar

StartChar: endash
Encoding: 445 8211 286
Width: 1012
VWidth: 0
Flags: W
HStem: 417 167<17 998>
LayerCount: 2
UndoRedoHistory
Layer: 1
Undoes
EndUndoes
Redoes
EndRedoes
EndUndoRedoHistory
Fore
SplineSet
17 417 m 1
 17 584 l 1
 998 584 l 1
 998 417 l 1
 17 417 l 1
EndSplineSet
EndChar

StartChar: eng
Encoding: 446 331 287
Width: 794
VWidth: 0
Flags: W
HStem: -377 166<315 503.438> 0 21G<91 310> 1028 172<430.933 670> 1164 20G<91 310>
VStem: 91 219<0 988.534 1067 1184> 557 219<-154.088 1017.65>
LayerCount: 2
UndoRedoHistory
Layer: 1
Undoes
EndUndoes
Redoes
EndRedoes
EndUndoRedoHistory
Fore
SplineSet
315 -377 m 1xec
 315 -211 l 1
 519 -211 557 -146 557 -10 c 2
 557 894 l 2
 557 978 540 1028 463 1028 c 0xec
 414 1028 359 996 310 955 c 1
 310 0 l 1
 91 0 l 1
 91 1184 l 1
 310 1184 l 1xdc
 310 1067 l 1
 388 1141 484 1200 600 1200 c 0
 740 1200 776 1073 776 958 c 2
 776 -12 l 2
 776 -255 614 -377 380 -377 c 2
 315 -377 l 1xec
EndSplineSet
EndChar

StartChar: equal
Encoding: 61 61 289
Width: 850
VWidth: 0
Flags: W
HStem: 572 166<110 739> 934 167<110 739>
VStem: 110 629<572 738 934 1101>
LayerCount: 2
UndoRedoHistory
Layer: 1
Undoes
EndUndoes
Redoes
EndRedoes
EndUndoRedoHistory
Fore
SplineSet
110 572 m 1
 110 738 l 1
 739 738 l 1
 739 572 l 1
 110 572 l 1
110 934 m 1
 110 1101 l 1
 739 1101 l 1
 739 934 l 1
 110 934 l 1
EndSplineSet
EndChar

StartChar: estimated
Encoding: 448 8494 290
Width: 865
VWidth: 0
Flags: W
HStem: -17 72<360.099 615.658> 587 72<312 577> 1117 80<353.394 538.231>
VStem: 91 221<154.528 587 659 1042.45> 577 199<659 1062.23> 664 111<94.3693 412>
CounterMasks: 1 e0
LayerCount: 2
UndoRedoHistory
Layer: 1
Undoes
EndUndoes
Redoes
EndRedoes
EndUndoRedoHistory
Fore
SplineSet
469 -17 m 0xf4
 188 -17 91 111 91 420 c 2
 91 760 l 2
 91 1074 176 1197 449 1197 c 0
 746 1197 776 1041 776 717 c 2
 776 587 l 1xf8
 312 587 l 1
 312 328 l 2
 312 133 318 55 494 55 c 0
 649 55 664 132 664 310 c 2
 664 412 l 1
 775 412 l 1
 775 318 l 2
 775 79 721 -17 469 -17 c 0xf4
312 659 m 1
 577 659 l 1
 577 868 l 2
 577 1012 569 1117 447 1117 c 0
 327 1117 312 1028 312 824 c 2
 312 659 l 1
EndSplineSet
EndChar

StartChar: eth
Encoding: 240 240 291
Width: 965
VWidth: 0
Flags: W
HStem: -18 173<371.494 584.081> 961 179<388.261 588.097> 1534 143<168 415.158>
VStem: 106 219<197.924 890.18> 633 218<212.822 928.981>
LayerCount: 2
UndoRedoHistory
Layer: 1
Undoes
EndUndoes
Redoes
EndRedoes
EndUndoRedoHistory
Fore
SplineSet
851 486 m 2
 851 181 750 -18 464 -18 c 0
 162 -18 106 164 106 460 c 2
 106 598 l 2
 106 898 157 1140 428 1140 c 0
 523 1140 587 1102 627 1066 c 1
 617 1174 593 1282 555 1341 c 1
 311 1265 l 1
 311 1377 l 1
 496 1429 l 1
 439 1495 352 1531 158 1534 c 1
 168 1677 l 1
 432 1675 577 1616 667 1485 c 1
 906 1555 l 1
 906 1443 l 1
 723 1394 l 1
 783 1269 851 998 851 773 c 2
 851 486 l 2
325 582 m 0
 325 370 294 155 471 155 c 0
 617 155 633 273 633 449 c 0
 633 463 631 890 630 892 c 0
 612 910 570 961 483 961 c 0
 360 961 325 840 325 582 c 0
EndSplineSet
EndChar

StartChar: exclam
Encoding: 33 33 292
Width: 425
VWidth: 0
Flags: W
HStem: 0 225<102 323> 1638 20G<102 323>
VStem: 102 221<0 225> 173 77<355 610.888>
LayerCount: 2
UndoRedoHistory
Layer: 1
Undoes
EndUndoes
Redoes
EndRedoes
EndUndoRedoHistory
Fore
SplineSet
102 0 m 1xe0
 102 225 l 1
 323 225 l 1
 323 0 l 1
 102 0 l 1xe0
173 355 m 1xd0
 102 1658 l 1
 323 1658 l 1xe0
 250 355 l 1
 173 355 l 1xd0
EndSplineSet
EndChar

StartChar: exclamdown
Encoding: 161 161 293
Width: 425
VWidth: 0
Flags: W
HStem: 1069 225<102 323>
VStem: 102 221<1069 1294> 174 77<679.558 939>
LayerCount: 2
UndoRedoHistory
Layer: 1
Undoes
EndUndoes
Redoes
EndRedoes
EndUndoRedoHistory
Fore
SplineSet
102 -364 m 1xc0
 174 939 l 1
 251 939 l 1xa0
 323 -364 l 1
 102 -364 l 1xc0
102 1069 m 1xc0
 102 1294 l 1
 323 1294 l 1
 323 1069 l 1
 102 1069 l 1xc0
EndSplineSet
EndChar

StartChar: f
Encoding: 102 102 294
Width: 588
VWidth: 0
Flags: W
HStem: 0 21G<181 399> 1021 163<38 181 399 580> 1435 165<415.807 579>
VStem: 181 218<0 1021 1184 1416.71>
LayerCount: 2
UndoRedoHistory
Layer: 1
Undoes
EndUndoes
Redoes
EndRedoes
EndUndoRedoHistory
Fore
SplineSet
181 0 m 1
 181 1021 l 1
 38 1021 l 1
 38 1184 l 1
 181 1184 l 1
 181 1245 l 2
 181 1464 214 1600 437 1600 c 0
 492 1600 523 1596 579 1589 c 1
 579 1425 l 1
 555 1428 522 1435 498 1435 c 0
 412 1435 399 1374 399 1283 c 2
 399 1184 l 1
 580 1184 l 1
 580 1021 l 1
 399 1021 l 1
 399 0 l 1
 181 0 l 1
EndSplineSet
EndChar

StartChar: five
Encoding: 53 53 295
Width: 975
VWidth: 0
Flags: W
HStem: -17 175<382.053 620.916> 908 165<386.431 628.342> 1440 218<331 848>
VStem: 96 219<240.058 464> 133 187<771 839.524 981 1440> 691 219<244.481 836.466>
CounterMasks: 1 e0
LayerCount: 2
UndoRedoHistory
Layer: 1
Undoes
EndUndoes
Redoes
EndRedoes
EndUndoRedoHistory
Fore
SplineSet
498 -17 m 0xec
 198 -17 96 163 96 464 c 1
 315 464 l 1xf4
 315 315 337 158 501 158 c 0
 680 158 691 328 691 552 c 0
 691 777 670 908 504 908 c 0
 414 908 350 841 320 771 c 1
 133 771 l 1
 133 1658 l 1
 848 1658 l 1
 848 1440 l 1
 331 1440 l 1
 318 981 l 1
 372 1038 452 1073 557 1073 c 0
 826 1073 910 866 910 582 c 0
 910 242 824 -17 498 -17 c 0xec
EndSplineSet
EndChar

StartChar: florin
Encoding: 449 402 296
Width: 778
VWidth: 0
Flags: W
HStem: -244 165<13.5466 179.569> 1021 163<175 310 546 703> 1435 165<586.465 751.479>
LayerCount: 2
UndoRedoHistory
Layer: 1
Undoes
EndUndoes
Redoes
EndRedoes
EndUndoRedoHistory
Fore
SplineSet
138 -244 m 0
 83 -244 53 -239 -2 -232 c 1
 14 -69 l 1
 37 -73 72 -79 94 -79 c 0
 180 -79 199 -17 210 74 c 1
 310 1021 l 1
 175 1021 l 1
 175 1184 l 1
 327 1184 l 1
 335 1257 l 1
 356 1471 407 1600 628 1600 c 0
 683 1600 712 1596 768 1589 c 1
 751 1425 l 1
 727 1428 696 1435 673 1435 c 0
 587 1435 566 1374 556 1283 c 2
 546 1184 l 1
 703 1184 l 1
 703 1021 l 1
 529 1021 l 1
 431 99 l 2
 408 -116 359 -244 138 -244 c 0
EndSplineSet
EndChar

StartChar: foundryicon
Encoding: 450 -1 297
Width: 1408
VWidth: 0
Flags: W
LayerCount: 2
UndoRedoHistory
Layer: 1
Undoes
EndUndoes
Redoes
EndRedoes
EndUndoRedoHistory
Fore
SplineSet
271 258 m 1
 428 763 l 1
 0 1089 l 1
 533 1089 l 1
 700 1595 l 1
 875 1089 l 1
 1408 1089 l 1
 979 763 l 1
 1137 258 l 1
 700 563 l 1
 271 258 l 1
EndSplineSet
EndChar

StartChar: four
Encoding: 52 52 298
Width: 1006
VWidth: 0
Flags: W
HStem: 0 21G<560 780> 436 208<303 560 780 964> 1639 20G<499.297 780>
VStem: 560 220<0 436 644 1381>
LayerCount: 2
UndoRedoHistory
Layer: 1
Undoes
EndUndoes
Redoes
EndRedoes
EndUndoRedoHistory
Fore
SplineSet
560 0 m 1
 560 436 l 1
 82 436 l 1
 82 680 l 1
 508 1659 l 1
 780 1659 l 1
 780 644 l 1
 964 644 l 1
 964 436 l 1
 780 436 l 1
 780 0 l 1
 560 0 l 1
303 644 m 1
 560 644 l 1
 560 1381 l 1
 303 644 l 1
EndSplineSet
EndChar

StartChar: fraction
Encoding: 451 8260 299
Width: 477
VWidth: 0
Flags: W
HStem: 0 21G<0 191.486> 1638 20G<285.514 477>
VStem: 0 477
LayerCount: 2
UndoRedoHistory
Layer: 1
Undoes
EndUndoes
Redoes
EndRedoes
EndUndoRedoHistory
Fore
SplineSet
0 0 m 1
 289 1658 l 1
 477 1658 l 1
 188 0 l 1
 0 0 l 1
EndSplineSet
EndChar

StartChar: g
Encoding: 103 103 300
Width: 891
VWidth: 0
Flags: W
HStem: -367 173<245.824 634.811> 362 155<324.699 521.842> 1048 152<325.977 524.814>
VStem: 40 186<-266.5 -31.111> 96 176<184 336.786 572.542 991.976> 565 186<552.96 998.705> 662 167<-163.471 12.6296>
LayerCount: 2
UndoRedoHistory
Layer: 1
Undoes
EndUndoes
Redoes
EndRedoes
EndUndoRedoHistory
Fore
SplineSet
479 -367 m 0xea
 252 -367 40 -350 40 -183 c 0xf2
 40 -51 123 36 211 83 c 1
 134 107 96 157 96 211 c 0
 96 299 146 353 228 425 c 1
 138 494 91 590 91 779 c 0
 91 1055 204 1200 423 1200 c 0
 550 1200 626 1155 667 1070 c 1
 681 1090 747 1155 827 1192 c 1
 861 1207 l 1
 915 1065 l 1
 863 1054 736 1008 714 990 c 1
 734 942 751 839 751 772 c 0xec
 751 531 672 362 423 362 c 0
 397 362 315 376 311 377 c 1
 297 353 272 317 272 286 c 0
 272 255 302 240 371 234 c 1
 379 232 550 218 555 217 c 0
 733 200 829 106 829 -71 c 0
 829 -287 715 -367 479 -367 c 0xea
476 -194 m 0
 602 -194 662 -159 662 -77 c 0
 662 -6 628 31 500 44 c 1
 313 59 l 1
 288 39 226 -23 226 -95 c 0
 226 -162 261 -194 476 -194 c 0
423 517 m 0
 548 517 565 613 565 779 c 0xe4
 565 944 549 1048 426 1048 c 0
 304 1048 281 951 281 779 c 0
 281 631 301 517 423 517 c 0
EndSplineSet
EndChar

StartChar: gcommaaccent
Encoding: 454 291 303
Width: 901
VWidth: 0
Flags: W
HStem: -387 127<262.801 660.237> 376 123<350.98 573.445> 1081 124<357.313 572.643> 1492 222<522 640>
VStem: 28 190<-212.771 -40.5183> 78 205<578.159 999.807> 432 208<1492 1710.27> 432 90<1714 1842.44> 642 196<574.553 995.869> 715 165<-205.308 -27.4137>
LayerCount: 2
UndoRedoHistory
Layer: 1
Undoes
EndUndoes
Redoes
EndRedoes
EndUndoRedoHistory
Fore
SplineSet
461 -387 m 0xf040
 241 -387 28 -331 28 -157 c 0xf840
 28 -54 138 40 230 97 c 1
 152 122 78 154 72 198 c 0
 61 286 157 392 224 458 c 1
 120 530 78 651 78 785 c 0
 78 1013 205 1205 458 1205 c 0
 592 1205 681 1140 731 1070 c 1
 771 1129 831 1184 892 1211 c 2
 928 1227 l 1
 978 1120 l 1
 920 1104 844 1053 787 1000 c 1
 812 954 838 868 838 787 c 0xf480
 838 547 723 376 474 376 c 0
 409 376 351 388 303 408 c 1
 268 358 211 283 214 242 c 1
 216 230 258 217 318 204 c 1
 392 186 475 172 556 157 c 1
 780 111 880 40 880 -109 c 0
 880 -281 724 -387 461 -387 c 0xf040
432 1492 m 1xf2
 432 1673 l 2xf2
 432 1838 490 1926 617 1960 c 1
 632 1901 l 1
 562 1859 522 1790 522 1714 c 1xf1
 640 1714 l 1
 640 1492 l 1
 432 1492 l 1xf2
461 -260 m 0
 604 -260 712 -221 715 -126 c 1
 720 -42 679 -1 499 38 c 1
 363 63 l 1
 305 21 218 -44 218 -130 c 0xf840
 218 -220 314 -260 461 -260 c 0
464 499 m 0
 623 499 642 665 642 795 c 0
 642 922 614 1081 461 1081 c 0
 308 1081 283 900 283 795 c 0xf480
 283 669 304 499 464 499 c 0
EndSplineSet
EndChar

StartChar: germandbls
Encoding: 223 223 305
Width: 1045
VWidth: 0
Flags: W
HStem: -18 181<450 622.406> 0 21G<114 333> 769 181<467 578.047> 1498 179<381.822 606.072>
VStem: 114 219<0 1447.65> 658 214<1039.6 1445> 716 218<254.817 659.763>
LayerCount: 2
UndoRedoHistory
Layer: 0
Undoes
EndUndoes
Redoes
EndRedoes
EndUndoRedoHistory
UndoRedoHistory
Layer: 1
Undoes
EndUndoes
Redoes
EndRedoes
EndUndoRedoHistory
Fore
SplineSet
450 -18 m 1xba
 450 163 l 1
 671 163 716 276 716 475 c 0xba
 716 648 639 769 466 769 c 1
 467 950 l 1
 615 950 658 1101 658 1251 c 0
 658 1393 629 1498 493 1498 c 0
 365 1498 333 1407 333 1256 c 2
 333 0 l 1
 114 0 l 1
 114 1253 l 2
 114 1512 231 1677 466 1677 c 0
 737 1677 872 1525 872 1251 c 0x7c
 872 1056 802 946 670 877 c 1
 839 832 934 681 934 476 c 0
 934 162 794 -18 450 -18 c 1xba
EndSplineSet
Colour: ffff00
EndChar

StartChar: grave
Encoding: 96 96 306
Width: 569
VWidth: 0
Flags: W
HStem: 1253 405
VStem: 116 337
LayerCount: 2
UndoRedoHistory
Layer: 1
Undoes
EndUndoes
Redoes
EndRedoes
EndUndoRedoHistory
Fore
SplineSet
343 1253 m 1
 116 1658 l 1
 336 1658 l 1
 453 1253 l 1
 343 1253 l 1
EndSplineSet
EndChar

StartChar: gravecomb
Encoding: 456 768 307
Width: 0
VWidth: 0
Flags: W
HStem: 1253 405
VStem: -99 337
LayerCount: 2
UndoRedoHistory
Layer: 1
Undoes
EndUndoes
Redoes
EndRedoes
EndUndoRedoHistory
Fore
SplineSet
128 1253 m 1
 -99 1658 l 1
 121 1658 l 1
 238 1253 l 1
 128 1253 l 1
EndSplineSet
EndChar

StartChar: greater
Encoding: 62 62 308
Width: 764
VWidth: 0
Flags: W
VStem: 118 588
LayerCount: 2
UndoRedoHistory
Layer: 1
Undoes
EndUndoes
Redoes
EndRedoes
EndUndoRedoHistory
Fore
SplineSet
118 73 m 1
 118 293 l 1
 540 600 l 1
 118 904 l 1
 118 1124 l 1
 706 709 l 1
 706 489 l 1
 118 73 l 1
EndSplineSet
EndChar

StartChar: greaterequal
Encoding: 457 8805 309
Width: 792
VWidth: 0
Flags: W
HStem: 0 131<112 724>
VStem: 112 612<1062 1193>
LayerCount: 2
UndoRedoHistory
Layer: 1
Undoes
EndUndoes
Redoes
EndRedoes
EndUndoRedoHistory
Fore
SplineSet
112 232 m 1
 112 451 l 1
 535 759 l 1
 112 1062 l 1
 112 1283 l 1
 701 868 l 1
 701 648 l 1
 112 232 l 1
112 0 m 1
 112 131 l 1
 724 131 l 1
 724 0 l 1
 112 0 l 1
EndSplineSet
EndChar

StartChar: guillemotleft
Encoding: 171 171 310
Width: 932
VWidth: 0
Flags: W
LayerCount: 2
UndoRedoHistory
Layer: 1
Undoes
EndUndoes
Redoes
EndRedoes
EndUndoRedoHistory
Fore
SplineSet
398 83 m 1
 63 550 l 1
 63 658 l 1
 398 1125 l 1
 398 850 l 1
 230 605 l 1
 398 357 l 1
 398 83 l 1
797 83 m 1
 460 550 l 1
 460 658 l 1
 797 1125 l 1
 797 850 l 1
 628 605 l 1
 797 357 l 1
 797 83 l 1
EndSplineSet
EndChar

StartChar: guillemotright
Encoding: 187 187 311
Width: 985
VWidth: 0
Flags: W
LayerCount: 2
UndoRedoHistory
Layer: 1
Undoes
EndUndoes
Redoes
EndRedoes
EndUndoRedoHistory
Fore
SplineSet
117 83 m 1
 117 357 l 1
 304 605 l 1
 117 850 l 1
 117 1125 l 1
 472 658 l 1
 472 550 l 1
 117 83 l 1
516 83 m 1
 516 357 l 1
 702 604 l 1
 516 850 l 1
 516 1125 l 1
 869 658 l 1
 869 550 l 1
 516 83 l 1
EndSplineSet
EndChar

StartChar: guilsinglleft
Encoding: 458 8249 312
Width: 564
VWidth: 0
Flags: W
VStem: 89 406
LayerCount: 2
UndoRedoHistory
Layer: 1
Undoes
EndUndoes
Redoes
EndRedoes
EndUndoRedoHistory
Fore
SplineSet
495 83 m 1
 89 550 l 1
 89 658 l 1
 495 1125 l 1
 495 850 l 1
 255 605 l 1
 495 357 l 1
 495 83 l 1
EndSplineSet
EndChar

StartChar: guilsinglright
Encoding: 459 8250 313
Width: 599
VWidth: 0
Flags: W
VStem: 122 406
LayerCount: 2
UndoRedoHistory
Layer: 1
Undoes
EndUndoes
Redoes
EndRedoes
EndUndoRedoHistory
Fore
SplineSet
122 190 m 1
 122 464 l 1
 362 712 l 1
 122 957 l 1
 122 1232 l 1
 528 765 l 1
 528 657 l 1
 122 190 l 1
EndSplineSet
EndChar

StartChar: h
Encoding: 104 104 314
Width: 912
VWidth: 0
Flags: W
HStem: 0 21G<116 335 589 808> 1028 172<462.705 702> 1638 20G<116 335>
VStem: 116 219<0 983.782 1061 1658> 589 219<0 1017.65>
LayerCount: 2
UndoRedoHistory
Layer: 1
Undoes
EndUndoes
Redoes
EndRedoes
EndUndoRedoHistory
Fore
SplineSet
116 0 m 1
 116 1658 l 1
 335 1658 l 1
 335 1061 l 1
 415 1137 513 1200 632 1200 c 0
 772 1200 808 1073 808 958 c 2
 808 0 l 1
 589 0 l 1
 589 894 l 2
 589 978 572 1028 496 1028 c 0
 444 1028 386 993 335 950 c 1
 335 0 l 1
 116 0 l 1
EndSplineSet
EndChar

StartChar: hbar
Encoding: 460 295 315
Width: 912
VWidth: 0
Flags: W
HStem: 0 21G<116 335 589 808> 1028 172<462.035 701.5> 1414 123<-13 116 335 585> 1638 20G<116 335>
VStem: 116 219<0 983.782 1061 1414 1537 1658> 589 219<0 1017.65>
LayerCount: 2
UndoRedoHistory
Layer: 1
Undoes
EndUndoes
Redoes
EndRedoes
EndUndoRedoHistory
Fore
SplineSet
116 0 m 1
 116 1414 l 1
 -13 1414 l 1
 -13 1537 l 1
 116 1537 l 1
 116 1658 l 1
 335 1658 l 1
 335 1537 l 1
 585 1537 l 1
 585 1414 l 1
 335 1414 l 1
 335 1061 l 1
 414 1137 512 1200 631 1200 c 0
 772 1200 808 1073 808 958 c 2
 808 0 l 1
 589 0 l 1
 589 894 l 2
 589 978 572 1028 495 1028 c 0
 444 1028 386 993 335 950 c 1
 335 0 l 1
 116 0 l 1
EndSplineSet
EndChar

StartChar: hungarumlaut
Encoding: 462 733 317
Width: 584
VWidth: 0
Flags: W
HStem: 1311 350<571 601>
VStem: 194 599
LayerCount: 2
UndoRedoHistory
Layer: 1
Undoes
EndUndoes
Redoes
EndRedoes
EndUndoRedoHistory
Fore
SplineSet
194 1311 m 1
 275 1661 l 1
 454 1661 l 1
 305 1311 l 1
 194 1311 l 1
453 1311 m 1
 571 1661 l 1
 793 1661 l 1
 565 1311 l 1
 453 1311 l 1
EndSplineSet
EndChar

StartChar: hyphen
Encoding: 45 45 318
Width: 658
VWidth: 0
Flags: W
HStem: 535 166<100 558>
VStem: 100 458<535 701>
LayerCount: 2
UndoRedoHistory
Layer: 1
Undoes
EndUndoes
Redoes
EndRedoes
EndUndoRedoHistory
Fore
SplineSet
100 535 m 1
 100 701 l 1
 558 701 l 1
 558 535 l 1
 100 535 l 1
EndSplineSet
EndChar

StartChar: i
Encoding: 105 105 319
Width: 468
VWidth: 0
Flags: W
HStem: 0 21G<125 344> 1164 20G<125 344> 1359 230<125 345>
VStem: 125 219<0 1184 1359 1589>
AnchorPoint: "ogonek" 196 0 basechar 0
LayerCount: 2
UndoRedoHistory
Layer: 1
Undoes
EndUndoes
Redoes
EndRedoes
EndUndoRedoHistory
Fore
SplineSet
125 0 m 1
 125 1184 l 1
 344 1184 l 1
 344 0 l 1
 125 0 l 1
125 1359 m 1
 125 1589 l 1
 345 1589 l 1
 345 1359 l 1
 125 1359 l 1
EndSplineSet
EndChar

StartChar: infinity
Encoding: 466 8734 327
Width: 1295
VWidth: 0
Flags: W
HStem: 262 189<872.218 1063.12> 683 189<872.218 1063.12> 700 187<240.768 442.516>
VStem: 44 163<466.04 668.349> 1090 161<476.315 658.06>
LayerCount: 2
UndoRedoHistory
Layer: 1
Undoes
EndUndoes
Redoes
EndRedoes
EndUndoRedoHistory
Fore
SplineSet
343 247 m 0xd8
 142 247 44 383 44 567 c 0
 44 752 142 887 343 887 c 0xb8
 488 887 580 813 664 718 c 1
 742 807 823 876 960 872 c 0
 1146 867 1251 752 1251 567 c 0
 1251 383 1146 268 960 262 c 1
 823 259 742 328 664 417 c 1
 580 322 488 247 343 247 c 0xd8
338 434 m 0
 391 437 447 466 535 567 c 1
 447 668 391 698 338 700 c 1
 262 705 207 646 207 567 c 0
 207 488 262 430 338 434 c 0
969 451 m 0
 1035 450 1090 494 1090 567 c 0
 1090 641 1035 684 969 683 c 0xd8
 926 682 885 663 799 567 c 1
 885 472 926 452 969 451 c 0
EndSplineSet
EndChar

StartChar: integral
Encoding: 467 8747 328
Width: 663
VWidth: 0
Flags: W
HStem: -389 165<26 188.606> 1515 165<441.676 604>
VStem: 206 218<-206.284 1496.41>
LayerCount: 2
UndoRedoHistory
Layer: 1
Undoes
EndUndoes
Redoes
EndRedoes
EndUndoRedoHistory
Fore
SplineSet
167 -389 m 0
 112 -389 82 -385 26 -378 c 1
 26 -214 l 1
 48 -218 84 -224 107 -224 c 0
 193 -224 206 -162 206 -71 c 2
 206 1337 l 2
 206 1551 243 1680 463 1680 c 0
 518 1680 548 1676 604 1669 c 1
 604 1505 l 1
 580 1508 548 1515 524 1515 c 0
 438 1515 424 1454 424 1363 c 2
 424 -46 l 2
 424 -262 388 -389 167 -389 c 0
EndSplineSet
EndChar

StartChar: j
Encoding: 106 106 331
Width: 471
VWidth: 0
Flags: W
HStem: -299 166<-38 116.315> 1164 20G<142 361> 1359 230<142 362>
VStem: 142 219<-108.091 1184 1359 1589>
LayerCount: 2
UndoRedoHistory
Layer: 1
Undoes
EndUndoes
Redoes
EndRedoes
EndUndoRedoHistory
Fore
SplineSet
-38 -285 m 1
 -38 -127 l 1
 -25 -130 4 -133 19 -133 c 0
 113 -133 142 -74 142 10 c 2
 142 1184 l 1
 361 1184 l 1
 361 -13 l 2
 361 -198 251 -299 73 -299 c 0
 37 -299 -10 -296 -38 -285 c 1
142 1359 m 1
 142 1589 l 1
 362 1589 l 1
 362 1359 l 1
 142 1359 l 1
EndSplineSet
EndChar

StartChar: k
Encoding: 107 107 333
Width: 878
VWidth: 0
Flags: W
HStem: 0 21G<648.718 874> 1164 20G<654 870.974> 1641 20G<114 333>
VStem: 114 219<3 454 671 1661>
LayerCount: 2
UndoRedoHistory
Layer: 1
Undoes
EndUndoes
Redoes
EndRedoes
EndUndoRedoHistory
Fore
SplineSet
114 3 m 1
 114 1661 l 1
 333 1661 l 1
 333 671 l 1
 654 1183 l 1
 883 1184 l 1
 604 720 l 1
 874 0 l 1
 656 0 l 1
 435 607 l 1
 333 454 l 1
 333 3 l 1
 114 3 l 1
EndSplineSet
EndChar

StartChar: kgreenlandic
Encoding: 472 312 335
Width: 881
VWidth: 0
Flags: W
HStem: 0 21G<121 339 646.162 873> 1164 20G<121 339 639 872>
VStem: 121 218<0 409 664 1184>
LayerCount: 2
UndoRedoHistory
Layer: 1
Undoes
EndUndoes
Redoes
EndRedoes
EndUndoRedoHistory
Fore
SplineSet
121 0 m 1
 121 1184 l 1
 339 1184 l 1
 339 664 l 1
 651 1184 l 1
 872 1184 l 1
 602 732 l 1
 873 0 l 1
 653 0 l 1
 454 582 l 1
 339 409 l 1
 339 0 l 1
 121 0 l 1
EndSplineSet
EndChar

StartChar: l
Encoding: 108 108 336
Width: 469
VWidth: 0
Flags: W
HStem: 0 21G<131 351> 1638 20G<131 351>
VStem: 131 220<0 1658>
LayerCount: 2
UndoRedoHistory
Layer: 1
Undoes
EndUndoes
Redoes
EndRedoes
EndUndoRedoHistory
Fore
SplineSet
131 0 m 1
 131 1658 l 1
 351 1658 l 1
 351 0 l 1
 131 0 l 1
EndSplineSet
EndChar

StartChar: less
Encoding: 60 60 341
Width: 764
VWidth: 0
Flags: W
VStem: 60 586
LayerCount: 2
UndoRedoHistory
Layer: 1
Undoes
EndUndoes
Redoes
EndRedoes
EndUndoRedoHistory
Fore
SplineSet
646 73 m 1
 60 487 l 1
 60 707 l 1
 646 1124 l 1
 646 904 l 1
 225 598 l 1
 646 293 l 1
 646 73 l 1
EndSplineSet
EndChar

StartChar: lessequal
Encoding: 477 8804 342
Width: 796
VWidth: 0
Flags: W
HStem: 0 131<67 679>
VStem: 67 612<0 131>
LayerCount: 2
UndoRedoHistory
Layer: 1
Undoes
EndUndoes
Redoes
EndRedoes
EndUndoRedoHistory
Fore
SplineSet
669 218 m 1
 82 632 l 1
 82 852 l 1
 669 1269 l 1
 669 1049 l 1
 247 743 l 1
 669 438 l 1
 669 218 l 1
67 0 m 1
 67 131 l 1
 679 131 l 1
 679 0 l 1
 67 0 l 1
EndSplineSet
EndChar

StartChar: logicalnot
Encoding: 172 172 343
Width: 793
VWidth: 0
Flags: W
HStem: 753 166<82 625>
VStem: 625 113<524 753>
LayerCount: 2
UndoRedoHistory
Layer: 1
Undoes
EndUndoes
Redoes
EndRedoes
EndUndoRedoHistory
Fore
SplineSet
625 524 m 1
 625 753 l 1
 82 753 l 1
 82 919 l 1
 738 919 l 1
 738 524 l 1
 625 524 l 1
EndSplineSet
EndChar

StartChar: lozenge
Encoding: 478 9674 344
Width: 955
VWidth: 0
Flags: W
HStem: 0 21G<421.838 546.689> 1165 20G<408.331 533.142>
LayerCount: 2
UndoRedoHistory
Layer: 1
Undoes
EndUndoes
Redoes
EndRedoes
EndUndoRedoHistory
Fore
SplineSet
434 0 m 1
 74 592 l 1
 420 1185 l 1
 521 1185 l 1
 881 592 l 1
 535 0 l 1
 434 0 l 1
482 147 m 1
 726 592 l 1
 473 1024 l 1
 229 592 l 1
 482 147 l 1
EndSplineSet
EndChar

StartChar: lslash
Encoding: 479 322 345
Width: 547
VWidth: 0
Flags: W
HStem: 0 21G<174 393> 1163 20G<476.333 518> 1638 20G<174 393>
VStem: 174 219<0 851 1123 1658>
LayerCount: 2
UndoRedoHistory
Layer: 1
Undoes
EndUndoes
Redoes
EndRedoes
EndUndoRedoHistory
Fore
SplineSet
174 0 m 1
 174 851 l 1
 35 785 l 1
 35 956 l 1
 174 1022 l 1
 174 1658 l 1
 393 1658 l 1
 393 1123 l 1
 518 1183 l 1
 518 1014 l 1
 393 953 l 1
 393 0 l 1
 174 0 l 1
EndSplineSet
EndChar

StartChar: m
Encoding: 109 109 346
Width: 1392
VWidth: 0
Flags: W
HStem: 0 21G<111 313 600 801 1087 1289> 1061 144<422.735 581.108 908.894 1068.11> 1164 20G<111 313>
VStem: 111 202<0 1004.05 1072 1184> 600 201<0 964.438> 1087 202<0 1042.15>
LayerCount: 2
UndoRedoHistory
Layer: 1
Undoes
EndUndoes
Redoes
EndRedoes
EndUndoRedoHistory
Fore
SplineSet
111 0 m 1xdc
 111 1184 l 1
 313 1184 l 1xbc
 313 1072 l 1
 393 1161 491 1205 592 1205 c 0
 677 1205 753 1165 784 1055 c 1
 868 1157 971 1205 1079 1205 c 0
 1194 1205 1289 1127 1289 929 c 2
 1289 0 l 1
 1087 0 l 1
 1087 916 l 2
 1087 1030 1046 1062 985 1061 c 0
 925 1061 856 1023 800 965 c 1
 801 953 801 942 801 929 c 2
 801 0 l 1
 600 0 l 1
 600 916 l 2
 600 1030 559 1062 498 1061 c 0
 438 1061 370 1023 313 964 c 1
 313 0 l 1
 111 0 l 1xdc
EndSplineSet
EndChar

StartChar: macron
Encoding: 175 175 347
Width: 614
VWidth: 0
Flags: W
HStem: 1526 132<127 521>
VStem: 127 394<1526 1658>
LayerCount: 2
UndoRedoHistory
Layer: 1
Undoes
EndUndoes
Redoes
EndRedoes
EndUndoRedoHistory
Fore
SplineSet
127 1526 m 1
 127 1658 l 1
 521 1658 l 1
 521 1526 l 1
 127 1526 l 1
EndSplineSet
EndChar

StartChar: minus
Encoding: 480 8722 348
Width: 797
VWidth: 0
Flags: W
HStem: 752 131<92 704>
VStem: 92 612<752 883>
LayerCount: 2
UndoRedoHistory
Layer: 1
Undoes
EndUndoes
Redoes
EndRedoes
EndUndoRedoHistory
Fore
SplineSet
92 752 m 1
 92 883 l 1
 704 883 l 1
 704 752 l 1
 92 752 l 1
EndSplineSet
EndChar

StartChar: mu
Encoding: 181 181 349
Width: 904
VWidth: 0
Flags: W
HStem: 0 21G<569 788> 1164 20G<103 322 569 788>
VStem: 105 217<-359 -6 166.284 1184> 569 219<0 117 195.466 1184>
LayerCount: 2
UndoRedoHistory
Layer: 1
Undoes
EndUndoes
Redoes
EndRedoes
EndUndoRedoHistory
Fore
SplineSet
105 -359 m 1
 103 1184 l 1
 322 1184 l 1
 322 290 l 2
 322 206 339 156 416 156 c 0
 465 156 520 188 569 229 c 1
 569 1184 l 1
 788 1184 l 1
 788 0 l 1
 569 0 l 1
 569 117 l 1
 511 61 442 14 363 -5 c 1
 350 -7 337 -8 325 -6 c 1
 326 -359 l 1
 105 -359 l 1
EndSplineSet
EndChar

StartChar: multiply
Encoding: 215 215 350
Width: 784
VWidth: 0
Flags: W
HStem: 521 585
VStem: 100 584
LayerCount: 2
UndoRedoHistory
Layer: 1
Undoes
EndUndoes
Redoes
EndRedoes
EndUndoRedoHistory
Fore
SplineSet
210 521 m 1
 100 631 l 1
 282 813 l 1
 100 995 l 1
 210 1106 l 1
 392 924 l 1
 574 1106 l 1
 684 995 l 1
 501 813 l 1
 684 631 l 1
 574 521 l 1
 392 703 l 1
 210 521 l 1
EndSplineSet
EndChar

StartChar: n
Encoding: 110 110 351
Width: 900
VWidth: 0
Flags: W
HStem: 0 21G<111 330 577 796> 1028 172<450.882 689.5> 1164 20G<111 330>
VStem: 111 219<0 988.534 1067 1184> 577 219<0 1017.65>
LayerCount: 2
UndoRedoHistory
Layer: 1
Undoes
EndUndoes
Redoes
EndRedoes
EndUndoRedoHistory
Fore
SplineSet
111 0 m 1xd8
 111 1184 l 1
 330 1184 l 1xb8
 330 1067 l 1
 408 1141 504 1200 619 1200 c 0
 760 1200 796 1073 796 958 c 2
 796 0 l 1
 577 0 l 1
 577 894 l 2
 577 978 560 1028 483 1028 c 0
 434 1028 379 996 330 955 c 1
 330 0 l 1
 111 0 l 1xd8
EndSplineSet
EndChar

StartChar: nine
Encoding: 57 57 356
Width: 1002
VWidth: 0
Flags: W
HStem: -18 181<374.583 610.567> 656 166<379.879 618.898> 1494 180<387.651 612.392>
VStem: 90 221<227.454 411 893.512 1405.66> 689 220<256.846 770 879.251 1402.66>
CounterMasks: 1 e0
LayerCount: 2
UndoRedoHistory
Layer: 1
Undoes
EndUndoes
Redoes
EndRedoes
EndUndoRedoHistory
Fore
SplineSet
502 -18 m 0
 242 -18 99 130 95 393 c 0
 94 397 94 406 94 411 c 1
 314 411 l 1
 314 252 354 163 503 163 c 0
 625 163 689 275 689 519 c 2
 689 770 l 1
 647 703 567 656 446 656 c 0
 172 656 90 848 90 1134 c 0
 90 1436 205 1674 501 1674 c 0
 788 1674 909 1434 909 1131 c 2
 909 573 l 2
 909 252 815 -18 502 -18 c 0
501 822 m 0
 598 822 656 879 689 935 c 1
 689 1182 l 2
 689 1352 645 1494 501 1494 c 0
 356 1494 311 1350 311 1187 c 0
 311 990 315 822 501 822 c 0
EndSplineSet
EndChar

StartChar: notequal
Encoding: 485 8800 357
Width: 854
VWidth: 0
Flags: W
HStem: 0 21G<116 310.42> 572 166<110 270 504 739> 934 167<110 368 602 739> 1638 20G<557.578 753>
VStem: 116 637
CounterMasks: 1 e0
LayerCount: 2
UndoRedoHistory
Layer: 1
Undoes
EndUndoes
Redoes
EndRedoes
EndUndoRedoHistory
Fore
SplineSet
116 0 m 1
 270 572 l 1
 110 572 l 1
 110 738 l 1
 314 738 l 1
 368 934 l 1
 110 934 l 1
 110 1101 l 1
 412 1101 l 1
 563 1658 l 1
 753 1658 l 1
 602 1101 l 1
 739 1101 l 1
 739 934 l 1
 557 934 l 1
 504 738 l 1
 739 738 l 1
 739 572 l 1
 460 572 l 1
 305 0 l 1
 116 0 l 1
EndSplineSet
EndChar

StartChar: numbersign
Encoding: 35 35 359
Width: 995
VWidth: 0
Flags: W
HStem: 0 21G<70 290.867 470 691.867> 593 164<65 153 396 555 797 928> 957 165<70 207 449 609 850 933> 1638 20G<305.09 527 707.09 928>
CounterMasks: 1 e0
LayerCount: 2
UndoRedoHistory
Layer: 1
Undoes
EndUndoes
Redoes
EndRedoes
EndUndoRedoHistory
Fore
SplineSet
70 0 m 1
 153 593 l 1
 65 593 l 1
 65 757 l 1
 178 757 l 1
 207 957 l 1
 70 957 l 1
 70 1122 l 1
 230 1122 l 1
 308 1658 l 1
 527 1658 l 1
 449 1122 l 1
 632 1122 l 1
 710 1658 l 1
 928 1658 l 1
 850 1122 l 1
 933 1122 l 1
 933 957 l 1
 828 957 l 1
 797 757 l 1
 928 757 l 1
 928 593 l 1
 774 593 l 1
 689 0 l 1
 470 0 l 1
 555 593 l 1
 373 593 l 1
 288 0 l 1
 70 0 l 1
396 757 m 1
 579 757 l 1
 609 957 l 1
 426 957 l 1
 396 757 l 1
EndSplineSet
EndChar

StartChar: o
Encoding: 111 111 360
Width: 868
VWidth: 0
Flags: W
HStem: -17 162<342.397 525.091> 1039 161<342.397 525.091>
VStem: 89 219<182.007 1000.99> 559 220<182.007 1000.99>
AnchorPoint: "ogonek" 421 0 basechar 0
LayerCount: 2
UndoRedoHistory
Layer: 1
Undoes
EndUndoes
Redoes
EndRedoes
EndUndoRedoHistory
Fore
SplineSet
434 145 m 0
 559 145 559 273 559 406 c 2
 559 777 l 2
 559 910 559 1039 434 1039 c 0
 308 1039 308 910 308 777 c 2
 308 406 l 2
 308 273 308 145 434 145 c 0
434 -17 m 0
 171 -17 89 153 89 420 c 2
 89 763 l 2
 89 1030 171 1200 434 1200 c 0
 696 1200 779 1030 779 763 c 2
 779 420 l 2
 779 153 696 -17 434 -17 c 0
EndSplineSet
EndChar

StartChar: oe
Encoding: 487 339 365
Width: 1402
VWidth: 0
Flags: W
HStem: -17 180<371.427 556.703> 596 111<812 1068> 1022 178<371.427 556.533 855.284 1024.32>
VStem: 116 220<197.704 985.296> 592 220<211.833 596 707 978.372> 1068 219<183.582 412 707 977.172>
LayerCount: 2
UndoRedoHistory
Layer: 1
Undoes
EndUndoes
Redoes
EndRedoes
EndUndoRedoHistory
Fore
SplineSet
463 -17 m 0
 200 -17 116 150 116 416 c 2
 116 767 l 2
 116 1033 200 1200 463 1200 c 0
 587 1200 662 1143 702 1060 c 1
 742 1148 829 1200 949 1200 c 0
 1230 1200 1287 1019 1287 696 c 1
 1286 596 l 1
 812 596 l 1
 812 523 l 2
 812 366 806 171 940 163 c 0
 1030 158 1068 201 1068 332 c 2
 1068 412 l 1
 1287 412 l 1
 1287 333 l 2
 1287 91 1179 -25 940 -17 c 0
 819 -13 742 38 702 126 c 1
 664 40 587 -17 463 -17 c 0
463 163 m 0
 589 163 592 284 592 416 c 2
 592 767 l 2
 592 900 589 1022 463 1022 c 0
 338 1022 336 900 336 767 c 2
 336 416 l 2
 336 284 338 163 463 163 c 0
812 707 m 1
 1068 707 l 1
 1068 743 l 2
 1068 875 1061 1022 941 1022 c 0
 826 1022 812 883 812 744 c 2
 812 707 l 1
EndSplineSet
EndChar

StartChar: ogonek
Encoding: 488 731 366
Width: 490
VWidth: 0
Flags: W
HStem: -466 111<146.85 330>
VStem: -26 165<-344.674 -160.596>
AnchorPoint: "ogonek" 271 0 mark 0
LayerCount: 2
UndoRedoHistory
Layer: 1
Undoes
EndUndoes
Redoes
EndRedoes
EndUndoRedoHistory
Fore
SplineSet
330 -466 m 1
 120 -466 -26 -453 -26 -290 c 0
 -26 -157 95 -26 200 7 c 1
 312 7 l 1
 252 -66 139 -185 139 -285 c 0
 139 -377 287 -355 369 -355 c 1
 330 -466 l 1
EndSplineSet
EndChar

StartChar: one
Encoding: 49 49 370
Width: 957
VWidth: 0
Flags: W
HStem: 0 21G<455 674> 1638 20G<466 674>
VStem: 455 219<0 1373>
LayerCount: 2
UndoRedoHistory
Layer: 1
Undoes
EndUndoes
Redoes
EndRedoes
EndUndoRedoHistory
Fore
SplineSet
455 0 m 1
 455 1373 l 1
 448 1364 171 1313 166 1312 c 1
 166 1478 l 1
 260 1502 424 1549 508 1658 c 1
 674 1658 l 1
 674 0 l 1
 455 0 l 1
EndSplineSet
EndChar

StartChar: onehalf
Encoding: 189 189 371
Width: 1649
VWidth: 0
Flags: W
HStem: 2 113<1206 1507> 736 113<1214.58 1335.61> 1638 20G<321.5 409 946.486 1137>
VStem: 244 165<798 1385> 1039 165<607 728.535> 1345 166<469.922 729.697>
LayerCount: 2
UndoRedoHistory
Layer: 1
Undoes
EndUndoes
Redoes
EndRedoes
EndUndoRedoHistory
Fore
SplineSet
1038 2 m 1
 1038 114 l 1
 1226 369 l 2
 1277 438 1345 507 1345 610 c 0
 1345 677 1340 736 1275 736 c 0
 1208 736 1204 676 1204 607 c 1
 1039 607 l 1
 1039 612 1039 617 1039 622 c 0
 1044 766 1127 849 1275 849 c 0
 1425 849 1511 761 1511 611 c 0
 1511 485 1425 375 1338 275 c 0
 1299 231 1234 152 1206 115 c 1
 1507 115 l 1
 1507 2 l 1
 1038 2 l 1
244 798 m 1
 244 1385 l 1
 120 1374 l 1
 120 1488 l 1
 211 1533 293 1588 350 1658 c 1
 409 1658 l 1
 409 798 l 1
 244 798 l 1
413 0 m 1
 953 1658 l 1
 1137 1658 l 1
 596 0 l 1
 413 0 l 1
EndSplineSet
EndChar

StartChar: onequarter
Encoding: 188 188 372
Width: 1649
VWidth: 0
Flags: W
HStem: 0 21G<405 594.526 1255 1422> 244 113<1089 1255 1422 1541> 1638 20G<320 407 938.486 1129>
VStem: 241 166<798 1385> 1255 167<0 244 357 681>
LayerCount: 2
UndoRedoHistory
Layer: 1
Undoes
EndUndoes
Redoes
EndRedoes
EndUndoRedoHistory
Fore
SplineSet
1255 0 m 1
 1255 244 l 1
 957 244 l 1
 957 357 l 1
 1271 912 l 1
 1422 912 l 1
 1422 357 l 1
 1541 357 l 1
 1541 244 l 1
 1422 244 l 1
 1422 0 l 1
 1255 0 l 1
241 798 m 1
 241 1385 l 1
 119 1374 l 1
 119 1488 l 1
 209 1533 291 1588 349 1658 c 1
 407 1658 l 1
 407 798 l 1
 241 798 l 1
405 0 m 1
 945 1658 l 1
 1129 1658 l 1
 588 0 l 1
 405 0 l 1
1089 357 m 1
 1255 357 l 1
 1255 681 l 1
 1089 357 l 1
EndSplineSet
EndChar

StartChar: uni00B9
Encoding: 185 185 373
Width: 867
VWidth: 0
Flags: W
HStem: 1553 121<200 331.423>
VStem: 411 161<627 1597>
LayerCount: 2
UndoRedoHistory
Layer: 1
Undoes
EndUndoes
Redoes
EndRedoes
EndUndoRedoHistory
Fore
SplineSet
411 627 m 1
 410 1597 l 1
 405 1590 206 1554 200 1553 c 1
 200 1674 l 1
 269 1692 387 1723 449 1804 c 1
 570 1804 l 1
 572 627 l 1
 411 627 l 1
EndSplineSet
EndChar

StartChar: ordfeminine
Encoding: 170 170 374
Width: 908
VWidth: 0
Flags: W
HStem: 658 167<304.169 498.294> 1525 158<398.847 541.304>
VStem: 157 195<835.745 1041.52> 190 180<1345 1498.22> 565 193<859.809 1154 1227 1507.13> 582 176<670 800>
LayerCount: 2
UndoRedoHistory
Layer: 1
Undoes
EndUndoes
Redoes
EndRedoes
EndUndoRedoHistory
Fore
SplineSet
365 658 m 0xc4
 244 658 157 753 157 884 c 0xe4
 157 1115 366 1170 565 1240 c 1
 565 1348 l 2
 565 1447 550 1525 477 1525 c 0
 397 1525 370 1446 370 1345 c 1
 190 1345 l 1
 194 1547 296 1683 479 1683 c 0
 705 1683 758 1539 758 1287 c 2xd8
 758 670 l 1
 582 670 l 1
 581 800 l 1
 541 720 462 658 365 658 c 0xc4
436 825 m 0
 494 825 543 872 565 921 c 1
 565 1154 l 1xe8
 456 1095 352 1042 352 930 c 0
 352 863 386 825 436 825 c 0
EndSplineSet
EndChar

StartChar: ordmasculine
Encoding: 186 186 375
Width: 908
VWidth: 0
Flags: W
HStem: 655 161<358.34 543.912> 1522 161<353.971 543.976>
VStem: 137 182<851.819 1486.97> 578 193<848.051 1491.16>
LayerCount: 2
UndoRedoHistory
Layer: 1
Undoes
EndUndoes
Redoes
EndRedoes
EndUndoRedoHistory
Fore
SplineSet
454 655 m 0
 214 655 137 802 137 1035 c 2
 137 1304 l 2
 137 1537 215 1683 454 1683 c 0
 682 1683 771 1528 771 1304 c 2
 771 1035 l 2
 771 812 683 655 454 655 c 0
450 816 m 0
 575 816 578 930 578 1059 c 2
 578 1280 l 2
 578 1409 576 1522 450 1522 c 0
 327 1522 319 1408 319 1280 c 2
 319 1059 l 2
 319 931 327 816 450 816 c 0
EndSplineSet
EndChar

StartChar: oslash
Encoding: 248 248 376
Width: 868
VWidth: 0
Flags: W
HStem: -17 162<342.397 525.091> 1039 161<342.397 525.091>
VStem: 89 219<182.007 1000.99> 559 220<182.007 1000.99>
LayerCount: 2
UndoRedoHistory
Layer: 1
Undoes
EndUndoes
Redoes
EndRedoes
EndUndoRedoHistory
Fore
SplineSet
196 -195 m 1
 131 -173 l 1
 676 1368 l 1
 752 1343 l 1
 196 -195 l 1
EndSplineSet
Refer: 360 111 N 1 0 0 1 0 0 2
EndChar

StartChar: p
Encoding: 112 112 378
Width: 914
VWidth: 0
Flags: W
HStem: -390 21G<111 330> -17 173<399.24 566.173> 1028 172<405.624 566.415> 1164 20G<111 330>
VStem: 111 219<-390 88 181.992 997.88 1089 1184> 606 219<194.802 985.843>
LayerCount: 2
UndoRedoHistory
Layer: 1
Undoes
EndUndoes
Redoes
EndRedoes
EndUndoRedoHistory
Fore
SplineSet
111 -390 m 1xec
 111 1184 l 1
 330 1184 l 1xdc
 330 1089 l 1
 381 1149 454 1200 555 1200 c 0
 802 1200 825 897 825 755 c 2
 825 469 l 2
 825 217 764 -17 531 -17 c 0
 447 -17 380 33 330 88 c 1
 330 -390 l 1
 111 -390 l 1xec
487 156 m 0
 600 156 606 294 606 468 c 2
 606 755 l 2
 606 904 592 1028 479 1028 c 0xec
 421 1028 369 999 330 967 c 1
 330 208 l 1
 370 179 422 156 487 156 c 0
EndSplineSet
EndChar

StartChar: paragraph
Encoding: 182 182 379
Width: 1007
VWidth: 0
Flags: W
HStem: 1554 104<563 721>
VStem: 66 497<1192.65 1523.89> 407 156<-196 1055> 721 157<-196 1554>
LayerCount: 2
UndoRedoHistory
Layer: 1
Undoes
EndUndoes
Redoes
EndRedoes
EndUndoRedoHistory
Fore
SplineSet
407 -196 m 1xb0
 407 1055 l 1xb0
 207 1055 66 1160 66 1355 c 0xd0
 66 1563 208 1658 440 1658 c 2
 878 1658 l 1
 878 -196 l 1
 721 -196 l 1
 721 1554 l 1
 563 1554 l 1
 563 -196 l 1
 407 -196 l 1xb0
EndSplineSet
EndChar

StartChar: parenleft
Encoding: 40 40 380
Width: 610
VWidth: 0
Flags: W
HStem: -397 146<465.923 549> 1526 147<466.276 549>
VStem: 150 210<95.0304 1178.09>
LayerCount: 2
UndoRedoHistory
Layer: 1
Undoes
EndUndoes
Redoes
EndRedoes
EndUndoRedoHistory
Fore
SplineSet
549 -397 m 1
 157 -393 150 135 150 636 c 0
 150 1139 157 1671 549 1673 c 1
 549 1526 l 1
 357 1522 360 1057 360 636 c 0
 360 211 356 -247 549 -251 c 1
 549 -397 l 1
EndSplineSet
EndChar

StartChar: parenright
Encoding: 41 41 381
Width: 532
VWidth: 0
Flags: W
HStem: -397 147<60 143.156> 1527 146<60 143.51>
VStem: 250 210<98.3983 1181.45>
LayerCount: 2
UndoRedoHistory
Layer: 1
Undoes
EndUndoes
Redoes
EndRedoes
EndUndoRedoHistory
Fore
SplineSet
60 -397 m 1
 60 -250 l 1
 253 -246 250 219 250 640 c 0
 250 1065 254 1523 60 1527 c 1
 60 1673 l 1
 453 1671 460 1142 460 640 c 0
 460 138 453 -393 60 -397 c 1
EndSplineSet
EndChar

StartChar: partialdiff
Encoding: 491 8706 382
Width: 977
VWidth: 0
Flags: W
HStem: -25 163<330.398 586.053> 959 166<372.977 640.199> 1539 140<343 501.446>
VStem: 79 195<194.25 538.958> 746 164<889.094 1325.92>
CounterMasks: 1 e0
LayerCount: 2
UndoRedoHistory
Layer: 1
Undoes
EndUndoes
Redoes
EndRedoes
EndUndoRedoHistory
Fore
SplineSet
445 -25 m 0
 252 -25 79 93 79 353 c 0
 79 372 79 392 81 412 c 2
 113 775 l 1
 131 991 260 1125 463 1125 c 0
 603 1125 697 1049 737 1012 c 1
 742 1047 746 1100 746 1131 c 0
 746 1416 548 1517 302 1539 c 1
 343 1679 l 1
 565 1679 910 1595 910 1071 c 0
 910 1040 866 507 866 507 c 1
 824 33 640 -25 445 -25 c 0
456 138 m 0
 567 138 637 174 665 424 c 1
 714 881 l 1
 631 932 556 959 492 959 c 0
 377 959 318 883 307 742 c 1
 275 383 l 2
 274 368 274 355 274 342 c 0
 274 220 330 138 456 138 c 0
EndSplineSet
EndChar

StartChar: percent
Encoding: 37 37 383
Width: 1825
VWidth: 0
Flags: W
HStem: -10 165<1342.1 1518.88> 716 167<1339.07 1520.6> 779 165<307.098 484.09> 1505 167<304.225 486.03>
VStem: 74 200<977.65 1477.61> 518 199<980.378 1478.32> 1109 200<188.65 688.611> 1552 199<191.378 688.516>
LayerCount: 2
UndoRedoHistory
Layer: 1
Undoes
EndUndoes
Redoes
EndRedoes
EndUndoRedoHistory
Fore
SplineSet
395 944 m 0xbf
 500 944 518 1047 518 1157 c 2
 518 1303 l 2
 518 1415 502 1505 395 1505 c 0
 288 1505 274 1412 274 1301 c 2
 274 1155 l 2
 274 1045 293 944 395 944 c 0xbf
395 779 m 0
 167 779 74 927 74 1163 c 2
 74 1292 l 2
 74 1534 162 1672 395 1672 c 0
 627 1672 717 1542 717 1303 c 2
 717 1157 l 2
 717 919 624 779 395 779 c 0
1430 155 m 0
 1535 155 1552 258 1552 367 c 2
 1552 514 l 2
 1552 626 1536 716 1430 716 c 0xdf
 1323 716 1309 623 1309 512 c 2
 1309 366 l 2
 1309 256 1328 155 1430 155 c 0
1430 -10 m 0
 1202 -10 1109 138 1109 374 c 2
 1109 503 l 2
 1109 744 1196 883 1430 883 c 0
 1662 883 1751 752 1751 513 c 2
 1751 368 l 2
 1751 130 1659 -10 1430 -10 c 0
592 0 m 1
 1048 1661 l 1
 1237 1661 l 1
 782 0 l 1
 592 0 l 1
EndSplineSet
EndChar

StartChar: period
Encoding: 46 46 384
Width: 386
VWidth: 0
Flags: W
HStem: 0 243<100 320>
VStem: 100 220<0 243>
LayerCount: 2
UndoRedoHistory
Layer: 1
Undoes
EndUndoes
Redoes
EndRedoes
EndUndoRedoHistory
Fore
SplineSet
100 0 m 1
 100 243 l 1
 320 243 l 1
 320 0 l 1
 100 0 l 1
EndSplineSet
EndChar

StartChar: periodcentered
Encoding: 183 183 385
Width: 360
VWidth: 0
Flags: W
HStem: 659 225<74 294>
VStem: 74 220<659 884>
LayerCount: 2
UndoRedoHistory
Layer: 1
Undoes
EndUndoes
Redoes
EndRedoes
EndUndoRedoHistory
Fore
SplineSet
74 659 m 1
 74 884 l 1
 294 884 l 1
 294 659 l 1
 74 659 l 1
EndSplineSet
EndChar

StartChar: perthousand
Encoding: 492 8240 386
Width: 2581
VWidth: 0
Flags: W
HStem: -10 165<1344.1 1520.88 2095.89 2272.67> 716 167<1341.07 1522.6 2092.64 2274.6> 779 165<309.098 486.09> 1505 167<306.225 488.03>
VStem: 76 200<977.65 1477.61> 520 199<980.378 1478.32> 1111 200<188.65 688.611> 1554 199<191.378 688.516> 1862 200<188.438 688.394> 2306 199<191.185 688.516>
CounterMasks: 1 03c0
LayerCount: 2
UndoRedoHistory
Layer: 1
Undoes
EndUndoes
Redoes
EndRedoes
EndUndoRedoHistory
Fore
SplineSet
397 944 m 0xbfc0
 502 944 520 1047 520 1157 c 2
 520 1303 l 2
 520 1415 504 1505 397 1505 c 0
 290 1505 276 1412 276 1301 c 2
 276 1155 l 2
 276 1045 295 944 397 944 c 0xbfc0
397 779 m 0
 169 779 76 927 76 1163 c 2
 76 1292 l 2
 76 1534 164 1672 397 1672 c 0
 629 1672 719 1542 719 1303 c 2
 719 1157 l 2
 719 919 626 779 397 779 c 0
1432 155 m 0
 1537 155 1554 258 1554 367 c 2
 1554 514 l 2
 1554 626 1538 716 1432 716 c 0xdfc0
 1325 716 1311 623 1311 512 c 2
 1311 366 l 2
 1311 256 1330 155 1432 155 c 0
1432 -10 m 0
 1204 -10 1111 138 1111 374 c 2
 1111 503 l 2
 1111 744 1198 883 1432 883 c 0
 1664 883 1753 752 1753 513 c 2
 1753 368 l 2
 1753 130 1661 -10 1432 -10 c 0
2184 155 m 0
 2288 155 2306 257 2306 367 c 2
 2306 514 l 2
 2306 626 2290 716 2184 716 c 0
 2076 716 2062 622 2062 512 c 2
 2062 365 l 2
 2062 256 2082 155 2184 155 c 0
2184 -11 m 0
 1956 -11 1862 138 1862 374 c 2
 1862 502 l 2
 1862 744 1950 883 2184 883 c 0
 2416 883 2505 752 2505 513 c 2
 2505 368 l 2
 2505 130 2413 -11 2184 -11 c 0
594 0 m 1
 1050 1661 l 1
 1239 1661 l 1
 784 0 l 1
 594 0 l 1
EndSplineSet
EndChar

StartChar: pi
Encoding: 493 960 387
Width: 1079
VWidth: 0
Flags: W
HStem: -18 169<870.179 975> 0 21G<169 388> 1019 165<35 169 388 619 838 1000>
VStem: 169 219<0 1019> 619 219<175.152 1019>
LayerCount: 2
UndoRedoHistory
Layer: 1
Undoes
EndUndoes
Redoes
EndRedoes
EndUndoRedoHistory
Fore
SplineSet
388 1019 m 1xb8
 388 0 l 1
 169 0 l 1x78
 169 1019 l 1
 35 1019 l 1
 35 1184 l 1
 1000 1184 l 1
 1000 1019 l 1
 838 1019 l 1
 838 360 l 2
 838 185 868 151 989 151 c 1
 975 -18 l 1
 700 -18 619 81 619 288 c 2
 619 1019 l 1
 388 1019 l 1xb8
EndSplineSet
EndChar

StartChar: plus
Encoding: 43 43 388
Width: 850
VWidth: 0
Flags: W
HStem: 769 165<51 338 502 799>
VStem: 338 164<434 769 934 1268>
LayerCount: 2
UndoRedoHistory
Layer: 1
Undoes
EndUndoes
Redoes
EndRedoes
EndUndoRedoHistory
Fore
SplineSet
338 434 m 1
 338 769 l 1
 51 769 l 1
 51 934 l 1
 338 934 l 1
 338 1268 l 1
 502 1268 l 1
 502 934 l 1
 799 934 l 1
 799 769 l 1
 502 769 l 1
 502 434 l 1
 338 434 l 1
EndSplineSet
EndChar

StartChar: plusminus
Encoding: 177 177 389
Width: 754
VWidth: 0
Flags: W
HStem: 0 167<116 641> 537 167<116 295 462 641>
VStem: 116 525<0 167 537 704> 295 167<358 537 704 883>
LayerCount: 2
UndoRedoHistory
Layer: 1
Undoes
EndUndoes
Redoes
EndRedoes
EndUndoRedoHistory
Fore
SplineSet
295 358 m 1xd0
 295 537 l 1xd0
 116 537 l 1
 116 704 l 1xe0
 295 704 l 1
 295 883 l 1
 462 883 l 1
 462 704 l 1xd0
 641 704 l 1
 641 537 l 1xe0
 462 537 l 1
 462 358 l 1
 295 358 l 1xd0
116 0 m 1xe0
 116 167 l 1
 641 167 l 1
 641 0 l 1
 116 0 l 1xe0
EndSplineSet
EndChar

StartChar: product
Encoding: 494 8719 390
Width: 1142
VWidth: 0
Flags: W
HStem: -390 21G<130 349 792 1013> 1493 165<349 792>
VStem: 130 219<-390 1493> 792 221<-390 1493>
LayerCount: 2
UndoRedoHistory
Layer: 1
Undoes
EndUndoes
Redoes
EndRedoes
EndUndoRedoHistory
Fore
SplineSet
130 -390 m 1
 130 1658 l 1
 1013 1658 l 1
 1013 -390 l 1
 792 -390 l 1
 792 1493 l 1
 349 1493 l 1
 349 -390 l 1
 130 -390 l 1
EndSplineSet
EndChar

StartChar: q
Encoding: 113 113 391
Width: 907
VWidth: 0
Flags: W
HStem: -390 21G<578 796> -17 173<351.604 521.112> 1028 172<355.678 519.814> 1164 20G<578 796>
VStem: 91 219<197.473 983.464> 578 218<-390 76 176.945 1002.64 1108 1184>
LayerCount: 2
UndoRedoHistory
Layer: 1
Undoes
EndUndoes
Redoes
EndRedoes
EndUndoRedoHistory
Fore
SplineSet
578 -390 m 1xdc
 578 76 l 1
 527 21 464 -17 388 -17 c 0
 186 -18 91 114 91 465 c 2
 91 695 l 2
 91 965 139 1200 381 1200 c 0xec
 461 1200 527 1159 578 1108 c 1
 578 1184 l 1
 796 1184 l 1
 796 -390 l 1
 578 -390 l 1xdc
443 156 m 0
 484 156 532 171 578 200 c 1
 578 976 l 1
 538 1004 491 1028 439 1028 c 0
 335 1028 310 915 310 781 c 2
 310 446 l 2
 310 280 325 156 443 156 c 0
EndSplineSet
EndChar

StartChar: question
Encoding: 63 63 392
Width: 997
VWidth: 0
Flags: W
HStem: 0 225<322 541> 1488 192<369.922 622.458>
VStem: 120 207<1211.15 1445.32> 322 219<0 225 415 669.836> 699 214<1062.8 1405.68>
LayerCount: 2
UndoRedoHistory
Layer: 1
Undoes
EndUndoes
Redoes
EndRedoes
EndUndoRedoHistory
Fore
SplineSet
331 415 m 1xe8
 331 670 l 1
 524 840 699 1021 699 1259 c 0
 699 1393 618 1488 496 1488 c 0
 368 1488 308 1405 327 1285 c 1
 337 1212 l 1
 134 1174 l 1
 120 1244 l 1
 68 1513 236 1680 498 1680 c 0
 760 1680 913 1524 913 1253 c 0
 913 976 730 816 527 614 c 1
 527 415 l 1
 331 415 l 1xe8
322 0 m 1xd8
 322 225 l 1
 541 225 l 1
 541 0 l 1
 322 0 l 1xd8
EndSplineSet
EndChar

StartChar: questiondown
Encoding: 191 191 393
Width: 1041
VWidth: 0
Flags: W
HStem: -393 192<426.114 678.318> 1062 225<507 727>
VStem: 135 215<-118.87 229.516> 507 220<1062 1287> 522 195<634.754 872> 711 204<-167.908 77.6704>
LayerCount: 2
UndoRedoHistory
Layer: 1
Undoes
EndUndoes
Redoes
EndRedoes
EndUndoRedoHistory
Fore
SplineSet
550 -393 m 0xe4
 289 -393 135 -238 135 34 c 0
 135 311 318 471 522 672 c 1
 522 872 l 1
 717 872 l 1
 717 617 l 1xe8
 524 447 350 266 350 28 c 0
 350 -106 431 -201 552 -201 c 0
 680 -201 741 -118 722 1 c 1
 711 75 l 1
 915 113 l 1
 928 43 l 1
 981 -226 812 -393 550 -393 c 0xe4
507 1062 m 1xf0
 507 1287 l 1
 727 1287 l 1
 727 1062 l 1
 507 1062 l 1xf0
EndSplineSet
EndChar

StartChar: quotedbl
Encoding: 34 34 394
Width: 778
VWidth: 0
Flags: W
HStem: 1150 508<175 293 480 598>
VStem: 175 197<1565.81 1658> 175 118<1150 1242.19> 480 197<1565.81 1658> 480 118<1150 1242.19>
LayerCount: 2
UndoRedoHistory
Layer: 1
Undoes
EndUndoes
Redoes
EndRedoes
EndUndoRedoHistory
Fore
SplineSet
175 1150 m 1xa0
 175 1658 l 1
 372 1658 l 1xc0
 293 1150 l 1
 175 1150 l 1xa0
480 1150 m 1x88
 480 1658 l 1
 677 1658 l 1x90
 598 1150 l 1
 480 1150 l 1x88
EndSplineSet
EndChar

StartChar: quotedblbase
Encoding: 495 8222 395
Width: 941
VWidth: 0
Flags: W
HStem: -268 81<232 265.6 650 683.799> 43 230<195 304 614 722>
VStem: 195 240<45.7643 273> 304 131<-156.621 43> 614 239<43 273> 722 131<-156.621 43>
LayerCount: 2
UndoRedoHistory
Layer: 1
Undoes
EndUndoes
Redoes
EndRedoes
EndUndoRedoHistory
Fore
SplineSet
232 -268 m 1xe0
 194 -187 l 1
 278 -180 304 -113 304 43 c 1xd0
 195 43 l 1
 195 273 l 1
 435 273 l 1
 435 75 l 2
 435 -137 383 -262 232 -268 c 1xe0
650 -268 m 1
 612 -187 l 1
 696 -180 722 -113 722 43 c 1xc4
 614 43 l 1
 614 273 l 1
 853 273 l 1
 853 75 l 2xc8
 853 -137 802 -262 650 -268 c 1
EndSplineSet
EndChar

StartChar: quotedblleft
Encoding: 496 8220 396
Width: 931
VWidth: 0
Flags: W
HStem: 1186 230<238 346 656 764> 1646 81<276.4 310 694.4 728>
VStem: 107 239<1186 1413.23> 107 131<1416 1615.28> 525 239<1186 1413.23> 525 131<1416 1615.28>
LayerCount: 2
UndoRedoHistory
Layer: 1
Undoes
EndUndoes
Redoes
EndRedoes
EndUndoRedoHistory
Fore
SplineSet
107 1186 m 1xe0
 107 1384 l 2xe0
 107 1596 159 1720 310 1727 c 1
 348 1646 l 1
 264 1639 238 1571 238 1416 c 1xd0
 346 1416 l 1
 346 1186 l 1
 107 1186 l 1xe0
525 1186 m 1xc8
 525 1384 l 2xc8
 525 1596 577 1720 728 1727 c 1
 766 1646 l 1
 682 1639 656 1571 656 1416 c 1xc4
 764 1416 l 1
 764 1186 l 1
 525 1186 l 1xc8
EndSplineSet
EndChar

StartChar: quotedblright
Encoding: 497 8221 397
Width: 970
VWidth: 0
Flags: W
HStem: 1117 80<246 279.799 612 645.583> 1427 230<210 318 575 683>
VStem: 210 239<1429.77 1657> 318 131<1227.81 1427> 575 239<1429.77 1657> 683 131<1227.81 1427>
LayerCount: 2
UndoRedoHistory
Layer: 1
Undoes
EndUndoes
Redoes
EndRedoes
EndUndoRedoHistory
Fore
SplineSet
246 1117 m 1xe0
 208 1197 l 1
 292 1204 318 1272 318 1427 c 1xd0
 210 1427 l 1
 210 1657 l 1
 449 1657 l 1
 449 1459 l 2
 449 1247 398 1123 246 1117 c 1xe0
612 1117 m 1
 574 1197 l 1
 658 1204 683 1272 683 1427 c 1xc4
 575 1427 l 1
 575 1657 l 1
 814 1657 l 1
 814 1459 l 2xc8
 814 1247 763 1123 612 1117 c 1
EndSplineSet
EndChar

StartChar: quoteleft
Encoding: 498 8216 398
Width: 779
VWidth: 0
Flags: W
HStem: 1186 230<234 343> 1646 81<272.4 306>
VStem: 103 240<1186 1413.23> 103 131<1416 1615.28>
LayerCount: 2
UndoRedoHistory
Layer: 1
Undoes
EndUndoes
Redoes
EndRedoes
EndUndoRedoHistory
Fore
SplineSet
103 1186 m 1xe0
 103 1384 l 2xe0
 103 1596 155 1720 306 1727 c 1
 344 1646 l 1
 260 1639 234 1571 234 1416 c 1xd0
 343 1416 l 1
 343 1186 l 1
 103 1186 l 1xe0
EndSplineSet
EndChar

StartChar: quoteright
Encoding: 499 8217 399
Width: 426
VWidth: 0
Flags: W
HStem: 1117 81<159 192.6> 1428 230<122 231>
VStem: 122 240<1430.77 1658> 231 131<1228.72 1428>
LayerCount: 2
UndoRedoHistory
Layer: 1
Undoes
EndUndoes
Redoes
EndRedoes
EndUndoRedoHistory
Fore
SplineSet
159 1117 m 1xe0
 121 1198 l 1
 205 1205 231 1273 231 1428 c 1xd0
 122 1428 l 1
 122 1658 l 1
 362 1658 l 1
 362 1460 l 2
 362 1248 310 1124 159 1117 c 1xe0
EndSplineSet
EndChar

StartChar: quotesinglbase
Encoding: 500 8218 400
Width: 572
VWidth: 0
Flags: W
HStem: -269 81<244 277.799> 42 229<208 316>
VStem: 208 239<43.8984 271> 316 131<-157.785 42>
LayerCount: 2
UndoRedoHistory
Layer: 1
Undoes
EndUndoes
Redoes
EndRedoes
EndUndoRedoHistory
Fore
SplineSet
244 -269 m 1xe0
 206 -188 l 1
 290 -182 316 -114 316 42 c 1xd0
 208 42 l 1
 208 271 l 1
 447 271 l 1
 447 73 l 2
 447 -138 396 -263 244 -269 c 1xe0
EndSplineSet
EndChar

StartChar: quotesingle
Encoding: 39 39 401
Width: 750
VWidth: 0
Flags: W
HStem: 1150 508<175 293>
VStem: 175 197<1565.81 1658> 175 118<1150 1242.19>
LayerCount: 2
UndoRedoHistory
Layer: 1
Undoes
EndUndoes
Redoes
EndRedoes
EndUndoRedoHistory
Fore
SplineSet
175 1150 m 1xa0
 175 1658 l 1
 372 1658 l 1xc0
 293 1150 l 1
 175 1150 l 1xa0
EndSplineSet
EndChar

StartChar: r
Encoding: 114 114 402
Width: 658
VWidth: 0
Flags: W
HStem: 0 21G<116 335> 978 221<456.584 631.872> 1164 20G<116 335>
VStem: 116 219<0 923.361 1015 1184>
LayerCount: 2
UndoRedoHistory
Layer: 1
Undoes
EndUndoes
Redoes
EndRedoes
EndUndoRedoHistory
Fore
SplineSet
116 0 m 1xd0
 116 1184 l 1
 335 1184 l 1xb0
 335 1015 l 1
 422 1160 509 1199 597 1199 c 0
 608 1199 617 1199 633 1197 c 1
 633 955 l 1
 601 967 555 978 513 978 c 0
 445 978 391 955 335 865 c 1
 335 0 l 1
 116 0 l 1xd0
EndSplineSet
EndChar

StartChar: radical
Encoding: 502 8730 404
Width: 1046
VWidth: 0
Flags: W
HStem: 0 21G<436.64 667.306> 1053 131<-6 211> 1638 20G<801 1020>
LayerCount: 2
UndoRedoHistory
Layer: 1
Undoes
EndUndoes
Redoes
EndRedoes
EndUndoRedoHistory
Fore
SplineSet
441 0 m 1
 211 1055 l 1
 -6 1053 l 1
 -6 1184 l 1
 392 1184 l 1
 396 1166 481 720 486 702 c 0
 490 684 549 338 553 320 c 1
 559 346 621 700 627 726 c 0
 633 752 798 1632 804 1658 c 1
 1020 1658 l 1
 663 0 l 1
 441 0 l 1
EndSplineSet
EndChar

StartChar: registered
Encoding: 174 174 407
Width: 1818
VWidth: 0
Flags: W
HStem: -27 103<654.381 1163.84> 763 104<789 914> 1253 127<789 1021.46> 1580 106<643.364 1163.51>
VStem: 94 117<546.663 1112.74> 598 191<294 763 867 1253> 1068 196<911.477 1213.36> 1605 119<546.25 1112.74>
CounterMasks: 2 b0 0f
LayerCount: 2
UndoRedoHistory
Layer: 1
Undoes
EndUndoes
Redoes
EndRedoes
EndUndoRedoHistory
Fore
SplineSet
598 294 m 1
 598 1380 l 1
 918 1380 l 2
 1160 1380 1264 1267 1264 1064 c 0
 1264 927 1197 847 1090 802 c 1
 1286 294 l 1
 1087 294 l 1
 914 763 l 1
 789 763 l 1
 789 294 l 1
 598 294 l 1
789 867 m 1
 857 867 l 2
 1023 867 1068 920 1068 1069 c 0
 1068 1186 1026 1253 902 1253 c 2
 789 1253 l 1
 789 867 l 1
909 76 m 0
 1392 76 1605 452 1605 829 c 0
 1605 1208 1392 1580 909 1580 c 0
 422 1580 211 1208 211 829 c 0
 211 452 422 76 909 76 c 0
910 -27 m 0
 330 -27 94 418 94 830 c 0
 94 1243 330 1686 910 1686 c 0
 1489 1686 1724 1243 1724 830 c 0
 1724 416 1491 -27 910 -27 c 0
EndSplineSet
EndChar

StartChar: ring
Encoding: 505 730 408
Width: 591
VWidth: 0
Flags: W
HStem: 1221 111<201.326 390.394> 1568 110<201.537 390.605>
VStem: 68 111<1354.21 1546.07> 413 112<1354.21 1546.07>
LayerCount: 2
UndoRedoHistory
Layer: 1
Undoes
EndUndoes
Redoes
EndRedoes
EndUndoRedoHistory
Fore
SplineSet
296 1221 m 0
 159 1221 68 1311 68 1450 c 0
 68 1590 160 1678 296 1678 c 0
 433 1678 525 1590 525 1450 c 0
 525 1311 432 1221 296 1221 c 0
296 1332 m 0
 367 1332 413 1376 413 1450 c 0
 413 1525 367 1568 296 1568 c 0
 224 1568 179 1525 179 1450 c 0
 179 1376 224 1332 296 1332 c 0
EndSplineSet
EndChar

StartChar: s
Encoding: 115 115 409
Width: 765
VWidth: 0
Flags: W
HStem: -17 162<296.804 494.949> 1039 161<302.279 484.182>
VStem: 51 183<212.455 320.309> 80 196<815.469 1012.12> 539 148<883.672 981.199>
AnchorPoint: "cedilla" 370 0 basechar 0
LayerCount: 2
UndoRedoHistory
Layer: 1
Undoes
EndUndoes
Redoes
EndRedoes
EndUndoRedoHistory
Fore
SplineSet
385 -17 m 0xd8
 190 -17 68 117 51 316 c 1
 234 371 l 1xe8
 251 220 298 145 394 145 c 0
 473 145 528 203 524 281 c 0
 521 333 492 392 428 447 c 2
 226 620 l 2
 144 690 77 771 80 909 c 1
 86 1095 201 1200 386 1200 c 0
 573 1200 672 1060 687 889 c 1
 539 834 l 1
 523 957 487 1039 394 1039 c 0
 321 1039 275 984 276 918 c 0
 276 875 293 835 335 798 c 1
 545 606 l 1
 631 530 713 438 713 286 c 0
 713 84 580 -17 385 -17 c 0xd8
EndSplineSet
EndChar

StartChar: section
Encoding: 167 167 415
Width: 874
VWidth: 0
Flags: W
HStem: -16 180<338.587 548.397> 1495 179<337.32 537.036>
VStem: 87 219<771.616 980.675 1285.77 1466.41> 592 199<705.085 919.494>
LayerCount: 2
UndoRedoHistory
Layer: 1
Undoes
EndUndoes
Redoes
EndRedoes
EndUndoRedoHistory
Fore
SplineSet
438 -16 m 0
 233 -16 128 130 89 297 c 1
 254 352 l 1
 282 269 336 164 439 164 c 0
 519 164 572 203 578 282 c 1
 584 344 562 395 491 447 c 1
 256 600 l 1
 161 660 87 732 87 870 c 0
 87 1008 157 1097 260 1141 c 1
 178 1193 93 1279 93 1397 c 0
 93 1571 233 1674 438 1674 c 0
 643 1674 745 1529 784 1365 c 1
 619 1310 l 1
 590 1387 542 1495 437 1495 c 0
 360 1495 312 1451 312 1370 c 0
 312 1321 349 1280 382 1256 c 1
 648 1084 l 1
 740 1023 792 925 791 802 c 0
 790 675 727 592 641 544 c 1
 714 482 785 408 785 291 c 0
 785 89 643 -16 438 -16 c 0
492 665 m 1
 538 686 591 735 592 802 c 1
 594 849 573 908 518 947 c 1
 404 1025 l 1
 356 999 306 942 306 870 c 0
 306 825 333 781 364 758 c 2
 492 665 l 1
EndSplineSet
EndChar

StartChar: semicolon
Encoding: 59 59 416
Width: 441
VWidth: 0
Flags: W
HStem: -94 96<155 209.307> 140 232<121 238> 913 244<121 341>
VStem: 121 220<140 372 913 1157> 238 110<30.3563 140>
LayerCount: 2
UndoRedoHistory
Layer: 1
Undoes
EndUndoes
Redoes
EndRedoes
EndUndoRedoHistory
Fore
SplineSet
155 -94 m 1xe8
 119 2 l 1
 203 8 238 57 238 140 c 1xe8
 121 140 l 1
 121 372 l 1xf0
 348 372 l 1
 348 144 l 2
 348 -2 296 -88 155 -94 c 1xe8
121 913 m 1xf0
 121 1157 l 1
 341 1157 l 1
 341 913 l 1
 121 913 l 1xf0
EndSplineSet
EndChar

StartChar: seven
Encoding: 55 55 417
Width: 788
VWidth: 0
Flags: W
HStem: 0 21G<200 414.956> 1486 172<56 500>
VStem: 56 662<1486 1658>
LayerCount: 2
UndoRedoHistory
Layer: 1
Undoes
EndUndoes
Redoes
EndRedoes
EndUndoRedoHistory
Fore
SplineSet
200 0 m 1
 500 1486 l 1
 56 1486 l 1
 56 1658 l 1
 718 1658 l 1
 718 1552 l 1
 411 0 l 1
 200 0 l 1
EndSplineSet
EndChar

StartChar: six
Encoding: 54 54 418
Width: 1002
VWidth: 0
Flags: W
HStem: -18 181<406.482 631.505> 836 166<401.092 642.154> 1494 180<409.822 644.69>
VStem: 110 219<254.528 778.022 887 1388.51> 708 221<250.895 764.017 1246 1432.51>
CounterMasks: 1 e0
LayerCount: 2
UndoRedoHistory
Layer: 1
Undoes
EndUndoes
Redoes
EndRedoes
EndUndoRedoHistory
Fore
SplineSet
518 -18 m 0
 231 -18 110 224 110 526 c 2
 110 1085 l 2
 110 1406 205 1674 518 1674 c 0
 777 1674 917 1528 924 1270 c 0
 924 1264 925 1253 925 1246 c 1
 705 1246 l 1
 705 1404 664 1494 519 1494 c 0
 397 1494 329 1382 329 1139 c 2
 329 887 l 1
 372 954 455 1002 572 1002 c 0
 846 1002 929 810 929 523 c 0
 929 222 815 -18 518 -18 c 0
518 163 m 0
 663 163 708 304 708 470 c 0
 708 666 704 836 518 836 c 0
 426 836 362 778 329 722 c 1
 329 475 l 2
 329 305 374 163 518 163 c 0
EndSplineSet
EndChar

StartChar: slash
Encoding: 47 47 419
Width: 756
VWidth: 0
Flags: W
HStem: 0 21G<59 253.404> 1638 20G<500.608 696>
VStem: 59 637
LayerCount: 2
UndoRedoHistory
Layer: 1
Undoes
EndUndoes
Redoes
EndRedoes
EndUndoRedoHistory
Fore
SplineSet
59 0 m 1
 506 1658 l 1
 696 1658 l 1
 248 0 l 1
 59 0 l 1
EndSplineSet
EndChar

StartChar: sterling
Encoding: 163 163 421
Width: 816
VWidth: 0
Flags: W
HStem: 0 165<343 760> 724 164<4 124 343 587> 1495 179<387.77 556.845>
VStem: 124 219<165 724 888 1451> 597 164<1252 1453.27>
CounterMasks: 1 e0
LayerCount: 2
UndoRedoHistory
Layer: 1
Undoes
EndUndoes
Redoes
EndRedoes
EndUndoRedoHistory
Fore
SplineSet
4 0 m 1
 4 110 l 1
 124 164 l 1
 124 724 l 1
 4 724 l 1
 4 888 l 1
 124 888 l 1
 124 1077 l 2
 124 1397 157 1674 471 1674 c 0
 685 1674 759 1525 761 1319 c 0
 761 1318 761 1253 761 1252 c 1
 597 1252 l 1
 597 1373 584 1495 471 1495 c 0
 356 1495 346 1353 343 1225 c 1
 343 888 l 1
 587 888 l 1
 587 724 l 1
 343 724 l 1
 343 165 l 1
 760 165 l 1
 760 0 l 1
 4 0 l 1
EndSplineSet
EndChar

StartChar: summation
Encoding: 511 8721 422
Width: 831
VWidth: 0
Flags: W
HStem: -390 166<308 730> 1487 171<314 724>
VStem: 54 670
LayerCount: 2
UndoRedoHistory
Layer: 1
Undoes
EndUndoes
Redoes
EndRedoes
EndUndoRedoHistory
Fore
SplineSet
54 -390 m 1
 384 642 l 1
 54 1658 l 1
 724 1658 l 1
 724 1487 l 1
 314 1487 l 1
 592 642 l 1
 308 -224 l 1
 730 -224 l 1
 730 -390 l 1
 54 -390 l 1
EndSplineSet
EndChar

StartChar: t
Encoding: 116 116 423
Width: 631
VWidth: 0
Flags: W
HStem: -17 169<405.764 578> 1038 146<46 170 389 579>
VStem: 170 219<166.061 1038 1184 1529>
AnchorPoint: "cedilla" 340 0 basechar 0
LayerCount: 2
UndoRedoHistory
Layer: 1
Undoes
EndUndoes
Redoes
EndRedoes
EndUndoRedoHistory
Fore
SplineSet
426 -17 m 0
 239 -17 172 86 170 266 c 1
 170 1038 l 1
 46 1038 l 1
 46 1184 l 1
 170 1184 l 1
 170 1529 l 1
 389 1529 l 1
 389 1184 l 1
 579 1184 l 1
 579 1038 l 1
 389 1038 l 1
 389 281 l 2
 389 189 411 152 497 152 c 0
 518 152 551 153 578 157 c 1
 578 -5 l 1
 522 -12 481 -17 426 -17 c 0
EndSplineSet
EndChar

StartChar: tbar
Encoding: 512 359 424
Width: 646
VWidth: 0
Flags: W
HStem: -17 169<405.764 578> 697 112<53 594> 1038 146<46 170 389 579>
VStem: 53 541 170 219<166.061 1038 1184 1529>
LayerCount: 2
UndoRedoHistory
Layer: 1
Undoes
EndUndoes
Redoes
EndRedoes
EndUndoRedoHistory
Fore
SplineSet
594 697 m 1xf0
 53 697 l 1
 53 809 l 1
 594 809 l 1
 594 697 l 1xf0
EndSplineSet
Refer: 423 116 N 1 0 0 1 0 0 2
Colour: ffff00
EndChar

StartChar: thorn
Encoding: 254 254 427
Width: 915
VWidth: 0
Flags: W
HStem: -390 21G<113 332> -17 173<401.052 567.951> 1028 172<407.184 568.284> 1638 20G<113 332>
VStem: 113 219<-390 88 181.992 997.88 1089 1658> 608 219<194.802 985.843>
LayerCount: 2
UndoRedoHistory
Layer: 1
Undoes
EndUndoes
Redoes
EndRedoes
EndUndoRedoHistory
Fore
SplineSet
113 -390 m 1
 113 1658 l 1
 332 1658 l 1
 332 1089 l 1
 383 1149 455 1200 557 1200 c 0
 804 1200 827 897 827 755 c 2
 827 469 l 2
 827 217 766 -17 533 -17 c 0
 449 -17 382 33 332 88 c 1
 332 -390 l 1
 113 -390 l 1
489 156 m 0
 601 156 608 294 608 468 c 2
 608 755 l 2
 608 904 594 1028 480 1028 c 0
 422 1028 371 999 332 967 c 1
 332 208 l 1
 372 179 423 156 489 156 c 0
EndSplineSet
EndChar

StartChar: three
Encoding: 51 51 428
Width: 956
VWidth: 0
Flags: W
HStem: -18 181<366.043 612.671> 776 219<430 582.439> 1195 21G<81 300> 1495 179<362.581 617.739>
VStem: 81 219<229.763 463 1195 1427.2> 677 220<234.585 678.826 1066.24 1434.81>
CounterMasks: 1 d0
LayerCount: 2
UndoRedoHistory
Layer: 1
Undoes
EndUndoes
Redoes
EndRedoes
EndUndoRedoHistory
Fore
SplineSet
487 -18 m 0
 217 -18 81 143 81 408 c 2
 81 463 l 1
 300 463 l 1
 300 452 300 438 300 427 c 0
 303 276 335 163 487 163 c 0
 646 163 677 286 677 469 c 0
 677 644 622 764 461 775 c 0
 453 776 439 776 430 776 c 1
 430 995 l 1
 438 995 451 995 458 995 c 0
 614 1000 677 1069 677 1247 c 0
 677 1396 638 1495 490 1495 c 0
 337 1495 303 1384 300 1228 c 0
 300 1217 300 1205 300 1195 c 1
 81 1195 l 1
 81 1250 l 2
 81 1513 218 1674 490 1674 c 0
 761 1674 897 1511 897 1247 c 0
 897 1046 802 927 660 885 c 1
 809 837 897 694 897 469 c 0
 897 175 781 -18 487 -18 c 0
EndSplineSet
EndChar

StartChar: threequarters
Encoding: 190 190 429
Width: 1649
VWidth: 0
Flags: W
HStem: 0 21G<477 666.526 1312 1478> 244 113<1146 1312 1478 1598> 829 112<270.023 390.459> 1198 112<279 381.841> 1563 113<270.919 388.251> 1638 20G<1010.49 1201>
VStem: 96 166<944.358 1064 1440 1554.78> 399 167<946.355 1180.8 1325.17 1558.99> 1312 166<0 244 357 681>
CounterMasks: 1 38
LayerCount: 2
UndoRedoHistory
Layer: 1
Undoes
EndUndoes
Redoes
EndRedoes
EndUndoRedoHistory
Fore
SplineSet
330 829 m 0xfb80
 179 829 96 917 96 1064 c 1
 262 1064 l 1
 262 1000 266 941 330 941 c 0
 393 941 399 999 399 1069 c 0
 399 1161 368 1198 279 1198 c 1
 279 1310 l 1
 369 1310 398 1343 398 1438 c 0
 398 1504 395 1563 332 1563 c 0
 267 1563 262 1505 262 1440 c 1
 96 1440 l 1
 96 1587 179 1676 332 1676 c 0
 484 1676 565 1585 565 1438 c 0
 565 1318 494 1259 392 1254 c 1
 493 1246 566 1193 566 1070 c 0
 566 920 483 829 330 829 c 0xfb80
1312 0 m 1
 1312 244 l 1
 1013 244 l 1
 1013 357 l 1
 1328 912 l 1
 1478 912 l 1
 1478 357 l 1
 1598 357 l 1
 1598 244 l 1
 1478 244 l 1
 1478 0 l 1
 1312 0 l 1
477 0 m 1
 1017 1658 l 1
 1201 1658 l 1xf780
 660 0 l 1
 477 0 l 1
1146 357 m 1
 1312 357 l 1
 1312 681 l 1
 1146 357 l 1
EndSplineSet
EndChar

StartChar: uni00B3
Encoding: 179 179 430
Width: 893
VWidth: 0
Flags: W
HStem: 617 157<396.667 581.471> 1160 140<389 566.64> 1683 147<393.443 587.288>
VStem: 177 184<808.547 1035 1424 1651.89> 621 173<812.055 1108.07 1356.36 1650.18>
CounterMasks: 1 e0
LayerCount: 2
UndoRedoHistory
Layer: 1
Undoes
EndUndoes
Redoes
EndRedoes
EndUndoRedoHistory
Fore
SplineSet
490 617 m 0
 258 617 176 742 176 965 c 2
 176 1035 l 1
 359 1035 l 1
 359 960 l 2
 359 839 401 774 485 774 c 0
 575 774 621 841 621 946 c 0
 621 1064 572 1160 475 1160 c 2
 389 1160 l 1
 389 1300 l 1
 471 1300 l 2
 571 1300 620 1400 620 1521 c 0
 620 1627 571 1683 488 1683 c 0
 404 1683 361 1624 361 1523 c 2
 361 1424 l 1
 177 1424 l 1
 177 1517 l 2
 177 1704 282 1830 483 1830 c 0
 687 1830 793 1721 793 1510 c 0
 793 1370 711 1264 638 1245 c 1
 710 1217 794 1141 794 967 c 0
 794 753 695 617 490 617 c 0
EndSplineSet
EndChar

StartChar: tilde
Encoding: 515 732 431
Width: 868
VWidth: 0
Flags: W
HStem: 1433 140<464.085 610.087> 1533 139<257.348 411.196>
VStem: 127 125<1451 1531.98> 616 124<1575.77 1658>
LayerCount: 2
UndoRedoHistory
Layer: 1
Undoes
EndUndoes
Redoes
EndRedoes
EndUndoRedoHistory
Fore
SplineSet
569 1433 m 1xb0
 473 1433 367 1532 304 1533 c 1
 269 1535 252 1511 252 1451 c 1
 127 1451 l 1
 127 1572 168 1675 304 1672 c 1x70
 400 1671 517 1574 569 1573 c 0
 603 1572 616 1593 616 1658 c 1
 740 1658 l 1
 740 1535 705 1431 569 1433 c 1xb0
EndSplineSet
EndChar

StartChar: tildecomb
Encoding: 516 771 432
Width: 868
VWidth: 0
Flags: W
HStem: 1433 140<464.085 610.087> 1533 139<257.348 411.196>
VStem: 127 125<1451 1531.98> 616 124<1575.77 1658>
LayerCount: 2
UndoRedoHistory
Layer: 1
Undoes
EndUndoes
Redoes
EndRedoes
EndUndoRedoHistory
Fore
SplineSet
569 1433 m 1xb0
 473 1433 367 1532 304 1533 c 1
 269 1535 252 1511 252 1451 c 1
 127 1451 l 1
 127 1572 168 1675 304 1672 c 1x70
 400 1671 517 1574 569 1573 c 0
 603 1572 616 1593 616 1658 c 1
 740 1658 l 1
 740 1535 705 1431 569 1433 c 1xb0
EndSplineSet
EndChar

StartChar: trademark
Encoding: 517 8482 433
Width: 1505
VWidth: 0
Flags: W
HStem: 1522 136<113 279 442 597>
VStem: 279 163<755 1522> 699 150<1611.83 1658> 699 128<755 1311> 1265 128<755 1313>
CounterMasks: 1 58
LayerCount: 2
UndoRedoHistory
Layer: 1
Undoes
EndUndoes
Redoes
EndRedoes
EndUndoRedoHistory
Fore
SplineSet
699 755 m 1xd8
 699 1658 l 1
 849 1658 l 1xe8
 1044 1030 l 1
 1256 1658 l 1
 1393 1658 l 1
 1393 755 l 1
 1265 755 l 1
 1265 1313 l 1
 1084 755 l 1
 1015 755 l 1
 827 1311 l 1
 827 755 l 1
 699 755 l 1xd8
279 755 m 1
 279 1522 l 1
 113 1522 l 1
 113 1658 l 1
 597 1658 l 1
 597 1522 l 1
 442 1522 l 1
 442 755 l 1
 279 755 l 1
EndSplineSet
EndChar

StartChar: two
Encoding: 50 50 434
Width: 979
VWidth: 0
Flags: W
HStem: 0 184<342 866> 1494 180<402.155 626.768>
VStem: 103 219<1133 1401.55> 684 221<1040 1437.01>
LayerCount: 2
UndoRedoHistory
Layer: 1
Undoes
EndUndoes
Redoes
EndRedoes
EndUndoRedoHistory
Fore
SplineSet
83 0 m 1
 83 156 l 1
 505 814 l 1
 598 961 684 1060 684 1247 c 0
 684 1398 641 1494 519 1494 c 0
 361 1494 322 1345 322 1188 c 2
 322 1188 322 1134 322 1133 c 1
 103 1133 l 1
 103 1189 l 2
 103 1487 213 1674 507 1674 c 0
 775 1674 905 1514 905 1245 c 0
 905 1033 820 914 723 766 c 2
 342 184 l 1
 866 184 l 1
 866 0 l 1
 83 0 l 1
EndSplineSet
EndChar

StartChar: uni00B2
Encoding: 178 178 435
Width: 893
VWidth: 0
Flags: W
HStem: 629 137<366 735> 1697 134<418.895 571.87>
VStem: 187 162<1442 1610.51> 602 164<1349.25 1669.47>
LayerCount: 2
UndoRedoHistory
Layer: 1
Undoes
EndUndoes
Redoes
EndRedoes
EndUndoRedoHistory
Fore
SplineSet
174 629 m 1
 174 745 l 1
 474 1215 l 2
 540 1320 602 1388 602 1522 c 0
 602 1629 573 1697 486 1697 c 0
 378 1697 349 1457 349 1442 c 1
 187 1442 l 1
 187 1482 l 2
 187 1696 267 1831 478 1831 c 0
 671 1831 766 1717 766 1523 c 0
 766 1370 707 1288 636 1179 c 2
 366 766 l 1
 735 766 l 1
 735 629 l 1
 174 629 l 1
EndSplineSet
EndChar

StartChar: u
Encoding: 117 117 436
Width: 901
VWidth: 0
Flags: W
HStem: -16 172<209.5 448.118> 0 21G<569 788> 1164 20G<103 322 569 788>
VStem: 103 219<166.345 1184> 569 219<0 117 195.466 1184>
AnchorPoint: "ogonek" 672 0 basechar 0
LayerCount: 2
UndoRedoHistory
Layer: 1
Undoes
EndUndoes
Redoes
EndRedoes
EndUndoRedoHistory
Fore
SplineSet
280 -16 m 0xb8
 139 -16 103 111 103 226 c 2
 103 1184 l 1
 322 1184 l 1
 322 290 l 2
 322 206 339 156 416 156 c 0xb8
 465 156 520 188 569 229 c 1
 569 1184 l 1
 788 1184 l 1
 788 0 l 1
 569 0 l 1x78
 569 117 l 1
 491 43 395 -16 280 -16 c 0xb8
EndSplineSet
EndChar

StartChar: underscore
Encoding: 95 95 444
Width: 705
VWidth: 0
Flags: W
HStem: -275 166<0 705>
LayerCount: 2
UndoRedoHistory
Layer: 1
Undoes
EndUndoes
Redoes
EndRedoes
EndUndoRedoHistory
Fore
SplineSet
0 -275 m 1
 0 -109 l 1
 705 -109 l 1
 705 -275 l 1
 0 -275 l 1
EndSplineSet
EndChar

StartChar: uni00AD
Encoding: 173 173 446
Width: 704
VWidth: 0
Flags: W
HStem: 956 166<118 589>
VStem: 118 471<956 1122>
LayerCount: 2
UndoRedoHistory
Layer: 1
Undoes
EndUndoes
Redoes
EndRedoes
EndUndoRedoHistory
Fore
SplineSet
118 956 m 1
 118 1122 l 1
 589 1122 l 1
 589 956 l 1
 118 956 l 1
EndSplineSet
EndChar

StartChar: uni0237
Encoding: 561 567 487
Width: 471
VWidth: 0
Flags: W
HStem: -326 166<-38 116.315> 1164 20G<142 361>
VStem: 142 219<-135.091 1184>
AnchorPoint: "circumflexcomb" 215 1300 basechar 0
LayerCount: 2
UndoRedoHistory
Layer: 1
Undoes
EndUndoes
Redoes
EndRedoes
EndUndoRedoHistory
Fore
SplineSet
-38 -312 m 1
 -38 -154 l 1
 -25 -157 4 -160 19 -160 c 0
 113 -160 142 -101 142 -17 c 2
 142 1184 l 1
 361 1184 l 1
 361 -40 l 2
 361 -225 251 -326 73 -326 c 0
 37 -326 -10 -323 -38 -312 c 1
EndSplineSet
EndChar

StartChar: uni0302
Encoding: 563 770 489
Width: 702
VWidth: 0
Flags: W
HStem: 1301 357
VStem: 63 577
AnchorPoint: "circumflexcomb" 328 1225 mark 0
LayerCount: 2
UndoRedoHistory
Layer: 1
Undoes
EndUndoes
Redoes
EndRedoes
EndUndoRedoHistory
Fore
SplineSet
63 1301 m 1
 240 1658 l 1
 462 1658 l 1
 640 1301 l 1
 475 1301 l 1
 351 1549 l 1
 227 1301 l 1
 63 1301 l 1
EndSplineSet
EndChar

StartChar: uni0304
Encoding: 564 772 490
Width: 614
VWidth: 0
Flags: W
HStem: 1526 132<127 521>
VStem: 127 394<1526 1658>
LayerCount: 2
UndoRedoHistory
Layer: 1
Undoes
EndUndoes
Redoes
EndRedoes
EndUndoRedoHistory
Fore
SplineSet
127 1526 m 1
 127 1658 l 1
 521 1658 l 1
 521 1526 l 1
 127 1526 l 1
EndSplineSet
EndChar

StartChar: uni0306
Encoding: 565 774 491
Width: 713
VWidth: 0
Flags: W
HStem: 1354 124<239.597 474.711> 1638 20G<70 198.5 515.5 645>
VStem: 70 128<1518.24 1658> 516 129<1518.24 1658>
LayerCount: 2
UndoRedoHistory
Layer: 1
Undoes
EndUndoes
Redoes
EndRedoes
EndUndoRedoHistory
Fore
SplineSet
357 1354 m 0
 140 1354 71 1487 70 1658 c 1
 198 1658 l 1
 199 1528 254 1478 357 1478 c 0
 459 1478 515 1529 516 1658 c 1
 645 1658 l 1
 645 1487 576 1354 357 1354 c 0
EndSplineSet
EndChar

StartChar: uni0307
Encoding: 566 775 492
Width: 0
VWidth: 0
Flags: W
HStem: 1415 243<-79 141>
VStem: -79 220<1415 1658>
LayerCount: 2
UndoRedoHistory
Layer: 1
Undoes
EndUndoes
Redoes
EndRedoes
EndUndoRedoHistory
Fore
SplineSet
-79 1415 m 1
 -79 1658 l 1
 141 1658 l 1
 141 1415 l 1
 -79 1415 l 1
EndSplineSet
EndChar

StartChar: uni0308
Encoding: 567 776 493
Width: 745
VWidth: 0
Flags: W
HStem: 1432 226<87 307 438 659>
VStem: 87 220<1432 1658> 438 221<1432 1658>
LayerCount: 2
UndoRedoHistory
Layer: 1
Undoes
EndUndoes
Redoes
EndRedoes
EndUndoRedoHistory
Fore
SplineSet
87 1432 m 1
 87 1658 l 1
 307 1658 l 1
 307 1432 l 1
 87 1432 l 1
438 1432 m 1
 438 1658 l 1
 659 1658 l 1
 659 1432 l 1
 438 1432 l 1
EndSplineSet
EndChar

StartChar: uni030A
Encoding: 568 778 494
Width: 591
VWidth: 0
Flags: W
HStem: 1221 111<201.326 390.394> 1568 110<201.537 390.605>
VStem: 68 111<1354.21 1546.07> 413 112<1354.21 1546.07>
LayerCount: 2
UndoRedoHistory
Layer: 1
Undoes
EndUndoes
Redoes
EndRedoes
EndUndoRedoHistory
Fore
SplineSet
296 1221 m 0
 159 1221 68 1311 68 1450 c 0
 68 1590 160 1678 296 1678 c 0
 433 1678 525 1590 525 1450 c 0
 525 1311 432 1221 296 1221 c 0
296 1332 m 0
 367 1332 413 1376 413 1450 c 0
 413 1525 367 1568 296 1568 c 0
 224 1568 179 1525 179 1450 c 0
 179 1376 224 1332 296 1332 c 0
EndSplineSet
EndChar

StartChar: uni030C
Encoding: 569 780 495
Width: 0
VWidth: 0
Flags: W
HStem: 1305 353
VStem: -202 570
LayerCount: 2
UndoRedoHistory
Layer: 1
Undoes
EndUndoes
Redoes
EndRedoes
EndUndoRedoHistory
Fore
SplineSet
-25 1305 m 1
 -202 1658 l 1
 -36 1658 l 1
 83 1419 l 1
 201 1658 l 1
 368 1658 l 1
 190 1305 l 1
 -25 1305 l 1
EndSplineSet
EndChar

StartChar: uni030F
Encoding: 570 783 496
Width: 585
VWidth: 0
Flags: W
HStem: 1310 348<206 234>
VStem: 13 602
LayerCount: 2
UndoRedoHistory
Layer: 1
Undoes
EndUndoes
Redoes
EndRedoes
EndUndoRedoHistory
Fore
SplineSet
242 1310 m 1
 13 1658 l 1
 234 1658 l 1
 352 1310 l 1
 242 1310 l 1
504 1310 m 1
 352 1658 l 1
 532 1658 l 1
 615 1310 l 1
 504 1310 l 1
EndSplineSet
EndChar

StartChar: uni0311
Encoding: 571 785 497
Width: 713
VWidth: 0
Flags: W
HStem: 1534 124<248.762 465.162>
VStem: 87 129<1354 1500.72> 498 129<1354 1500.28>
LayerCount: 2
UndoRedoHistory
Layer: 1
Undoes
EndUndoes
Redoes
EndRedoes
EndUndoRedoHistory
Fore
SplineSet
87 1354 m 1
 88 1526 138 1658 357 1658 c 0
 574 1658 626 1525 627 1354 c 1
 498 1354 l 1
 497 1484 460 1534 358 1534 c 0
 255 1534 217 1483 216 1354 c 1
 87 1354 l 1
EndSplineSet
EndChar

StartChar: uni0326
Encoding: 572 806 498
Width: 324
VWidth: 0
Flags: W
HStem: -535 109<105 141.673> -300 225<51 163>
VStem: 51 221<-300 -75> 163 109<-401.977 -300>
LayerCount: 2
UndoRedoHistory
Layer: 1
Undoes
EndUndoes
Redoes
EndRedoes
EndUndoRedoHistory
Fore
SplineSet
105 -535 m 1xe0
 49 -426 l 1
 133 -420 163 -378 163 -300 c 1xd0
 51 -300 l 1
 51 -75 l 1
 274 -75 l 1
 272 -286 l 2
 271 -432 246 -529 105 -535 c 1xe0
EndSplineSet
EndChar

StartChar: afii10050
Encoding: 577 1168 503
Width: 772
VWidth: 0
Flags: W
HStem: 0 21G<130 361> 1487 171<361 617>
VStem: 130 231<0 1487> 617 144<1658 1881>
LayerCount: 2
UndoRedoHistory
Layer: 1
Undoes
EndUndoes
Redoes
EndRedoes
EndUndoRedoHistory
Fore
SplineSet
130 0 m 1
 130 1658 l 1
 617 1658 l 1
 616 1881 l 1
 761 1881 l 1
 761 1487 l 1
 361 1487 l 1
 361 0 l 1
 130 0 l 1
EndSplineSet
EndChar

StartChar: uni04AE
Encoding: 578 -1 504
Width: 976
VWidth: 0
Flags: W
HStem: 0 21G<379 600> 1638 20G<20 242.312 730.736 956>
VStem: 379 221<0 725>
LayerCount: 2
UndoRedoHistory
Layer: 1
Undoes
EndUndoes
Redoes
EndRedoes
EndUndoRedoHistory
Fore
SplineSet
379 0 m 1
 379 725 l 1
 20 1658 l 1
 235 1658 l 1
 386 1245 l 1
 488 967 l 1
 588 1245 l 1
 738 1658 l 1
 956 1658 l 1
 600 725 l 1
 600 0 l 1
 379 0 l 1
EndSplineSet
EndChar

StartChar: uni04AF
Encoding: 579 1199 505
Width: 794
VWidth: 0
Flags: W
HStem: 1164 20G<24 250.056 555.071 781>
VStem: 300 197<-350 129.76>
LayerCount: 2
UndoRedoHistory
Layer: 1
Undoes
EndUndoes
Redoes
EndRedoes
EndUndoRedoHistory
Fore
SplineSet
300 -350 m 1
 300 72 l 1
 24 1184 l 1
 246 1184 l 1
 405 400 l 1
 559 1184 l 1
 781 1184 l 1
 497 79 l 1
 497 -350 l 1
 300 -350 l 1
EndSplineSet
EndChar

StartChar: uni04B0
Encoding: 580 1200 506
Width: 986
VWidth: 0
Flags: W
HStem: 0 21<384 605> 616 158<98 899> 1638 20<25 247.312 735.736 961>
VStem: 384 221<0 725>
LayerCount: 2
UndoRedoHistory
Layer: 0
Undoes
EndUndoes
Redoes
EndRedoes
EndUndoRedoHistory
UndoRedoHistory
Layer: 1
Undoes
EndUndoes
Redoes
EndRedoes
EndUndoRedoHistory
Fore
SplineSet
98 616 m 1
 98 774 l 1
 899 774 l 1
 899 616 l 1
 98 616 l 1
EndSplineSet
Refer: 504 -1 N 1 0 0 1 5 0 2
Colour: ffff00
EndChar

StartChar: uni04B1
Encoding: 581 1201 507
Width: 819
VWidth: 0
Flags: W
HStem: -29 146<90 718> 1164 20<31 257.056 562.071 788>
VStem: 307 197<-350 129.76>
LayerCount: 2
UndoRedoHistory
Layer: 0
Undoes
EndUndoes
Redoes
EndRedoes
EndUndoRedoHistory
UndoRedoHistory
Layer: 1
Undoes
EndUndoes
Redoes
EndRedoes
EndUndoRedoHistory
Fore
SplineSet
90 -29 m 1
 90 117 l 1
 718 117 l 1
 718 -29 l 1
 90 -29 l 1
EndSplineSet
Refer: 505 1199 N 1 0 0 1 7 0 2
Colour: ffff00
EndChar

StartChar: uni04E8
Encoding: 582 1256 508
Width: 1104
VWidth: 0
Flags: W
HStem: -18 181<407.351 696.315> 757 158<214 903> 1494 180<407.685 696.149>
VStem: 99 233<248.992 1415.78> 772 233<249.996 1414.45>
LayerCount: 2
UndoRedoHistory
Layer: 1
Undoes
EndUndoes
Redoes
EndRedoes
EndUndoRedoHistory
Fore
SplineSet
214 757 m 1
 214 915 l 1
 903 915 l 1
 903 757 l 1
 214 757 l 1
EndSplineSet
Refer: 69 79 N 1 0 0 1 0 0 2
Colour: ffff00
EndChar

StartChar: uni04E9
Encoding: 583 1257 509
Width: 868
VWidth: 0
Flags: W
HStem: -17 162<342.397 525.091> 547 137<193 678> 1039 161<342.397 525.091>
VStem: 89 219<182.007 1000.99> 559 220<182.007 1000.99>
LayerCount: 2
UndoRedoHistory
Layer: 1
Undoes
EndUndoes
Redoes
EndRedoes
EndUndoRedoHistory
Fore
SplineSet
193 547 m 1
 193 684 l 1
 678 684 l 1
 678 547 l 1
 193 547 l 1
EndSplineSet
Refer: 360 111 N 1 0 0 1 0 0 2
Colour: ffff00
EndChar

StartChar: uni2074
Encoding: 598 8308 524
Width: 713
VWidth: 0
Flags: W
HStem: 863 113<199 387 553 672> 1638 20G<392.971 553>
VStem: 387 166<565 863 976 1381>
LayerCount: 2
UndoRedoHistory
Layer: 1
Undoes
EndUndoes
Redoes
EndRedoes
EndUndoRedoHistory
Fore
SplineSet
387 565 m 1
 387 863 l 1
 61 863 l 1
 61 976 l 1
 403 1658 l 1
 553 1658 l 1
 553 976 l 1
 672 976 l 1
 672 863 l 1
 553 863 l 1
 553 565 l 1
 387 565 l 1
199 976 m 1
 387 976 l 1
 387 1381 l 1
 199 976 l 1
EndSplineSet
EndChar

StartChar: uni2215
Encoding: 599 8725 525
Width: 756
VWidth: 0
Flags: W
HStem: 0 21G<59 253.404> 1638 20G<500.608 696>
VStem: 59 637
LayerCount: 2
UndoRedoHistory
Layer: 1
Undoes
EndUndoes
Redoes
EndRedoes
EndUndoRedoHistory
Fore
SplineSet
59 0 m 1
 506 1658 l 1
 696 1658 l 1
 248 0 l 1
 59 0 l 1
EndSplineSet
EndChar

StartChar: uni2219
Encoding: 600 8729 526
Width: 360
VWidth: 0
Flags: W
HStem: 659 225<74 294>
VStem: 74 220<659 884>
LayerCount: 2
UndoRedoHistory
Layer: 1
Undoes
EndUndoes
Redoes
EndRedoes
EndUndoRedoHistory
Fore
SplineSet
74 659 m 1
 74 884 l 1
 294 884 l 1
 294 659 l 1
 74 659 l 1
EndSplineSet
EndChar

StartChar: uniFB01
Encoding: 602 64257 528
Width: 1006
VWidth: 0
Flags: W
HStem: 0 21G<181 399 664 883> 1021 163<38 181 399 664> 1359 230<684 884> 1433 165<417.891 579>
VStem: 181 218<0 1021 1184 1415.49> 664 219<0 1021> 684 200<1359 1589>
LayerCount: 2
UndoRedoHistory
Layer: 1
Undoes
EndUndoes
Redoes
EndRedoes
EndUndoRedoHistory
Fore
SplineSet
181 0 m 1xdc
 181 1021 l 1
 38 1021 l 1
 38 1184 l 1
 181 1184 l 1
 181 1245 l 2
 181 1480 245 1598 461 1598 c 0xdc
 496 1598 537 1595 579 1589 c 1xec
 579 1425 l 1
 550 1430 524 1433 503 1433 c 0
 417 1433 399 1390 399 1283 c 2
 399 1184 l 1
 883 1184 l 1
 883 0 l 1
 664 0 l 1
 664 1021 l 1
 399 1021 l 1
 399 0 l 1
 181 0 l 1xdc
684 1359 m 1xea
 684 1589 l 1
 884 1589 l 1
 884 1359 l 1
 684 1359 l 1xea
EndSplineSet
EndChar

StartChar: uniFB02
Encoding: 603 64258 529
Width: 1054
VWidth: 0
Flags: W
HStem: 0 21G<181 399 716 936> 1021 163<38 181 399 580> 1477 163<445.19 714.088>
VStem: 181 218<0 1021 1184 1430.66> 716 220<0 1472.75>
LayerCount: 2
UndoRedoHistory
Layer: 1
Undoes
EndUndoes
Redoes
EndRedoes
EndUndoRedoHistory
Fore
SplineSet
399 1021 m 1
 399 0 l 1
 181 0 l 1
 181 1021 l 1
 38 1021 l 1
 38 1184 l 1
 181 1184 l 1
 181 1245 l 2
 181 1420 189 1640 559 1640 c 0
 657 1640 781 1624 936 1589 c 1
 936 0 l 1
 716 0 l 1
 716 1468 l 1
 667 1474 627 1477 592 1477 c 0
 401 1477 399 1382 399 1250 c 0
 399 1249 399 1184 399 1184 c 1
 580 1184 l 1
 580 1021 l 1
 399 1021 l 1
EndSplineSet
EndChar

StartChar: uniFB03
Encoding: 604 64259 530
Width: 1507
VWidth: 0
Flags: W
HStem: 0 21G<181 399 673 891 1165 1383> 1021 163<38 181 399 673 891 1165> 1359 230<1165 1384> 1435 165<415.807 579 907.807 1071>
VStem: 181 218<0 1021 1184 1416.71> 673 218<0 1021 1184 1416.71> 1165 218<0 1021 1359 1589>
CounterMasks: 1 0e
LayerCount: 2
UndoRedoHistory
Layer: 1
Undoes
EndUndoes
Redoes
EndRedoes
EndUndoRedoHistory
Fore
SplineSet
1165 1359 m 1xee
 1165 1589 l 1
 1384 1589 l 1
 1384 1359 l 1
 1165 1359 l 1xee
181 0 m 1
 181 1021 l 1
 38 1021 l 1
 38 1184 l 1
 181 1184 l 1
 181 1245 l 2
 181 1464 214 1600 437 1600 c 0xde
 492 1600 523 1596 579 1589 c 1xee
 579 1425 l 1
 555 1428 522 1435 498 1435 c 0
 412 1435 399 1374 399 1283 c 2
 399 1184 l 1
 673 1184 l 1
 673 1245 l 2
 673 1464 706 1600 929 1600 c 0xde
 984 1600 1014 1596 1071 1589 c 1xee
 1071 1425 l 1
 1046 1428 1013 1435 990 1435 c 0xde
 904 1435 891 1374 891 1283 c 2
 891 1184 l 1
 1383 1184 l 1
 1383 0 l 1
 1165 0 l 1
 1165 1021 l 1
 891 1021 l 1
 891 0 l 1
 673 0 l 1
 673 1021 l 1
 399 1021 l 1
 399 0 l 1
 181 0 l 1
EndSplineSet
EndChar

StartChar: v
Encoding: 118 118 535
Width: 788
VWidth: 0
Flags: W
HStem: 0 21G<261.047 536.784> 1164 20G<31 254.064 540.915 757>
LayerCount: 2
UndoRedoHistory
Layer: 1
Undoes
EndUndoes
Redoes
EndRedoes
EndUndoRedoHistory
Fore
SplineSet
265 0 m 1
 31 1184 l 1
 251 1184 l 1
 397 231 l 1
 544 1184 l 1
 757 1184 l 1
 533 0 l 1
 265 0 l 1
EndSplineSet
EndChar

StartChar: w
Encoding: 119 119 536
Width: 1204
VWidth: 0
Flags: W
HStem: 0 21G<243.807 448.832 761.168 954.294> 1164 20G<58 240.821 515.376 689.613 964.146 1146>
LayerCount: 2
UndoRedoHistory
Layer: 1
Undoes
EndUndoes
Redoes
EndRedoes
EndUndoRedoHistory
Fore
SplineSet
247 0 m 1
 58 1184 l 1
 238 1184 l 1
 361 312 l 1
 519 1184 l 1
 686 1184 l 1
 843 315 l 1
 967 1184 l 1
 1146 1184 l 1
 951 0 l 1
 765 0 l 1
 605 835 l 1
 445 0 l 1
 247 0 l 1
EndSplineSet
EndChar

StartChar: x
Encoding: 120 120 541
Width: 796
VWidth: 0
Flags: W
HStem: 0 21G<19 233.96 562.746 781> 1164 20G<24 243.227 552.787 776>
LayerCount: 2
UndoRedoHistory
Layer: 1
Undoes
EndUndoes
Redoes
EndRedoes
EndUndoRedoHistory
Fore
SplineSet
19 0 m 1
 284 622 l 1
 24 1184 l 1
 234 1184 l 1
 407 809 l 1
 561 1184 l 1
 776 1184 l 1
 506 595 l 1
 781 0 l 1
 572 0 l 1
 386 402 l 1
 226 0 l 1
 19 0 l 1
EndSplineSet
EndChar

StartChar: y
Encoding: 121 121 542
Width: 802
VWidth: 0
Flags: W
HStem: -296 166<92 294.085> 1164 20G<24 249.593 555.52 781>
LayerCount: 2
UndoRedoHistory
Layer: 1
Undoes
EndUndoes
Redoes
EndRedoes
EndUndoRedoHistory
Fore
SplineSet
92 -296 m 1
 92 -130 l 1
 287 -130 325 -102 300 13 c 0
 288 65 275 122 262 176 c 0
 191 476 95 884 24 1184 c 1
 246 1184 l 1
 405 299 l 1
 559 1184 l 1
 781 1184 l 1
 497 -65 l 2
 458 -238 334 -296 119 -296 c 2
 92 -296 l 1
EndSplineSet
EndChar

StartChar: yen
Encoding: 165 165 546
Width: 935
VWidth: 0
Flags: W
HStem: 0 21G<378 599> 235 144<196 378 599 780> 512 142<196 356 622 780> 1638 20G<20 241.333 731.742 956>
VStem: 378 221<0 235 379 512>
LayerCount: 2
UndoRedoHistory
Layer: 1
Undoes
EndUndoes
Redoes
EndRedoes
EndUndoRedoHistory
Fore
SplineSet
378 0 m 1
 378 235 l 1
 196 235 l 1
 196 379 l 1
 378 379 l 1
 378 512 l 1
 196 512 l 1
 196 654 l 1
 356 654 l 1
 20 1658 l 1
 235 1658 l 1
 488 859 l 1
 738 1658 l 1
 956 1658 l 1
 622 654 l 1
 780 654 l 1
 780 512 l 1
 599 512 l 1
 599 379 l 1
 780 379 l 1
 780 235 l 1
 599 235 l 1
 599 0 l 1
 378 0 l 1
EndSplineSet
EndChar

StartChar: z
Encoding: 122 122 548
Width: 710
VWidth: 0
Flags: W
HStem: 0 165<300 655> 1020 164<102 428>
VStem: 65 598
LayerCount: 2
UndoRedoHistory
Layer: 1
Undoes
EndUndoes
Redoes
EndRedoes
EndUndoRedoHistory
Fore
SplineSet
65 0 m 1
 65 147 l 1
 428 1020 l 1
 102 1020 l 1
 102 1184 l 1
 663 1184 l 1
 663 1065 l 1
 300 165 l 1
 655 165 l 1
 655 0 l 1
 65 0 l 1
EndSplineSet
EndChar

StartChar: zero
Encoding: 48 48 552
Width: 1006
VWidth: 0
Flags: W
HStem: -18 180<390.459 616.479> 1495 179<387.969 617.902>
VStem: 93 220<253.297 1416.83> 693 221<252.425 1416.83>
LayerCount: 2
UndoRedoHistory
Layer: 1
Undoes
EndUndoes
Redoes
EndRedoes
EndUndoRedoHistory
Fore
SplineSet
503 162 m 0
 657 162 693 316 693 470 c 2
 693 1187 l 2
 693 1348 662 1495 503 1495 c 0
 344 1495 313 1348 313 1187 c 2
 313 470 l 2
 313 316 351 162 503 162 c 0
503 -18 m 0
 222 -18 93 187 93 472 c 2
 93 1185 l 2
 93 1477 216 1674 503 1674 c 0
 789 1674 914 1477 914 1185 c 2
 914 472 l 2
 914 185 787 -18 503 -18 c 0
EndSplineSet
EndChar

StartChar: afii00208
Encoding: 618 8213 553
Width: 4096
VWidth: 0
Flags: W
HStem: 535 166<100 3996>
LayerCount: 2
UndoRedoHistory
Layer: 1
Undoes
EndUndoes
Redoes
EndRedoes
EndUndoRedoHistory
Fore
SplineSet
100 535 m 1
 100 701 l 1
 3996 701 l 1
 3996 535 l 1
 100 535 l 1
EndSplineSet
EndChar

